M48
INCH,LZ
;FILE_FORMAT=2:4
;TYPE=PLATED
;Layer: PTH_Through_Via
;EasyEDA v6.5.46, 2024-11-26 11:19:02
;028e3914a6f949ed9ca799ef75e4ed4f,10
;Gerber Generator version 0.2
;Holesize 1 = 0.0130 inch
T01C0.0130
%
G05
G90
T01
X059800Y-046650
X078100Y-085950
X077250Y-085950
X014200Y-047000
X026250Y-047000
X040000Y-024650
X040000Y-023700
X003182Y-073300
X002250Y-073300
X077250Y-081450
X078050Y-081450
X073250Y-087900
X074400Y-087900
X077300Y-087900
X078100Y-087900
X079850Y-087900
X080450Y-087900
X050200Y-085200
X054750Y-092000
X055700Y-092000
X055750Y-094100
X056550Y-094100
X051350Y-015000
X050650Y-015000
X037500Y-027050
X037500Y-025200
X074550Y-023800
X074550Y-022100
X044550Y-026150
X059550Y-029250
X059550Y-028396
X058800Y-029250
X058800Y-028400
X088750Y-009750
X088000Y-009750
X074350Y-011300
X074350Y-010500
X080900Y-010200
X081550Y-010200
X082800Y-010200
X083400Y-010200
X080000Y-015450
X079200Y-015450
X077950Y-015450
X077100Y-015450
X075200Y-016350
X074550Y-016350
X067400Y-025900
X059850Y-026150
X057500Y-027250
X090000Y-034850
X090000Y-035950
X074450Y-077950
X074450Y-078950
X064650Y-074850
X061650Y-074850
X064650Y-075300
X066650Y-069650
X074800Y-028700
X069850Y-023700
X060850Y-019050
X059850Y-010500
X058700Y-010500
X058000Y-029250
X058000Y-028400
X058000Y-026300
X058000Y-025450
X058200Y-011150
X058200Y-010650
X057050Y-029250
X057050Y-026900
X059050Y-025950
X058400Y-025950
X085050Y-078433
X085050Y-077550
X085050Y-072200
X085050Y-071150
X090150Y-078400
X090150Y-077500
X089250Y-072250
X089250Y-071200
X089250Y-035950
X089250Y-034850
X079600Y-028150
X079600Y-027171
X084550Y-071150
X064150Y-036900
X064150Y-035700
X063300Y-028950
X080850Y-071150
X063500Y-036900
X063500Y-035700
X062900Y-028950
X047600Y-094450
X041900Y-087550
X042900Y-087550
X017700Y-091441
X041900Y-086900
X043050Y-085750
X027650Y-071800
X026800Y-071800
X026750Y-074050
X027600Y-074050
X073250Y-088400
X013550Y-095300
X033750Y-094850
X034850Y-094850
X073650Y-082650
X041900Y-083850
X041150Y-084600
X041000Y-040300
X042450Y-040300
X049450Y-048050
X041150Y-050300
X040300Y-060300
X040000Y-054300
X039750Y-054050
X039500Y-053700
X039250Y-053400
X039000Y-053050
X038750Y-052700
X038500Y-048850
X055000Y-048088
X041050Y-071800
X041050Y-072800
X045550Y-072806
X045550Y-072795
X048400Y-070300
X058750Y-058950
X054500Y-059000
X049600Y-059050
X050200Y-056900
X068800Y-075250
X067450Y-065450
X065250Y-064099
X065600Y-063500
X064150Y-063500
X050600Y-057350
X052500Y-057350
X062100Y-060950
X056600Y-056350
X053900Y-056550
X054950Y-056800
X053000Y-050300
X064050Y-062850
X051600Y-062850
X051150Y-062200
X052600Y-062200
X051000Y-071200
X068550Y-060000
X068550Y-060600
X068100Y-071700
X053500Y-056900
X055950Y-056200
X056150Y-065500
X052650Y-067000
X058450Y-060850
X053600Y-065500
X055150Y-065500
X060100Y-071000
X061650Y-074350
X061150Y-074850
X052650Y-074800
X045250Y-076300
X044400Y-078050
X054600Y-061850
X055600Y-061850
X059150Y-072250
X054650Y-072250
X058800Y-065300
X057150Y-068950
X057150Y-073800
X055650Y-073800
X056600Y-061600
X054000Y-061600
X053600Y-065150
X054400Y-065150
X055850Y-064200
X053100Y-064200
X053150Y-074100
X056650Y-074100
X052100Y-069850
X051850Y-071450
X065000Y-071450
X051850Y-069000
X049600Y-069000
X050150Y-072550
X059650Y-072550
X051000Y-052000
X038850Y-060300
X038850Y-061800
X038850Y-071250
X038850Y-072250
X030750Y-073500
X037350Y-067000
X009050Y-071600
X009050Y-072900
X050550Y-062900
X038250Y-062900
X010050Y-071600
X010050Y-072900
X053600Y-067600
X042050Y-067600
X034450Y-074500
X043780Y-078450
X035400Y-024650
X044250Y-027450
X037600Y-054150
X047000Y-065750
X037350Y-054400
X037100Y-054150
X037100Y-060200
X036750Y-049650
X038550Y-049650
X036450Y-054150
X036450Y-060700
X042900Y-059650
X041150Y-059650
X036050Y-059650
X036050Y-054150
X037900Y-044000
X056450Y-029250
X052350Y-039050
X051200Y-039050
X047700Y-041050
X037900Y-045000
X051000Y-043300
X051000Y-039950
X052000Y-039950
X048500Y-052000
X042900Y-060300
X043700Y-058550
X054600Y-067350
X046650Y-067350
X046650Y-060900
X047300Y-060900
X047300Y-058550
X043000Y-058600
X042900Y-057350
X041800Y-057350
X042900Y-056900
X041500Y-056900
X038550Y-060350
X038550Y-062550
X038550Y-064200
X049450Y-052400
X045050Y-052400
X038250Y-049271
X038250Y-050146
X055000Y-054300
X054000Y-054050
X057000Y-053700
X063500Y-053050
X062500Y-052700
X047400Y-048850
X047400Y-054500
X050450Y-050700
X047131Y-050700
X047300Y-066400
X044310Y-066400
X058450Y-033300
X058400Y-069250
X059850Y-069250
X060100Y-061050
X054150Y-061050
X037900Y-046000
X041900Y-046000
X042800Y-026050
X037900Y-047000
X042200Y-047000
X048350Y-032900
X000950Y-028000
X000950Y-025993
X059450Y-057150
X045750Y-057150
X041750Y-060000
X041750Y-061500
X044700Y-073300
X071150Y-037650
X072950Y-077750
X072950Y-078950
X072950Y-082200
X072950Y-083000
X063450Y-050561
X069450Y-050550
X069450Y-077400
X062500Y-050800
X069750Y-050800
X069750Y-050800
X069750Y-077400
X061500Y-051050
X070100Y-051050
X070100Y-077400
X070100Y-091500
X060600Y-091500
X060500Y-051350
X070400Y-051350
X070400Y-077400
X070400Y-089550
X060600Y-089550
X059500Y-051600
X070700Y-051600
X070700Y-077400
X070700Y-080100
X051100Y-080104
X051600Y-073300
X053500Y-051100
X045450Y-051100
X040700Y-060000
X040700Y-061500
X040700Y-071250
X040700Y-081700
X043400Y-081750
X054500Y-051450
X044750Y-051450
X041400Y-058800
X041400Y-061500
X041400Y-073050
X041400Y-081150
X044900Y-081150
X043400Y-089950
X044900Y-089550
X057500Y-052258
X077850Y-036600
X059190Y-052258
X053650Y-074350
X062200Y-074050
X063650Y-074050
X028550Y-082650
X010300Y-051550
X010300Y-049553
X017200Y-049517
X015650Y-051550
X021300Y-049500
X021300Y-051800
X021600Y-049500
X021850Y-049500
X021850Y-050700
X018150Y-025750
X019750Y-025750
X020150Y-025750
X020500Y-025750
X020500Y-026500
X020150Y-026500
X019750Y-026500
X018150Y-026500
X021600Y-051000
X027000Y-051000
X022150Y-049750
X022450Y-052050
X022450Y-053000
X022400Y-049750
X022650Y-049750
X022900Y-049750
X009250Y-035000
X009250Y-049550
X008850Y-033900
X017450Y-049800
X017000Y-051650
X024550Y-051750
X024550Y-049394
X024550Y-032950
X052500Y-043350
X041900Y-054475
X042200Y-054650
X060100Y-054700
X062200Y-054700
X064200Y-054700
X064750Y-054700
X050700Y-054950
X060100Y-054950
X062200Y-054950
X064200Y-054950
X064750Y-054950
X077500Y-054700
X077500Y-054950
X019250Y-056900
X070900Y-059100
X071100Y-061300
X071300Y-061550
X071500Y-061800
X071700Y-063500
X071900Y-066300
X072100Y-066800
X072950Y-067200
X073150Y-067400
X073550Y-067650
X073750Y-068100
X073950Y-068600
X074150Y-068900
X074550Y-069350
X074750Y-069650
X070900Y-044600
X071100Y-044450
X071300Y-044600
X071500Y-044450
X071700Y-044600
X071900Y-044450
X072100Y-044600
X072950Y-043700
X073150Y-043289
X073550Y-043450
X073750Y-043250
X073950Y-043450
X074150Y-043250
X074550Y-043250
X074750Y-043439
X077550Y-047500
X078450Y-047500
X056203Y-029800
X044400Y-027250
X048600Y-029250
X044550Y-027050
X046400Y-028900
X048050Y-030150
X051374Y-033274
X044700Y-026850
X046200Y-028350
X047950Y-030350
X051383Y-033583
X040400Y-026100
X040400Y-027950
X040650Y-025950
X040650Y-027750
X040850Y-025850
X040850Y-027550
X041050Y-025700
X041050Y-027300
X042300Y-026050
X040150Y-029400
X051300Y-035350
X045150Y-028700
X051373Y-035723
X045350Y-029300
X045750Y-026700
X049000Y-026700
X051373Y-036023
X045950Y-030650
X049500Y-035150
X047800Y-033400
X051348Y-032348
X051300Y-032650
X049198Y-030198
X049142Y-030492
X049950Y-033550
X049500Y-033650
X051350Y-036300
X051375Y-036675
X038100Y-024300
X037750Y-027000
X039359Y-027000
X024850Y-049550
X029350Y-031250
X029350Y-031750
X029350Y-032200
X029350Y-035750
X029750Y-056600
X029700Y-031250
X029700Y-031750
X029700Y-032250
X029700Y-035750
X031982Y-029150
X032000Y-030150
X029950Y-031250
X029950Y-031750
X029950Y-032250
X030200Y-031250
X030200Y-031750
X030200Y-032250
X029950Y-035750
X030200Y-035750
X030300Y-060100
X030550Y-061100
X025450Y-051350
X025450Y-049550
X021950Y-054700
X021950Y-055250
X021950Y-055750
X030900Y-057100
X026550Y-057100
X019600Y-056500
X030950Y-056100
X026550Y-056100
X031050Y-059100
X026549Y-059100
X010450Y-059500
X083750Y-039650
M30
