M48
METRIC,LZ,000.000
;FILE_FORMAT=3:3
;TYPE=PLATED
;Layer: PTH_Through
;EasyEDA v6.5.22, 2022-12-19 15:01:10
;028e3914a6f949ed9ca799ef75e4ed4f,10
;Gerber Generator version 0.2
;Holesize 1 = 0.510 mm
T01C0.510
;Holesize 2 = 0.561 mm
T02C0.561
;Holesize 3 = 0.701 mm
T03C0.701
;Holesize 4 = 0.712 mm
T04C0.712
;Holesize 5 = 0.762 mm
T05C0.762
;Holesize 6 = 0.800 mm
T06C0.800
;Holesize 7 = 0.829 mm
T07C0.829
;Holesize 8 = 0.889 mm
T08C0.889
;Holesize 9 = 0.900 mm
T09C0.900
;Holesize 10 = 0.901 mm
T10C0.901
;Holesize 11 = 0.915 mm
T11C0.915
;Holesize 12 = 1.000 mm
T12C1.000
;Holesize 13 = 1.101 mm
T13C1.101
;Holesize 14 = 1.194 mm
T14C1.194
;Holesize 15 = 1.199 mm
T15C1.199
;Holesize 16 = 1.270 mm
T16C1.270
;Holesize 17 = 1.301 mm
T17C1.301
;Holesize 18 = 1.501 mm
T18C1.501
;Holesize 19 = 2.540 mm
T19C2.540
;Holesize 20 = 3.201 mm
T20C3.201
;Holesize 21 = 3.251 mm
T21C3.251
%
G05
G90
T01
X146558Y-080518
X146558Y-083058
T02
X134322Y-038028
X136722Y-038028
X139122Y-038028
X141522Y-038028
X141522Y-029028
X139122Y-029028
X136722Y-029028
X134322Y-029028
T03
X217805Y-190754
X218059Y-194310
X217805Y-198120
X098298Y-048387
X101854Y-048133
X105664Y-048387
X113157Y-048514
X116713Y-048260
X120523Y-048514
X030099Y-186055
X031369Y-186055
X032639Y-186055
X013462Y-186182
X014732Y-186182
X016002Y-186182
X089027Y-133731
X092583Y-133477
X096393Y-133731
X123825Y-133731
X127381Y-133477
X131191Y-133731
X106172Y-133731
X109728Y-133477
X113538Y-133731
X218059Y-209550
X218313Y-213106
X218059Y-216916
X224663Y-235966
X220345Y-235966
X215900Y-235966
X202565Y-235966
X207010Y-235966
X211328Y-235966
X184658Y-235966
X189230Y-235966
X193675Y-235966
X197993Y-235966
X197993Y-229997
X193675Y-229997
X189230Y-229997
X184658Y-229997
X211328Y-229997
X207010Y-229997
X202565Y-229997
X215900Y-229997
X220345Y-229997
X224663Y-229997
X192368Y-065024
X197268Y-065024
T04
X203835Y-061722
X203835Y-059182
X203454Y-052578
X205994Y-052578
X198374Y-092964
X200914Y-092964
X171196Y-119253
X168656Y-119253
X225806Y-142367
X223266Y-142367
X197485Y-059182
X200025Y-059182
X189865Y-059182
X192405Y-059182
X140081Y-231394
X137541Y-231394
X140081Y-226060
X137541Y-226060
X082169Y-066548
X082169Y-069088
X225552Y-098425
X223012Y-098425
X220472Y-098425
X217932Y-098425
X215392Y-098425
X212852Y-098425
X210312Y-098425
X207772Y-098425
X205232Y-098425
X202692Y-098425
X200152Y-098425
X197612Y-098425
X195072Y-098425
X192532Y-098425
X189992Y-098425
X187452Y-098425
X184912Y-098425
X182372Y-098425
X179832Y-098425
X177292Y-098425
X177292Y-113665
X179832Y-113665
X182372Y-113665
X184912Y-113665
X187452Y-113665
X189992Y-113665
X192532Y-113665
X195072Y-113665
X197612Y-113665
X200152Y-113665
X202692Y-113665
X205232Y-113665
X207772Y-113665
X210312Y-113665
X212852Y-113665
X215392Y-113665
X217932Y-113665
X220472Y-113665
X223012Y-113665
X225552Y-113665
X225679Y-124079
X223139Y-124079
X220599Y-124079
X218059Y-124079
X215519Y-124079
X212979Y-124079
X210439Y-124079
X207899Y-124079
X205359Y-124079
X202819Y-124079
X200279Y-124079
X197739Y-124079
X195199Y-124079
X192659Y-124079
X190119Y-124079
X187579Y-124079
X187579Y-139319
X190119Y-139319
X192659Y-139319
X195199Y-139319
X197739Y-139319
X200279Y-139319
X202819Y-139319
X205359Y-139319
X207899Y-139319
X210439Y-139319
X212979Y-139319
X215519Y-139319
X218059Y-139319
X220599Y-139319
X223139Y-139319
X225679Y-139319
T05
X139085Y-023749
X141585Y-023749
T06
X211582Y-187833
X211582Y-197993
X224917Y-197993
X224917Y-187833
X105791Y-063246
X105791Y-053086
X098298Y-063246
X098298Y-053086
X120777Y-063246
X120777Y-053086
X113157Y-063246
X113157Y-053086
X144907Y-045958
X144907Y-043958
X100965Y-165608
X103505Y-165608
X106045Y-165608
X108585Y-165608
X111125Y-165608
X113665Y-165608
X116205Y-165608
X118745Y-165608
X121285Y-165608
X123825Y-165608
X126365Y-165608
X128905Y-165608
X131445Y-165608
X133985Y-165608
X136525Y-165608
X136525Y-142748
X133985Y-142748
X131445Y-142748
X128905Y-142748
X126365Y-142748
X123825Y-142748
X121285Y-142748
X118745Y-142748
X116205Y-142748
X113665Y-142748
X111125Y-142748
X108585Y-142748
X106045Y-142748
X103505Y-142748
X100965Y-142748
X097917Y-147828
X097917Y-150368
X097917Y-152908
X097917Y-155448
X097917Y-157988
X097917Y-160528
X174625Y-136525
X174625Y-146685
X050419Y-200152
X050419Y-189992
X179197Y-146685
X179197Y-136525
X029083Y-200152
X029083Y-189992
X033655Y-200152
X033655Y-189992
X012827Y-200152
X012827Y-189992
X017399Y-200152
X017399Y-189992
X194818Y-092964
X184658Y-092964
X061468Y-189992
X061468Y-200152
X073533Y-189992
X073533Y-200152
X078105Y-189992
X078105Y-200152
X096520Y-118364
X096520Y-128524
X089027Y-118364
X089027Y-128524
X131318Y-118364
X131318Y-128524
X123571Y-128524
X123571Y-118364
X199898Y-020193
X199898Y-030353
X195453Y-020193
X195453Y-030353
X186563Y-020193
X186563Y-030353
X191135Y-020193
X191135Y-030353
X177673Y-020193
X177673Y-030353
X182245Y-020193
X182245Y-030353
X173228Y-020193
X173228Y-030353
X168656Y-020193
X168656Y-030353
X204851Y-031750
X204851Y-041910
X209804Y-031750
X209804Y-041910
X204724Y-018034
X204724Y-028194
X209677Y-018034
X209677Y-028194
X226187Y-032004
X226187Y-042164
X230886Y-032004
X230886Y-042164
X226187Y-018034
X226187Y-028194
X230759Y-018034
X230759Y-028194
X123952Y-021590
X123952Y-031750
X112141Y-031750
X112141Y-021590
X139065Y-043942
X139065Y-054102
X134239Y-054102
X134239Y-043942
X129540Y-069215
X129540Y-059055
X212471Y-057404
X212471Y-067564
X217043Y-057404
X217043Y-067564
X207518Y-067564
X207518Y-057404
X094488Y-208661
X094488Y-198501
X099822Y-208534
X099822Y-198374
X160655Y-088138
X160655Y-098298
X165227Y-088138
X165227Y-098298
X113538Y-118364
X113538Y-128524
X106172Y-118364
X106172Y-128524
X193929Y-210439
X204089Y-210439
X211582Y-206883
X211582Y-217043
X224917Y-217170
X224917Y-207010
X096901Y-071501
X096901Y-081661
X152908Y-212471
X152908Y-222631
T07
X197576Y-118364
X200157Y-118364
X202738Y-118364
X205318Y-118364
X207899Y-118364
X210480Y-118364
X213060Y-118364
X215641Y-118364
X218222Y-118364
X225461Y-092964
X222880Y-092964
X220299Y-092964
X217719Y-092964
X215138Y-092964
X212557Y-092964
X209977Y-092964
X207396Y-092964
X204815Y-092964
T08
X071374Y-025400
X071374Y-119380
X071374Y-116840
X071374Y-114300
X071374Y-111760
X071374Y-109220
X071374Y-106680
X071374Y-104140
X071374Y-101600
X071374Y-099060
X071374Y-096520
X071374Y-093980
X071374Y-091440
X071374Y-088900
X071374Y-086360
X071374Y-083820
X071374Y-081280
X071374Y-078740
X071374Y-076200
X071374Y-073660
X071374Y-071120
X071374Y-068580
X071374Y-066040
X071374Y-063500
X071374Y-060960
X071374Y-058420
X071374Y-055880
X071374Y-053340
X071374Y-050800
X071374Y-048260
X071374Y-045720
X071374Y-043180
X071374Y-040640
X071374Y-038100
X071374Y-035560
X071374Y-033020
X071374Y-030480
X071374Y-027940
X071374Y-121920
X071374Y-124460
X068834Y-025400
X068834Y-119380
X068834Y-116840
X068834Y-114300
X068834Y-111760
X068834Y-109220
X068834Y-106680
X068834Y-104140
X068834Y-101600
X068834Y-099060
X068834Y-096520
X068834Y-093980
X068834Y-091440
X068834Y-088900
X068834Y-086360
X068834Y-083820
X068834Y-081280
X068834Y-078740
X068834Y-076200
X068834Y-073660
X068834Y-071120
X068834Y-068580
X068834Y-066040
X068834Y-063500
X068834Y-060960
X068834Y-058420
X068834Y-055880
X068834Y-053340
X068834Y-050800
X068834Y-048260
X068834Y-045720
X068834Y-043180
X068834Y-040640
X068834Y-038100
X068834Y-035560
X068834Y-033020
X068834Y-030480
X068834Y-027940
X068834Y-121920
X068834Y-124460
X040767Y-025400
X040767Y-119380
X040767Y-116840
X040767Y-114300
X040767Y-111760
X040767Y-109220
X040767Y-106680
X040767Y-104140
X040767Y-101600
X040767Y-099060
X040767Y-096520
X040767Y-093980
X040767Y-091440
X040767Y-088900
X040767Y-086360
X040767Y-083820
X040767Y-081280
X040767Y-078740
X040767Y-076200
X040767Y-073660
X040767Y-071120
X040767Y-068580
X040767Y-066040
X040767Y-063500
X040767Y-060960
X040767Y-058420
X040767Y-055880
X040767Y-053340
X040767Y-050800
X040767Y-048260
X040767Y-045720
X040767Y-043180
X040767Y-040640
X040767Y-038100
X040767Y-035560
X040767Y-033020
X040767Y-030480
X040767Y-027940
X040767Y-121920
X040767Y-124460
X038227Y-025400
X038227Y-119380
X038227Y-116840
X038227Y-114300
X038227Y-111760
X038227Y-109220
X038227Y-106680
X038227Y-104140
X038227Y-101600
X038227Y-099060
X038227Y-096520
X038227Y-093980
X038227Y-091440
X038227Y-088900
X038227Y-086360
X038227Y-083820
X038227Y-081280
X038227Y-078740
X038227Y-076200
X038227Y-073660
X038227Y-071120
X038227Y-068580
X038227Y-066040
X038227Y-063500
X038227Y-060960
X038227Y-058420
X038227Y-055880
X038227Y-053340
X038227Y-050800
X038227Y-048260
X038227Y-045720
X038227Y-043180
X038227Y-040640
X038227Y-038100
X038227Y-035560
X038227Y-033020
X038227Y-030480
X038227Y-027940
X038227Y-121920
X038227Y-124460
X007747Y-025400
X007747Y-119380
X007747Y-116840
X007747Y-114300
X007747Y-111760
X007747Y-109220
X007747Y-106680
X007747Y-104140
X007747Y-101600
X007747Y-099060
X007747Y-096520
X007747Y-093980
X007747Y-091440
X007747Y-088900
X007747Y-086360
X007747Y-083820
X007747Y-081280
X007747Y-078740
X007747Y-076200
X007747Y-073660
X007747Y-071120
X007747Y-068580
X007747Y-066040
X007747Y-063500
X007747Y-060960
X007747Y-058420
X007747Y-055880
X007747Y-053340
X007747Y-050800
X007747Y-048260
X007747Y-045720
X007747Y-043180
X007747Y-040640
X007747Y-038100
X007747Y-035560
X007747Y-033020
X007747Y-030480
X007747Y-027940
X007747Y-121920
X007747Y-124460
X005207Y-025400
X005207Y-119380
X005207Y-116840
X005207Y-114300
X005207Y-111760
X005207Y-109220
X005207Y-106680
X005207Y-104140
X005207Y-101600
X005207Y-099060
X005207Y-096520
X005207Y-093980
X005207Y-091440
X005207Y-088900
X005207Y-086360
X005207Y-083820
X005207Y-081280
X005207Y-078740
X005207Y-076200
X005207Y-073660
X005207Y-071120
X005207Y-068580
X005207Y-066040
X005207Y-063500
X005207Y-060960
X005207Y-058420
X005207Y-055880
X005207Y-053340
X005207Y-050800
X005207Y-048260
X005207Y-045720
X005207Y-043180
X005207Y-040640
X005207Y-038100
X005207Y-035560
X005207Y-033020
X005207Y-030480
X005207Y-027940
X005207Y-121920
X005207Y-124460
T09
X233197Y-008712
X230607Y-008712
X228498Y-008712
X235306Y-008712
X235306Y-011201
X228498Y-011151
X212115Y-008712
X209525Y-008712
X207416Y-008712
X214224Y-008712
X214224Y-011201
X207416Y-011151
T10
X117729Y-021558
X117729Y-017458
X149733Y-080518
X149733Y-083058
X149733Y-085598
X149733Y-088138
X157353Y-080518
X157353Y-083058
X157353Y-085598
X157353Y-088138
T11
X034417Y-236347
X034417Y-233807
X031623Y-236347
X031623Y-233807
X028829Y-236347
X028829Y-233807
X189103Y-204343
X189103Y-206883
X124079Y-034958
X124079Y-042258
X112141Y-042131
X112141Y-034831
X146177Y-030767
X146177Y-038067
X133002Y-059055
X140302Y-059055
X047752Y-206248
X050292Y-206248
X033655Y-206248
X036195Y-206248
X017399Y-205994
X019939Y-205994
X075565Y-206375
X078105Y-206375
X061595Y-206375
X064135Y-206375
X147955Y-227457
X147955Y-224917
X151257Y-019939
X151257Y-022479
X147574Y-019939
X147574Y-022479
X040005Y-236347
X040005Y-233807
X042799Y-236347
X042799Y-233807
X037211Y-236347
X037211Y-233807
T12
X179070Y-124301
X179070Y-133001
X182880Y-124301
X182880Y-133001
X091027Y-194945
X099727Y-194945
X193675Y-218313
X193675Y-215773
X171196Y-139065
X171196Y-136525
X171196Y-133985
X171196Y-131445
X171196Y-128905
X171196Y-126365
X171196Y-123825
X163576Y-139065
X163576Y-136525
X163576Y-133985
X163576Y-131445
X163576Y-128905
X163576Y-126365
X163576Y-123825
X179578Y-071374
X184658Y-071374
X182118Y-071374
X194818Y-071374
X204978Y-071374
X207518Y-071374
X210058Y-071374
X212598Y-071374
X215138Y-071374
X217678Y-071374
X220218Y-071374
X222758Y-071374
X225298Y-071374
X202438Y-071374
X197358Y-071374
X199898Y-071374
X192278Y-071374
X187198Y-071374
X189738Y-071374
X177038Y-071374
X222758Y-086614
X225298Y-086614
X220218Y-086614
X217678Y-086614
X187198Y-086614
X189738Y-086614
X192278Y-086614
X194818Y-086614
X184658Y-086614
X182118Y-086614
X179578Y-086614
X177038Y-086614
X204978Y-086614
X202438Y-086614
X199898Y-086614
X197358Y-086614
X207518Y-086614
X210058Y-086614
X212598Y-086614
X215138Y-086614
X093218Y-051181
X093218Y-053721
X093218Y-056261
X093218Y-058801
X093218Y-061341
X093218Y-063881
X093218Y-066421
X085598Y-066421
X093218Y-048641
X093218Y-046101
X085598Y-063881
X085598Y-061341
X085598Y-058801
X085598Y-056261
X085598Y-053721
X085598Y-051181
X085598Y-048641
X085598Y-046101
X085598Y-068961
X085598Y-071501
X085598Y-074041
X085598Y-076581
X085598Y-079121
X093218Y-079121
X093218Y-076581
X093218Y-074041
X093218Y-071501
X093218Y-068961
T13
X069088Y-200152
X069088Y-192532
X147955Y-212598
X147955Y-220218
X090805Y-147828
X090805Y-150368
X090805Y-152908
X090805Y-155448
X090805Y-157988
X090805Y-160528
X150241Y-236474
X147701Y-236474
X145161Y-236474
X142621Y-236474
X140081Y-236474
X137541Y-236474
X115189Y-235966
X112649Y-235966
X110109Y-235966
X107569Y-235966
X105029Y-235966
X102489Y-235966
X147447Y-010818
X141907Y-010818
X144677Y-010818
X150217Y-010818
X152987Y-010818
X143292Y-007978
X146062Y-007978
X148832Y-007978
X151602Y-007978
X073711Y-214031
X073711Y-218531
X080213Y-214031
X080213Y-218531
X093650Y-214030
X093650Y-218531
X100152Y-214030
X100152Y-218531
X111938Y-214285
X111938Y-218785
X118440Y-214285
X118440Y-218785
T14
X190737Y-013590
X188487Y-013590
X186237Y-013590
X183987Y-013590
X181737Y-013590
X189612Y-011050
X187362Y-011050
X185112Y-011050
X182862Y-011050
X180612Y-011050
X190737Y-008510
X188487Y-008510
X186237Y-008510
X183987Y-008510
X181737Y-008510
T15
X122428Y-234798
X122428Y-237338
X124968Y-234798
X124968Y-237338
X127508Y-234798
X127508Y-237338
T16
X238709Y-006248G85X238709Y-005182
X225146Y-006248G85X225146Y-005182
X232435Y-004902G85X231369Y-004902
X217627Y-006248G85X217627Y-005182
X204064Y-006248G85X204064Y-005182
X211353Y-004902G85X210287Y-004902
T17
X122809Y-004483
X125298Y-009487
X127813Y-009487
X120320Y-009487
X117805Y-009487
T18
X229108Y-062219
X229108Y-054620
X136271Y-085789
X136271Y-106744
T19
X097917Y-144018
X097917Y-164338
T20
X198174Y-011050
X173174Y-011050
T21
X134947Y-009398
X159947Y-009398
M30
