M48
INCH,LZ
;FILE_FORMAT=2:4
;TYPE=PLATED
;Layer: PTH_Through
;EasyEDA v6.5.46, 2024-11-29 12:55:24
;028e3914a6f949ed9ca799ef75e4ed4f,10
;Gerber Generator version 0.2
;Holesize 1 = 0.0130 inch
T01C0.0130
;Holesize 2 = 0.0200 inch
T02C0.0200
;Holesize 3 = 0.0220 inch
T03C0.0220
;Holesize 4 = 0.0280 inch
T04C0.0280
;Holesize 5 = 0.0280 inch
T05C0.0280
;Holesize 6 = 0.0300 inch
T06C0.0300
;Holesize 7 = 0.0320 inch
T07C0.0320
;Holesize 8 = 0.0330 inch
T08C0.0330
;Holesize 9 = 0.0350 inch
T09C0.0350
;Holesize 10 = 0.0350 inch
T10C0.0350
;Holesize 11 = 0.0350 inch
T11C0.0350
;Holesize 12 = 0.0360 inch
T12C0.0360
;Holesize 13 = 0.0360 inch
T13C0.0360
;Holesize 14 = 0.0390 inch
T14C0.0390
;Holesize 15 = 0.0430 inch
T15C0.0430
;Holesize 16 = 0.0470 inch
T16C0.0470
;Holesize 17 = 0.0470 inch
T17C0.0470
;Holesize 18 = 0.0500 inch
T18C0.0500
;Holesize 19 = 0.0510 inch
T19C0.0510
;Holesize 20 = 0.0590 inch
T20C0.0590
;Holesize 21 = 0.0710 inch
T21C0.0710
;Holesize 22 = 0.1000 inch
T22C0.1000
;Holesize 23 = 0.1260 inch
T23C0.1260
;Holesize 24 = 0.1280 inch
T24C0.1280
%
G05
G90
T01
X059800Y-046650
X078100Y-085950
X077250Y-085950
X014200Y-047000
X026250Y-047000
X040000Y-024650
X040000Y-023700
X003182Y-073300
X002250Y-073300
X077250Y-081450
X078050Y-081450
X073250Y-087900
X074400Y-087900
X077300Y-087900
X078100Y-087900
X079850Y-087900
X080450Y-087900
X050200Y-085200
X054750Y-092000
X055700Y-092000
X055750Y-094100
X056550Y-094100
X051350Y-015000
X050650Y-015000
X037500Y-027050
X037500Y-025200
X074550Y-023800
X074550Y-022100
X044550Y-026150
X059550Y-029250
X059550Y-028396
X058800Y-029250
X058800Y-028400
X067400Y-025900
X059850Y-026150
X057500Y-027250
X090000Y-034850
X090000Y-035950
X074450Y-077950
X074450Y-078950
X064650Y-074850
X061650Y-074850
X064650Y-075300
X066650Y-069650
X074800Y-028700
X069850Y-023700
X060850Y-019050
X059850Y-010500
X058700Y-010500
X058000Y-029250
X058000Y-028400
X058000Y-026300
X058000Y-025450
X058200Y-011150
X058200Y-010650
X057050Y-029250
X057050Y-026900
X059050Y-025950
X058400Y-025950
X085050Y-078433
X085050Y-077550
X085050Y-072200
X085050Y-071150
X090150Y-078400
X090150Y-077500
X089250Y-072250
X089250Y-071200
X089250Y-035950
X089250Y-034850
X079600Y-028300
X079600Y-027171
X084550Y-071150
X064150Y-036900
X064150Y-035700
X063300Y-028950
X080850Y-071150
X063500Y-036900
X063500Y-035700
X062900Y-028950
X047600Y-094450
X041900Y-087550
X042900Y-087550
X017700Y-091441
X041900Y-086900
X043050Y-085750
X027650Y-071800
X026800Y-071800
X026750Y-074050
X027600Y-074050
X073250Y-088400
X013550Y-095300
X033750Y-094850
X034850Y-094850
X073650Y-082650
X041900Y-083850
X041150Y-084600
X041000Y-040300
X042450Y-040300
X049450Y-048050
X041150Y-050300
X040300Y-060300
X040000Y-054300
X039750Y-054050
X039500Y-053700
X039250Y-053400
X039000Y-053050
X038750Y-052700
X038500Y-048850
X055000Y-048088
X041050Y-071800
X041050Y-072800
X045550Y-072806
X045550Y-072795
X048400Y-070300
X058750Y-058950
X054500Y-059000
X049600Y-059050
X050200Y-056900
X068800Y-075250
X067450Y-065450
X065250Y-064099
X065600Y-063500
X064150Y-063500
X050600Y-057350
X052500Y-057350
X062100Y-060950
X056600Y-056350
X053900Y-056550
X054950Y-056800
X053000Y-050300
X064050Y-062850
X051600Y-062850
X051150Y-062200
X052600Y-062200
X051000Y-071200
X068550Y-060000
X068550Y-060600
X068100Y-071700
X053500Y-056900
X055950Y-056200
X056150Y-065500
X052650Y-067000
X058450Y-060850
X053600Y-065500
X055150Y-065500
X060100Y-071000
X061650Y-074350
X061150Y-074850
X052650Y-074800
X045250Y-076300
X044400Y-078050
X054600Y-061850
X055600Y-061850
X059150Y-072250
X054650Y-072250
X058800Y-065300
X057150Y-068950
X057150Y-073800
X055650Y-073800
X056600Y-061600
X054000Y-061600
X053600Y-065150
X054400Y-065150
X055850Y-064200
X053100Y-064200
X053150Y-074100
X056650Y-074100
X052100Y-069850
X051850Y-071450
X065000Y-071450
X051850Y-069000
X049600Y-069000
X050150Y-072550
X059650Y-072550
X051000Y-052000
X038850Y-060300
X038850Y-061800
X038850Y-071250
X038850Y-072250
X030750Y-073500
X037350Y-067000
X009050Y-071600
X009050Y-072900
X050550Y-062900
X038250Y-062900
X010050Y-071600
X010050Y-072900
X053600Y-067600
X042050Y-067600
X034450Y-074500
X043780Y-078450
X035400Y-024650
X044250Y-027450
X037600Y-054150
X047000Y-065750
X037350Y-054400
X037100Y-054150
X037100Y-060200
X036750Y-049650
X038550Y-049650
X036450Y-054150
X036450Y-060700
X042900Y-059650
X041150Y-059650
X036050Y-059650
X036050Y-054150
X037900Y-044000
X056450Y-029250
X052350Y-039050
X051200Y-039050
X047700Y-041050
X037900Y-045000
X051000Y-043300
X051000Y-039950
X052000Y-039950
X048500Y-052000
X042900Y-060300
X043700Y-058550
X054600Y-067350
X046650Y-067350
X046650Y-060900
X047300Y-060900
X047300Y-058550
X043000Y-058600
X042900Y-057350
X041800Y-057350
X042900Y-056900
X041500Y-056900
X038550Y-060350
X038550Y-062550
X038550Y-064200
X049450Y-052400
X045050Y-052400
X038250Y-049271
X038250Y-050146
X055000Y-054300
X054000Y-054050
X057000Y-053700
X063500Y-053050
X062500Y-052700
X047400Y-048850
X047400Y-054500
X050450Y-050700
X047131Y-050700
X047300Y-066400
X044310Y-066400
X058450Y-033300
X058400Y-069250
X059850Y-069250
X060100Y-061050
X054150Y-061050
X037900Y-046000
X041900Y-046000
X042800Y-026050
X037900Y-047000
X042200Y-047000
X048350Y-032900
X000950Y-028000
X000950Y-025993
X059450Y-057150
X045750Y-057150
X041750Y-060000
X041750Y-061500
X044700Y-073300
X071150Y-037650
X072950Y-077750
X072950Y-078950
X072950Y-082200
X072950Y-083000
X063450Y-050561
X069450Y-050550
X069450Y-077400
X062500Y-050800
X069750Y-050800
X069750Y-050800
X069750Y-077400
X061500Y-051050
X070100Y-051050
X070100Y-077400
X070100Y-091500
X060600Y-091500
X060500Y-051350
X070400Y-051350
X070400Y-077400
X070400Y-089550
X060600Y-089550
X059500Y-051600
X070700Y-051600
X070700Y-077400
X070700Y-080100
X051100Y-080104
X051600Y-073300
X053500Y-051100
X045450Y-051100
X040700Y-060000
X040700Y-061500
X040700Y-071250
X040700Y-081700
X043400Y-081750
X054500Y-051450
X044750Y-051450
X041400Y-058800
X041400Y-061500
X041400Y-073050
X041400Y-081150
X044900Y-081150
X043400Y-089950
X044900Y-089550
X057500Y-052258
X059190Y-052258
X053650Y-074350
X062200Y-074050
X063650Y-074050
X028550Y-082650
X010300Y-051550
X010300Y-049553
X017200Y-049517
X015650Y-051550
X021300Y-049500
X021300Y-051800
X021600Y-049500
X021850Y-049500
X021850Y-050700
X018150Y-025750
X019750Y-025750
X020150Y-025750
X020500Y-025750
X020500Y-026500
X020150Y-026500
X019750Y-026500
X018150Y-026500
X021600Y-051000
X027000Y-051000
X022150Y-049750
X022450Y-052050
X022450Y-053000
X022400Y-049750
X022650Y-049750
X022900Y-049750
X009250Y-035000
X009250Y-049550
X008850Y-033900
X017450Y-049800
X017000Y-051650
X024550Y-051750
X024550Y-049394
X024550Y-032950
X052500Y-043350
X041900Y-054475
X042200Y-054650
X060100Y-054700
X062200Y-054700
X064200Y-054700
X064750Y-054700
X050700Y-054950
X060100Y-054950
X062200Y-054950
X064200Y-054950
X064750Y-054950
X077500Y-054700
X077500Y-054950
X019250Y-056900
X070900Y-059100
X071100Y-061300
X071300Y-061550
X071500Y-061800
X071700Y-063500
X071900Y-066300
X072100Y-066800
X072950Y-067200
X073150Y-067400
X073550Y-067650
X073750Y-068100
X073950Y-068600
X074150Y-068900
X074550Y-069350
X074750Y-069650
X070900Y-044600
X071100Y-044450
X071300Y-044600
X071500Y-044450
X071700Y-044600
X071900Y-044450
X072100Y-044600
X072950Y-043700
X073150Y-043289
X073550Y-043450
X073750Y-043250
X073950Y-043450
X074150Y-043250
X074550Y-043250
X074750Y-043439
X077550Y-047500
X078450Y-047500
X056203Y-029800
X044400Y-027250
X048600Y-029250
X044550Y-027050
X046400Y-028900
X048050Y-030150
X051374Y-033274
X044700Y-026850
X046200Y-028350
X047950Y-030350
X051383Y-033583
X040400Y-026100
X040400Y-027950
X040650Y-025950
X040650Y-027750
X040850Y-025850
X040850Y-027550
X041050Y-025700
X041050Y-027300
X042300Y-026050
X040150Y-029400
X051300Y-035350
X045150Y-028700
X051373Y-035723
X045350Y-029300
X045750Y-026700
X049000Y-026700
X051373Y-036023
X045950Y-030650
X049500Y-035150
X047800Y-033400
X051348Y-032348
X051300Y-032650
X049198Y-030198
X049142Y-030492
X049950Y-033550
X049500Y-033650
X051350Y-036300
X051375Y-036675
X038100Y-024300
X037750Y-027000
X039359Y-027000
X024850Y-049550
X029350Y-031250
X029350Y-031750
X029350Y-032200
X029350Y-035750
X029750Y-056600
X029700Y-031250
X029700Y-031750
X029700Y-032250
X029700Y-035750
X031982Y-029150
X032000Y-030150
X029950Y-031250
X029950Y-031750
X029950Y-032250
X030200Y-031250
X030200Y-031750
X030200Y-032250
X029950Y-035750
X030200Y-035750
X030300Y-060100
X030550Y-061100
X025450Y-051350
X025450Y-049550
X021950Y-054700
X021950Y-055250
X021950Y-055750
X030900Y-057100
X026550Y-057100
X019600Y-056500
X030950Y-056100
X026550Y-056100
X031050Y-059100
X026549Y-059100
X010450Y-059500
X083750Y-039650
X072300Y-036600
X088750Y-027900
X088750Y-028450
T02
X078800Y-040650
X078800Y-041650
T03
X052883Y-014972
X053828Y-014972
X054772Y-014972
X055717Y-014972
X055717Y-011428
X054772Y-011428
X053828Y-011428
X052883Y-011428
T04
X081350Y-077400
X080850Y-077400
X080350Y-077400
X076900Y-077400
X076400Y-077400
X075900Y-077400
X085750Y-075100
X085850Y-076500
X085750Y-078000
X038700Y-019050
X040100Y-018950
X041600Y-019050
X044550Y-019100
X045950Y-019000
X047450Y-019100
X011850Y-073250
X012350Y-073250
X012850Y-073250
X005300Y-073300
X005800Y-073300
X006300Y-073300
X065250Y-029400
X063850Y-029500
X062350Y-029400
X079600Y-029350
X078200Y-029450
X076700Y-029350
X073200Y-029300
X071800Y-029400
X070300Y-029300
X085850Y-082500
X085950Y-083900
X085850Y-085400
X054535Y-046800
X056465Y-046800
T05
X024450Y-060600
X024450Y-061600
X022950Y-051800
X021950Y-051800
X017500Y-051800
X016500Y-051800
X012050Y-051800
X011050Y-051800
X042400Y-091050
X041400Y-091050
X042400Y-089150
X041400Y-089150
X018900Y-027000
X018900Y-026000
X005550Y-027000
X005550Y-026000
X082250Y-038750
X083250Y-038750
X067650Y-070400
X066650Y-070400
X065650Y-070400
X064650Y-070400
X063650Y-070400
X062650Y-070400
X061650Y-070400
X060650Y-070400
X059650Y-070400
X058650Y-070400
X057650Y-070400
X056650Y-070400
X055650Y-070400
X054650Y-070400
X053650Y-070400
X052650Y-070400
X052650Y-076400
X053650Y-076400
X054650Y-076400
X055650Y-076400
X056650Y-076400
X057650Y-076400
X058650Y-076400
X059650Y-076400
X060650Y-076400
X061650Y-076400
X062650Y-076400
X063650Y-076400
X064650Y-076400
X065650Y-076400
X066650Y-076400
X067650Y-076400
X059050Y-047950
X059050Y-046950
X058800Y-042300
X059800Y-042300
X056950Y-058150
X057950Y-058150
X046200Y-068500
X045200Y-068500
X067700Y-077600
X066700Y-077600
X056500Y-044750
X057500Y-044750
X053550Y-044750
X054550Y-044750
X055200Y-090700
X054200Y-090700
X055200Y-088700
X054200Y-088700
X032350Y-026200
X032350Y-027200
X067600Y-060350
X066600Y-060350
X065600Y-060350
X064600Y-060350
X063600Y-060350
X062600Y-060350
X061600Y-060350
X060600Y-060350
X059600Y-060350
X058600Y-060350
X057600Y-060350
X056600Y-060350
X055600Y-060350
X054600Y-060350
X053600Y-060350
X052600Y-060350
X051600Y-060350
X050600Y-060350
X049600Y-060350
X048600Y-060350
X048600Y-066350
X049600Y-066350
X050600Y-066350
X051600Y-066350
X052600Y-066350
X053600Y-066350
X054600Y-066350
X055600Y-066350
X056600Y-066350
X057600Y-066350
X058600Y-066350
X059600Y-066350
X060600Y-066350
X061600Y-066350
X062600Y-066350
X063600Y-066350
X064600Y-066350
X065600Y-066350
X066600Y-066350
X067600Y-066350
T06
X054758Y-009350
X055742Y-009350
T07
X030050Y-062600
X034050Y-062600
X009100Y-053050
X009100Y-054050
X009100Y-055050
X009100Y-056050
X009100Y-057050
X009100Y-058050
X009100Y-059050
X009100Y-060050
X012100Y-053050
X012100Y-054050
X012100Y-055050
X012100Y-056050
X012100Y-057050
X012100Y-058050
X012100Y-059050
X012100Y-060050
X014500Y-053000
X014500Y-054000
X014500Y-055000
X014500Y-056000
X014500Y-057000
X014500Y-058000
X014500Y-059000
X014500Y-060000
X017500Y-053000
X017500Y-054000
X017500Y-055000
X017500Y-056000
X017500Y-057000
X017500Y-058000
X017500Y-059000
X017500Y-060000
X020000Y-053000
X020000Y-054000
X020000Y-055000
X020000Y-056000
X020000Y-057000
X020000Y-058000
X020000Y-059000
X020000Y-060000
X023000Y-053000
X023000Y-054000
X023000Y-055000
X023000Y-056000
X023000Y-057000
X023000Y-058000
X023000Y-059000
X023000Y-060000
X042500Y-055950
X046500Y-055950
X019850Y-078800
X019850Y-074800
X060200Y-083650
X060200Y-087650
X050200Y-087150
X054200Y-087150
X083300Y-073950
X083300Y-077950
X088550Y-077950
X088550Y-073950
X041650Y-025050
X041650Y-021050
X038700Y-024900
X038700Y-020900
X047550Y-024900
X047550Y-020900
X044550Y-024900
X044550Y-020900
X057050Y-018094
X057050Y-017306
X076300Y-017700
X075300Y-017700
X074300Y-017700
X073300Y-017700
X072300Y-017700
X071300Y-017700
X070300Y-017700
X069300Y-017700
X068300Y-017700
X067300Y-017700
X066300Y-017700
X065300Y-017700
X064300Y-017700
X063300Y-017700
X062300Y-017700
X062300Y-026700
X063300Y-026700
X064300Y-026700
X065300Y-026700
X066300Y-026700
X067300Y-026700
X068300Y-026700
X069300Y-026700
X070300Y-026700
X071300Y-026700
X072300Y-026700
X073300Y-026700
X074300Y-026700
X075300Y-026700
X076300Y-026700
X077500Y-024700
X077500Y-023700
X077500Y-022700
X077500Y-021700
X077500Y-020700
X077500Y-019700
X047550Y-075300
X047550Y-079300
X049350Y-079300
X049350Y-075300
X011450Y-078800
X011450Y-074800
X013250Y-078800
X013250Y-074800
X005050Y-078800
X005050Y-074800
X006850Y-078800
X006850Y-074800
X055500Y-058150
X051500Y-058150
X024200Y-074800
X024200Y-078800
X028950Y-074800
X028950Y-078800
X030750Y-074800
X030750Y-078800
X062300Y-035450
X062300Y-031450
X065250Y-035450
X065250Y-031450
X076650Y-035400
X076650Y-031400
X079700Y-031400
X079700Y-035400
X078700Y-007950
X078700Y-011950
X076950Y-007950
X076950Y-011950
X073450Y-007950
X073450Y-011950
X075250Y-007950
X075250Y-011950
X069950Y-007950
X069950Y-011950
X071750Y-007950
X071750Y-011950
X066450Y-007950
X066450Y-011950
X068200Y-007950
X068200Y-011950
X080650Y-012500
X080650Y-016500
X082600Y-012500
X082600Y-016500
X080600Y-007100
X080600Y-011100
X082550Y-007100
X082550Y-011100
X089050Y-012500
X089050Y-016500
X090900Y-012500
X090900Y-016500
X089050Y-007100
X089050Y-011100
X090850Y-007100
X090850Y-011100
X048800Y-008500
X048800Y-012500
X044150Y-012500
X044150Y-008500
X054800Y-017300
X054800Y-021300
X052850Y-021300
X052850Y-017300
X051000Y-027250
X051000Y-023250
X062450Y-044150
X062450Y-048150
X064250Y-044150
X064250Y-048150
X060550Y-048150
X060550Y-044150
X037200Y-082150
X037200Y-078150
X039300Y-082100
X039300Y-078100
X006350Y-049750
X006350Y-053750
X004550Y-049750
X004550Y-053750
X070300Y-035350
X070300Y-031350
X073200Y-035350
X073200Y-031350
X076350Y-082850
X080350Y-082850
X083350Y-081450
X083350Y-085450
X088550Y-085500
X088550Y-081500
X038150Y-028150
X038150Y-032150
T08
X056586Y-068150
X057602Y-068150
X058618Y-068150
X059634Y-068150
X060650Y-068150
X061666Y-068150
X062682Y-068150
X063698Y-068150
X064714Y-068150
X067564Y-058150
X066548Y-058150
X065532Y-058150
X064516Y-058150
X063500Y-058150
X062484Y-058150
X061468Y-058150
X060452Y-058150
X059436Y-058150
T09
X028100Y-010000
X028100Y-047000
X028100Y-046000
X028100Y-045000
X028100Y-044000
X028100Y-043000
X028100Y-042000
X028100Y-041000
X028100Y-040000
X028100Y-039000
X028100Y-038000
X028100Y-037000
X028100Y-036000
X028100Y-035000
X028100Y-034000
X028100Y-033000
X028100Y-032000
X028100Y-031000
X028100Y-030000
X028100Y-029000
X028100Y-028000
X028100Y-027000
X028100Y-026000
X028100Y-025000
X028100Y-024000
X028100Y-023000
X028100Y-022000
X028100Y-021000
X028100Y-020000
X028100Y-019000
X028100Y-018000
X028100Y-017000
X028100Y-016000
X028100Y-015000
X028100Y-014000
X028100Y-013000
X028100Y-012000
X028100Y-011000
X028100Y-048000
X028100Y-049000
X027100Y-010000
X027100Y-047000
X027100Y-046000
X027100Y-045000
X027100Y-044000
X027100Y-043000
X027100Y-042000
X027100Y-041000
X027100Y-040000
X027100Y-039000
X027100Y-038000
X027100Y-037000
X027100Y-036000
X027100Y-035000
X027100Y-034000
X027100Y-033000
X027100Y-032000
X027100Y-031000
X027100Y-030000
X027100Y-029000
X027100Y-028000
X027100Y-027000
X027100Y-026000
X027100Y-025000
X027100Y-024000
X027100Y-023000
X027100Y-022000
X027100Y-021000
X027100Y-020000
X027100Y-019000
X027100Y-018000
X027100Y-017000
X027100Y-016000
X027100Y-015000
X027100Y-014000
X027100Y-013000
X027100Y-012000
X027100Y-011000
X027100Y-048000
X027100Y-049000
X016050Y-010000
X016050Y-047000
X016050Y-046000
X016050Y-045000
X016050Y-044000
X016050Y-043000
X016050Y-042000
X016050Y-041000
X016050Y-040000
X016050Y-039000
X016050Y-038000
X016050Y-037000
X016050Y-036000
X016050Y-035000
X016050Y-034000
X016050Y-033000
X016050Y-032000
X016050Y-031000
X016050Y-030000
X016050Y-029000
X016050Y-028000
X016050Y-027000
X016050Y-026000
X016050Y-025000
X016050Y-024000
X016050Y-023000
X016050Y-022000
X016050Y-021000
X016050Y-020000
X016050Y-019000
X016050Y-018000
X016050Y-017000
X016050Y-016000
X016050Y-015000
X016050Y-014000
X016050Y-013000
X016050Y-012000
X016050Y-011000
X016050Y-048000
X016050Y-049000
X015050Y-010000
X015050Y-047000
X015050Y-046000
X015050Y-045000
X015050Y-044000
X015050Y-043000
X015050Y-042000
X015050Y-041000
X015050Y-040000
X015050Y-039000
X015050Y-038000
X015050Y-037000
X015050Y-036000
X015050Y-035000
X015050Y-034000
X015050Y-033000
X015050Y-032000
X015050Y-031000
X015050Y-030000
X015050Y-029000
X015050Y-028000
X015050Y-027000
X015050Y-026000
X015050Y-025000
X015050Y-024000
X015050Y-023000
X015050Y-022000
X015050Y-021000
X015050Y-020000
X015050Y-019000
X015050Y-018000
X015050Y-017000
X015050Y-016000
X015050Y-015000
X015050Y-014000
X015050Y-013000
X015050Y-012000
X015050Y-011000
X015050Y-048000
X015050Y-049000
X003050Y-010000
X003050Y-047000
X003050Y-046000
X003050Y-045000
X003050Y-044000
X003050Y-043000
X003050Y-042000
X003050Y-041000
X003050Y-040000
X003050Y-039000
X003050Y-038000
X003050Y-037000
X003050Y-036000
X003050Y-035000
X003050Y-034000
X003050Y-033000
X003050Y-032000
X003050Y-031000
X003050Y-030000
X003050Y-029000
X003050Y-028000
X003050Y-027000
X003050Y-026000
X003050Y-025000
X003050Y-024000
X003050Y-023000
X003050Y-022000
X003050Y-021000
X003050Y-020000
X003050Y-019000
X003050Y-018000
X003050Y-017000
X003050Y-016000
X003050Y-015000
X003050Y-014000
X003050Y-013000
X003050Y-012000
X003050Y-011000
X003050Y-048000
X003050Y-049000
X002050Y-010000
X002050Y-047000
X002050Y-046000
X002050Y-045000
X002050Y-044000
X002050Y-043000
X002050Y-042000
X002050Y-041000
X002050Y-040000
X002050Y-039000
X002050Y-038000
X002050Y-037000
X002050Y-036000
X002050Y-035000
X002050Y-034000
X002050Y-033000
X002050Y-032000
X002050Y-031000
X002050Y-030000
X002050Y-029000
X002050Y-028000
X002050Y-027000
X002050Y-026000
X002050Y-025000
X002050Y-024000
X002050Y-023000
X002050Y-022000
X002050Y-021000
X002050Y-020000
X002050Y-019000
X002050Y-018000
X002050Y-017000
X002050Y-016000
X002050Y-015000
X002050Y-014000
X002050Y-013000
X002050Y-012000
X002050Y-011000
X002050Y-048000
X002050Y-049000
T10
X091810Y-003430
X090790Y-003430
X089960Y-003430
X092640Y-003430
X092640Y-004410
X089960Y-004390
X083510Y-003430
X082490Y-003430
X081660Y-003430
X084340Y-003430
X084340Y-004410
X081660Y-004390
T11
X046350Y-008487
X046350Y-006873
X080250Y-040650
X080250Y-041650
X080250Y-042650
X080250Y-043650
X083250Y-040650
X083250Y-041650
X083250Y-042650
X083250Y-043650
T12
X080150Y-024700
X080150Y-023700
X080150Y-022700
X080150Y-021700
X080150Y-020700
X080150Y-019700
X059200Y-093100
X058200Y-093100
X057200Y-093100
X056200Y-093100
X055200Y-093100
X054200Y-093100
X045400Y-093100
X044400Y-093100
X043400Y-093100
X042400Y-093100
X041400Y-093100
X040400Y-093100
T13
X077963Y-074650
X080837Y-074650
X073563Y-074700
X076437Y-074700
X013550Y-093050
X013550Y-092050
X012450Y-093050
X012450Y-092050
X011350Y-093050
X011350Y-092050
X074450Y-080450
X074450Y-081450
X048850Y-013763
X048850Y-016637
X044150Y-016587
X044150Y-013713
X057550Y-012113
X057550Y-014987
X052363Y-023250
X055237Y-023250
X018850Y-081200
X019850Y-081200
X013250Y-081200
X014250Y-081200
X006850Y-081100
X007850Y-081100
X029750Y-081250
X030750Y-081250
X024250Y-081250
X025250Y-081250
X058250Y-089550
X058250Y-088550
X059550Y-007850
X059550Y-008850
X058100Y-007850
X058100Y-008850
X015750Y-093050
X015750Y-092050
X016850Y-093050
X016850Y-092050
X014650Y-093050
X014650Y-092050
T14
X028600Y-054600
X028600Y-055600
X028600Y-056600
X028600Y-057600
X028600Y-058600
X028600Y-059600
X028600Y-060600
X025600Y-060600
X028600Y-053600
X028600Y-052600
X025600Y-059600
X025600Y-058600
X025600Y-057600
X025600Y-056600
X025600Y-055600
X025600Y-054600
X025600Y-053600
X025600Y-052600
X025600Y-061600
X025600Y-062600
X025600Y-063600
X025600Y-064600
X025600Y-065600
X028600Y-065600
X028600Y-064600
X028600Y-063600
X028600Y-062600
X028600Y-061600
X076350Y-085950
X076350Y-084950
X034450Y-078150
X034450Y-082150
X049300Y-070487
X049300Y-073913
X050800Y-070487
X050800Y-073913
X035837Y-076750
X039263Y-076750
X046200Y-076300
X046200Y-075300
X046200Y-074300
X046200Y-073300
X046200Y-072300
X046200Y-071300
X046200Y-070300
X043200Y-076300
X043200Y-075300
X043200Y-074300
X043200Y-073300
X043200Y-072300
X043200Y-071300
X043200Y-070300
X049500Y-049650
X051500Y-049650
X050500Y-049650
X055500Y-049650
X059500Y-049650
X060500Y-049650
X061500Y-049650
X062500Y-049650
X063500Y-049650
X064500Y-049650
X065500Y-049650
X066500Y-049650
X067500Y-049650
X058500Y-049650
X056500Y-049650
X057500Y-049650
X054500Y-049650
X052500Y-049650
X053500Y-049650
X048500Y-049650
X066500Y-055650
X067500Y-055650
X065500Y-055650
X064500Y-055650
X052500Y-055650
X053500Y-055650
X054500Y-055650
X055500Y-055650
X051500Y-055650
X050500Y-055650
X049500Y-055650
X048500Y-055650
X059500Y-055650
X058500Y-055650
X057500Y-055650
X056500Y-055650
X060500Y-055650
X061500Y-055650
X062500Y-055650
X063500Y-055650
X036700Y-020150
X036700Y-021150
X036700Y-022150
X036700Y-023150
X036700Y-024150
X036700Y-025150
X036700Y-026150
X033700Y-026150
X036700Y-019150
X036700Y-018150
X033700Y-025150
X033700Y-024150
X033700Y-023150
X033700Y-022150
X033700Y-021150
X033700Y-020150
X033700Y-019150
X033700Y-018150
X033700Y-027150
X033700Y-028150
X033700Y-029150
X033700Y-030150
X033700Y-031150
X036700Y-031150
X036700Y-030150
X036700Y-029150
X036700Y-028150
X036700Y-027150
T15
X027200Y-078800
X027200Y-075800
X058250Y-083700
X058250Y-086700
X058050Y-004259
X055869Y-004259
X056959Y-004259
X059140Y-004259
X060231Y-004259
X056414Y-003141
X057505Y-003141
X058595Y-003141
X059686Y-003141
X029020Y-084264
X029020Y-086036
X031580Y-084264
X031580Y-086036
X036870Y-084264
X036870Y-086036
X039430Y-084264
X039430Y-086036
X044070Y-084364
X044070Y-086136
X046630Y-084364
X046630Y-086136
T16
X075093Y-005350
X074207Y-005350
X073322Y-005350
X072436Y-005350
X071550Y-005350
X074650Y-004350
X073764Y-004350
X072879Y-004350
X071993Y-004350
X071107Y-004350
X075093Y-003350
X074207Y-003350
X073322Y-003350
X072436Y-003350
X071550Y-003350
T17
X048200Y-092440
X048200Y-093440
X049200Y-092440
X049200Y-093440
X050200Y-092440
X050200Y-093440
T18
X093980Y-002460G85X093980Y-002040
X088640Y-002460G85X088640Y-002040
X091510Y-001930G85X091090Y-001930
X085680Y-002460G85X085680Y-002040
X080340Y-002460G85X080340Y-002040
X083210Y-001930G85X082790Y-001930
T19
X048350Y-001765
X049330Y-003735
X050320Y-003735
X047370Y-003735
X046380Y-003735
T20
X087650Y-041746
X087650Y-038754
X076600Y-044975
X076600Y-053225
T21
X090900Y-091750
X089200Y-091750
X087600Y-091750
X085900Y-091750
X084300Y-091750
X082600Y-091750
X081000Y-091750
X079300Y-091750
X077700Y-091750
X076000Y-091750
X074400Y-091750
X072700Y-091750
X090900Y-089750
X089200Y-089750
X087600Y-089750
X085900Y-089750
X084300Y-089750
X082600Y-089750
X081000Y-089750
X079300Y-089750
X077700Y-089750
X076000Y-089750
X074400Y-089750
X072700Y-089750
T22
X077500Y-026200
X077500Y-018200
T23
X078021Y-004350
X068179Y-004350
T24
X053129Y-003700
X062971Y-003700
M30
