M48
METRIC,LZ,000.000
;FILE_FORMAT=3:3
;TYPE=PLATED
;Layer: PTH_Through_Via
;EasyEDA v6.5.22, 2023-01-04 08:48:55
;028e3914a6f949ed9ca799ef75e4ed4f,10
;Gerber Generator version 0.2
;Holesize 1 = 0.305 mm
T01C0.305
%
G05
G90
T01
X118872Y-123952
X118872Y-114808
X133731Y-136525
X140462Y-032512
X140335Y-079375
X136271Y-240284
X050419Y-179451
X131445Y-234315
X121793Y-212852
X141351Y-084201
X142494Y-084328
X144018Y-084328
X144018Y-087249
X140462Y-095631
X145288Y-084201
X145288Y-087249
X141478Y-095123
X143129Y-097790
X143129Y-120650
X144272Y-098044
X136906Y-103124
X108585Y-129032
X136906Y-104267
X111125Y-128270
X130175Y-023749
X130302Y-034544
X130302Y-034544
X123444Y-101219
X123444Y-113030
X137033Y-111125
X187071Y-049938
X185928Y-049022
X101600Y-111760
X121920Y-111887
X136779Y-108839
X121412Y-108839
X121412Y-101219
X140716Y-090551
X135128Y-090551
X125730Y-090551
X123063Y-090551
X099441Y-114935
X093218Y-084074
X116205Y-113792
X116205Y-122428
X116205Y-132080
X091440Y-120396
X122555Y-175006
X120015Y-174244
X068580Y-176911
X068580Y-176911
X082677Y-183515
X122174Y-183515
X127381Y-183515
X171069Y-199263
X171069Y-146177
X078613Y-066040
X078613Y-069342
X101092Y-085217
X126492Y-091567
X136144Y-091567
X140335Y-091567
X206629Y-083439
X203708Y-083439
X200914Y-083439
X198501Y-083439
X203835Y-082423
X201041Y-082423
X203835Y-080645
X201168Y-080645
X203835Y-081534
X201041Y-081534
X196088Y-084709
X189992Y-090170
X228219Y-140970
X215773Y-134112
X215773Y-136144
X158623Y-069723
X142113Y-098679
X142240Y-121539
X127254Y-181864
X127254Y-181864
X123444Y-181864
X167640Y-089408
X167640Y-100457
X168656Y-089408
X173355Y-124460
X195707Y-134239
X194056Y-136398
X203962Y-133350
X195199Y-136398
X201422Y-128397
X205486Y-129667
X205486Y-133350
X205486Y-136398
X204470Y-143510
X204470Y-143510
X204470Y-143510
X181229Y-124206
X176403Y-115697
X200660Y-141097
X204216Y-141097
X188087Y-091186
X192278Y-118364
X194437Y-118364
X195326Y-121666
X140208Y-093853
X135128Y-093853
X125349Y-093853
X123444Y-093853
X115951Y-093853
X097790Y-093853
X175260Y-204216
X172847Y-204343
X171958Y-202819
X142875Y-216281
X174250Y-182880
X174117Y-195580
X174244Y-203200
X169418Y-090551
X169418Y-101219
X162306Y-108331
X145415Y-108712
X109855Y-195072
X170307Y-090551
X170307Y-101219
X162306Y-109474
X145923Y-109474
X112776Y-195199
X112776Y-211836
X202438Y-104648
X200025Y-104648
X193167Y-104648
X179578Y-104648
X162306Y-110998
X159639Y-117983
X159639Y-131318
X184912Y-105791
X199136Y-127254
X171069Y-076835
X171196Y-090551
X172339Y-116713
X186309Y-095885
X193167Y-103759
X197993Y-103759
X197993Y-108966
X225806Y-149733
X231013Y-136017
X172847Y-151384
X168910Y-151384
X168910Y-146304
X183642Y-105791
X182880Y-090424
X201549Y-076962
X175387Y-101727
X175387Y-133858
X201803Y-143383
X178689Y-090551
X178689Y-092583
X140843Y-092710
X135128Y-092710
X125349Y-092710
X123444Y-092710
X119126Y-092710
X097790Y-096012
X134747Y-188087
X115189Y-188087
X172847Y-181864
X170053Y-195580
X170053Y-199263
X127635Y-162306
X182753Y-212598
X130175Y-162306
X183515Y-208026
X125095Y-146431
X104902Y-156718
X123444Y-180086
X135763Y-120269
X157353Y-120777
X163068Y-095377
X166243Y-084836
X166243Y-079756
X181229Y-079756
X196850Y-082296
X161798Y-121158
X157734Y-180975
X113919Y-185547
X058547Y-185547
X180721Y-110998
X180721Y-108204
X171958Y-108204
X171958Y-090043
X171958Y-082296
X161163Y-074041
X152527Y-074041
X145415Y-074041
X139319Y-074041
X135128Y-074041
X126746Y-074041
X094869Y-079502
X080645Y-071247
X077216Y-071247
X193040Y-111633
X181737Y-110998
X180848Y-107061
X173990Y-107061
X173990Y-085344
X173990Y-081280
X161925Y-072898
X152527Y-072898
X145415Y-072898
X139319Y-072898
X135763Y-072898
X125984Y-072898
X094869Y-077851
X081661Y-072390
X077216Y-072390
X073533Y-072390
X181609Y-105917
X172593Y-105918
X172593Y-090805
X173228Y-082931
X160020Y-082931
X147955Y-084455
X136779Y-083185
X125730Y-083185
X094615Y-083185
X080772Y-083185
X189611Y-117475
X163576Y-117475
X136144Y-110236
X115316Y-105918
X097917Y-098552
X187579Y-141732
X187579Y-148971
X187579Y-172974
X187579Y-172974
X187579Y-172974
X187579Y-176022
X114808Y-176022
X109093Y-176022
X103632Y-176022
X089789Y-176022
X086614Y-176022
X077089Y-130683
X077089Y-123698
X077089Y-121031
X077089Y-115697
X190119Y-141732
X190119Y-148971
X190119Y-172974
X190119Y-176911
X114808Y-177038
X109093Y-177038
X103632Y-177038
X089789Y-177038
X086614Y-177038
X076073Y-130683
X076073Y-123698
X076073Y-121031
X076073Y-115824
X192659Y-141732
X192659Y-148971
X192659Y-172974
X192786Y-178054
X114808Y-178054
X109093Y-178054
X103632Y-178054
X089789Y-178054
X086614Y-178054
X075057Y-130683
X075057Y-123698
X075057Y-121031
X075057Y-115824
X195199Y-141732
X195199Y-148971
X195199Y-172974
X195199Y-179070
X114808Y-179070
X109093Y-179070
X103632Y-179070
X088900Y-165227
X086741Y-162560
X078359Y-130683
X078359Y-123698
X078359Y-121031
X078359Y-115824
X078359Y-109347
X193167Y-101600
X188214Y-101600
X187071Y-105410
X185674Y-105410
X185674Y-103378
X179578Y-103378
X170180Y-103378
X168021Y-108839
X162052Y-114808
X160274Y-114808
X158623Y-116840
X137414Y-116840
X131445Y-123825
X128270Y-117729
X128270Y-113030
X128270Y-109601
X117729Y-109601
X100838Y-110744
X182753Y-096774
X175514Y-094107
X175514Y-088646
X175514Y-076835
X172339Y-072517
X152527Y-071374
X145542Y-071374
X139446Y-071374
X137160Y-071374
X125603Y-081280
X106299Y-081280
X106299Y-086995
X092075Y-086995
X075311Y-086995
X186055Y-078486
X181229Y-078486
X166243Y-072136
X152019Y-072136
X146304Y-072136
X139319Y-075184
X135255Y-082296
X125730Y-082296
X113792Y-082296
X113538Y-088011
X093218Y-088011
X077724Y-088011
X205105Y-064008
X059817Y-208915
X040005Y-212090
X078105Y-211963
X143891Y-224917
X115570Y-223901
X111506Y-223901
X103886Y-223901
X108585Y-138938
X111125Y-139954
X104013Y-130048
X104013Y-139827
M30
