G04 Layer: TopLayer*
G04 EasyEDA v6.5.39, 2024-11-22 09:58:48*
G04 028e3914a6f949ed9ca799ef75e4ed4f,10*
G04 Gerber Generator version 0.2*
G04 Scale: 100 percent, Rotated: No, Reflected: No *
G04 Dimensions in inches *
G04 leading zeros omitted , absolute positions ,3 integer and 6 decimal *
%FSLAX36Y36*%
%MOIN*%

%ADD10C,0.0060*%
%ADD11C,0.0200*%
%ADD12C,0.0550*%
%ADD13C,0.0787*%
%ADD14O,0.06299199999999999X0.06299199999999999*%
%ADD15R,0.0630X0.0630*%
%ADD16O,0.07185X0.05748*%
%ADD17O,0.094488X0.06299199999999999*%
%ADD18R,0.0945X0.0630*%
%ADD19O,0.06299199999999999X0.094488*%
%ADD20R,0.0630X0.0945*%
%ADD21O,0.035433X0.06299199999999999*%
%ADD22R,0.0354X0.0630*%
%ADD23R,0.0906X0.0650*%
%ADD24O,0.09055099999999999X0.064961*%
%ADD25O,0.08X0.06*%
%ADD26C,0.0780*%
%ADD27C,0.0600*%
%ADD28C,0.1142*%
%ADD29R,0.0550X0.0550*%
%ADD30R,0.0984X0.0984*%
%ADD31C,0.0984*%
%ADD32C,0.0590*%
%ADD33R,0.0590X0.0590*%
%ADD34C,0.0900*%
%ADD35O,0.1X0.138*%
%ADD36O,0.138X0.1*%
%ADD37R,0.0560X0.0560*%
%ADD38C,0.1417*%
%ADD39C,0.0627*%
%ADD40R,0.0591X0.0591*%
%ADD41C,0.0591*%
%ADD42C,0.0512*%
%ADD43R,0.0787X0.0787*%
%ADD44C,0.0709*%
%ADD45C,0.0750*%
%ADD46C,0.0860*%
%ADD47C,0.0598*%
%ADD48C,0.1500*%
%ADD49C,0.1968*%
%ADD50R,0.0709X0.0709*%
%ADD51O,0.07873999999999999X0.059054999999999996*%
%ADD52R,0.0787X0.0591*%
%ADD53C,0.0630*%
%ADD54C,0.0500*%
%ADD55R,0.0559X0.0559*%
%ADD56C,0.0559*%
%ADD57C,0.0150*%
%ADD58C,0.0137*%

%LPD*%
D10*
X7115000Y-3765000D02*
G01*
X7335000Y-3765000D01*
X7335000Y-6750000D01*
X7295000Y-6790000D01*
X7295000Y-7775000D01*
X6760000Y-6030000D02*
G01*
X6880000Y-6030000D01*
X6880000Y-7525000D01*
X7070000Y-5160000D02*
G01*
X7070000Y-7740000D01*
X7040000Y-5135000D02*
G01*
X7040000Y-7740000D01*
X7010000Y-5105000D02*
G01*
X7010000Y-7740000D01*
X6975000Y-5075000D02*
G01*
X6975000Y-7740000D01*
X6945000Y-5055000D02*
G01*
X6945000Y-7740000D01*
X6550000Y-4965000D02*
G01*
X6550000Y-4875000D01*
X6910000Y-4875000D01*
X6910000Y-7545000D01*
X6895000Y-7560000D01*
X6565000Y-7560000D01*
X6565000Y-7640000D01*
X6750000Y-4965000D02*
G01*
X6855000Y-5070000D01*
X6855000Y-5960000D01*
D11*
X1925000Y-5690000D02*
G01*
X1925000Y-5800000D01*
X2000000Y-5800000D01*
X1210000Y-5305000D02*
G01*
X1265000Y-5250000D01*
X1710000Y-5250000D01*
X1750000Y-5290000D01*
X1750000Y-5300000D01*
X1750000Y-5300000D02*
G01*
X1800000Y-5250000D01*
X2260000Y-5250000D01*
X2300000Y-5290000D01*
X2300000Y-5300000D01*
D10*
X7750000Y-5495000D02*
G01*
X8350000Y-5495000D01*
X8350000Y-4510000D01*
X8355000Y-4505000D01*
X8380000Y-4505000D01*
X8380000Y-4265000D01*
X8325000Y-4265000D01*
X8325000Y-4365000D02*
G01*
X8325000Y-5470000D01*
X7750000Y-5470000D01*
X6420000Y-5495000D02*
G01*
X6475000Y-5495000D01*
X6010000Y-5495000D02*
G01*
X6220000Y-5495000D01*
X4950000Y-5565000D02*
G01*
X4950000Y-5495000D01*
X5070000Y-5495000D01*
X6420000Y-5470000D02*
G01*
X6475000Y-5470000D01*
X6010000Y-5470000D02*
G01*
X6220000Y-5470000D01*
X4220000Y-4700000D02*
G01*
X4220000Y-5465000D01*
X4190000Y-4592500D02*
G01*
X4190000Y-5447500D01*
X5250000Y-4335000D02*
G01*
X5250000Y-4965000D01*
D11*
X8025000Y-4265000D02*
G01*
X7660000Y-4265000D01*
X7660000Y-4497500D01*
D10*
X2810000Y-3300000D02*
G01*
X2770000Y-3260000D01*
X2455000Y-3260000D01*
X2455000Y-3295000D01*
X2455000Y-5175000D02*
G01*
X2455000Y-4935000D01*
X1745000Y-4980000D02*
G01*
X1700000Y-5025000D01*
X1700000Y-5165000D01*
X2810000Y-3400000D02*
G01*
X2770000Y-3360000D01*
X2655000Y-3360000D01*
X2610000Y-3405000D01*
X1695000Y-3405000D01*
X1650000Y-3360000D01*
X885000Y-3360000D01*
X885000Y-3390000D01*
X1505000Y-4000000D02*
G01*
X1545000Y-4040000D01*
X2655000Y-4040000D01*
X2695000Y-4000000D01*
X2710000Y-4000000D01*
X925000Y-4955000D02*
G01*
X925000Y-5160000D01*
X835000Y-5250000D01*
X835000Y-5355000D01*
X930000Y-5355000D01*
X980000Y-5405000D01*
X1210000Y-5405000D01*
X2290000Y-4975000D02*
G01*
X2290000Y-5040000D01*
X2430000Y-5040000D01*
X2430000Y-5550000D01*
X2150000Y-5550000D01*
X2000000Y-5700000D01*
X2265000Y-4975000D02*
G01*
X2265000Y-5075000D01*
X2405000Y-5075000D01*
X2405000Y-5445000D01*
X2055000Y-5445000D01*
X2000000Y-5500000D01*
X2240000Y-4975000D02*
G01*
X2240000Y-5100000D01*
X2385000Y-5100000D01*
X2385000Y-5345000D01*
X2105000Y-5345000D01*
X2050000Y-5400000D01*
X2000000Y-5400000D01*
X1105000Y-5180000D02*
G01*
X1145000Y-5220000D01*
X1610000Y-5220000D01*
X1650000Y-5180000D01*
X1650000Y-5180000D02*
G01*
X1690000Y-5220000D01*
X2160000Y-5220000D01*
X2195000Y-5185000D01*
X2195000Y-5180000D01*
X2245000Y-5300000D02*
G01*
X2000000Y-5300000D01*
X2215000Y-4975000D02*
G01*
X2215000Y-5110000D01*
X2245000Y-5140000D01*
X2245000Y-5205000D01*
X2700000Y-5100000D02*
G01*
X2700000Y-5100000D01*
X2700000Y-5560000D01*
X2860000Y-5560000D01*
X2050000Y-2575000D02*
G01*
X2050000Y-2650000D01*
X2015000Y-2575000D02*
G01*
X2015000Y-2650000D01*
X1975000Y-2575000D02*
G01*
X1975000Y-2650000D01*
X1815000Y-2575000D02*
G01*
X1815000Y-2650000D01*
X2185000Y-4950000D02*
G01*
X2185000Y-5070000D01*
X2160000Y-4950000D02*
G01*
X2160000Y-5100000D01*
X2130000Y-4950000D02*
G01*
X2130000Y-5180000D01*
X1720000Y-4951736D02*
G01*
X1565000Y-5106736D01*
X1565000Y-5155000D01*
X1030000Y-5155000D02*
G01*
X1030000Y-4950000D01*
X1605000Y-3000000D02*
G01*
X2620000Y-3000000D01*
X2665000Y-2955000D01*
X2760000Y-2955000D01*
X2805000Y-3000000D01*
X2810000Y-3000000D01*
X305000Y-3000000D02*
G01*
X1415000Y-3000000D01*
X1460000Y-2955000D01*
X1570000Y-2955000D01*
X1605000Y-2990000D01*
X1605000Y-3000000D01*
X305000Y-2900000D02*
G01*
X1415000Y-2900000D01*
X1455000Y-2855000D01*
X1550000Y-2855000D01*
X1590000Y-2900000D01*
X1605000Y-2900000D01*
X1605000Y-2900000D02*
G01*
X2620000Y-2900000D01*
X2665000Y-2855000D01*
X2755000Y-2855000D01*
X2800000Y-2900000D01*
X2810000Y-2900000D01*
X1450000Y-5500000D02*
G01*
X1500000Y-5550000D01*
X1940000Y-5550000D01*
X1990000Y-5500000D01*
X2000000Y-5500000D01*
X910000Y-5505000D02*
G01*
X960000Y-5555000D01*
X1385000Y-5555000D01*
X1440000Y-5500000D01*
X1450000Y-5500000D01*
X1450000Y-5400000D02*
G01*
X1500000Y-5450000D01*
X1935000Y-5450000D01*
X1985000Y-5400000D01*
X2000000Y-5400000D01*
X910000Y-5405000D02*
G01*
X960000Y-5455000D01*
X1375000Y-5455000D01*
X1430000Y-5400000D01*
X1450000Y-5400000D01*
X1450000Y-5300000D02*
G01*
X1500000Y-5350000D01*
X1925000Y-5350000D01*
X1975000Y-5300000D01*
X2000000Y-5300000D01*
X910000Y-5305000D02*
G01*
X960000Y-5355000D01*
X1375000Y-5355000D01*
X1430000Y-5300000D01*
X1450000Y-5300000D01*
X1605000Y-2100000D02*
G01*
X2620000Y-2100000D01*
X2665000Y-2055000D01*
X2735000Y-2055000D01*
X2780000Y-2100000D01*
X2810000Y-2100000D01*
X305000Y-2100000D02*
G01*
X1420000Y-2100000D01*
X1465000Y-2055000D01*
X1535000Y-2055000D01*
X1580000Y-2100000D01*
X1605000Y-2100000D01*
X1605000Y-2000000D02*
G01*
X2625000Y-2000000D01*
X2670000Y-1955000D01*
X2735000Y-1955000D01*
X2780000Y-2000000D01*
X2810000Y-2000000D01*
X305000Y-2000000D02*
G01*
X1415000Y-2000000D01*
X1460000Y-1955000D01*
X1530000Y-1955000D01*
X1575000Y-2000000D01*
X1605000Y-2000000D01*
X1605000Y-1900000D02*
G01*
X2625000Y-1900000D01*
X2670000Y-1855000D01*
X2735000Y-1855000D01*
X2780000Y-1900000D01*
X2810000Y-1900000D01*
X305000Y-1900000D02*
G01*
X1415000Y-1900000D01*
X1455000Y-1860000D01*
X1540000Y-1860000D01*
X1580000Y-1900000D01*
X1605000Y-1900000D01*
X1605000Y-1800000D02*
G01*
X2625000Y-1800000D01*
X2670000Y-1755000D01*
X2735000Y-1755000D01*
X2780000Y-1800000D01*
X2810000Y-1800000D01*
X305000Y-1800000D02*
G01*
X1420000Y-1800000D01*
X1460000Y-1760000D01*
X1565000Y-1760000D01*
X1605000Y-1800000D01*
X1505000Y-2100000D02*
G01*
X1545000Y-2140000D01*
X2660000Y-2140000D01*
X2700000Y-2100000D01*
X2710000Y-2100000D01*
X4220000Y-4700000D02*
G01*
X4220000Y-3320000D01*
X4250000Y-3290000D01*
X4835000Y-3290000D01*
D11*
X7140000Y-9090000D02*
G01*
X7140000Y-9560000D01*
X270000Y-9560000D01*
X265000Y-9555000D01*
X265000Y-6425000D01*
X120000Y-6240000D01*
X120000Y-4720000D01*
X120000Y-4700000D01*
X205000Y-4700000D01*
X225000Y-7330000D02*
G01*
X29994Y-7330000D01*
X30000Y-7325000D01*
X35000Y-2700000D01*
X205000Y-2700000D01*
X4620000Y-6115000D02*
G01*
X4620000Y-6850000D01*
D10*
X4860000Y-6030000D02*
G01*
X4755000Y-6135000D01*
X4755000Y-7530000D01*
X4305000Y-8575000D02*
G01*
X4305000Y-8435000D01*
X4407002Y-8436400D01*
X3825000Y-6290000D02*
G01*
X3825000Y-6780000D01*
X1005000Y-6780000D01*
X1005000Y-7160000D01*
X2546342Y-8520000D02*
G01*
X2740000Y-8520000D01*
X2740000Y-8265000D01*
X2855000Y-8265000D01*
X1465000Y-9305000D02*
G01*
X1520000Y-9250000D01*
X1520000Y-8560000D01*
X2780000Y-8560000D01*
X2780000Y-8555000D01*
X2780000Y-8430000D01*
X2783599Y-8426400D01*
X2901999Y-8426400D01*
X4930000Y-7391260D02*
G01*
X5080000Y-7391260D01*
X5477240Y-1497170D02*
G01*
X5480000Y-1499929D01*
X5480000Y-1730000D01*
D11*
X8335000Y-8145000D02*
G01*
X8132500Y-8145000D01*
X8130000Y-8142500D01*
X7805000Y-8145000D02*
G01*
X8135000Y-8145000D01*
X8135000Y-7940000D01*
X8135000Y-7940000D02*
G01*
X8135000Y-7940000D01*
X8135000Y-7740000D01*
X7445000Y-8145000D02*
G01*
X7725000Y-8145000D01*
X7600000Y-8975000D02*
G01*
X7770000Y-8975000D01*
X7440000Y-8975000D02*
G01*
X7600000Y-8975000D01*
X7365000Y-8705000D02*
G01*
X7445000Y-8625000D01*
X7445000Y-8590000D01*
X7445000Y-8145000D01*
X7770000Y-9175000D02*
G01*
X7665000Y-9070000D01*
X7400000Y-9070000D01*
X7355000Y-9025000D01*
X7355000Y-8935000D01*
X7365000Y-8925000D01*
X7365000Y-8705000D01*
X8260000Y-9175000D02*
G01*
X8100000Y-9175000D01*
X8590000Y-9175000D02*
G01*
X8590000Y-9075000D01*
X8260000Y-9075000D01*
X8260000Y-9175000D01*
X7440000Y-9175000D02*
G01*
X7355000Y-9090000D01*
X7140000Y-9090000D01*
X7270000Y-9175000D02*
G01*
X7270000Y-9305000D01*
X8920000Y-9305000D01*
X8920000Y-9175000D01*
X9090000Y-9175000D02*
G01*
X8920000Y-9175000D01*
X9090000Y-8975000D02*
G01*
X9090000Y-9175000D01*
X7440000Y-9175000D02*
G01*
X7600000Y-9175000D01*
D10*
X7325000Y-8840000D02*
G01*
X7080000Y-8840000D01*
X7080000Y-9530000D01*
X1355000Y-9530000D01*
D11*
X95000Y-2599299D02*
G01*
X95000Y-820000D01*
X4115000Y-820000D01*
X4115000Y-95000D01*
X4680000Y-95000D01*
X4710000Y-65000D01*
X5040000Y-65000D01*
X5070000Y-95000D01*
X5265000Y-95000D01*
X5300000Y-60000D01*
X9520000Y-60000D01*
X9520000Y-1650000D01*
X9090000Y-1650000D01*
D10*
X2710000Y-1400000D02*
G01*
X2760000Y-1450000D01*
X3350000Y-1450000D01*
X3555000Y-1655000D01*
X3555000Y-2105000D01*
X3665000Y-2215000D01*
X3670000Y-2215000D01*
X6415000Y-6350000D02*
G01*
X6415000Y-6895000D01*
X6320000Y-6990000D01*
X6320000Y-7190000D01*
X6220000Y-7290000D01*
X6220000Y-7405000D01*
X6365000Y-7405000D02*
G01*
X6365000Y-7405000D01*
X6365000Y-7640000D01*
X6660000Y-6630000D02*
G01*
X6610000Y-6680000D01*
X6610000Y-7125000D01*
X6610000Y-7340000D01*
X6465000Y-7485000D01*
X6410000Y-7280000D02*
G01*
X6410000Y-7375000D01*
X5265000Y-7480000D02*
G01*
X5265000Y-7640000D01*
X5365000Y-7435000D02*
G01*
X5365000Y-7435000D01*
X5365000Y-7640000D01*
X5918950Y-5225799D02*
G01*
X5920000Y-5226849D01*
X5920000Y-5485000D01*
X5850000Y-5555000D01*
X5850000Y-5565000D01*
D11*
X5905000Y-4795000D02*
G01*
X6160000Y-4540000D01*
X6160000Y-4415000D01*
X6245000Y-4414989D01*
D10*
X8505000Y-7115000D02*
G01*
X8505000Y-3660000D01*
X7785000Y-3660000D01*
D11*
X9090000Y-7795000D02*
G01*
X9090000Y-1650000D01*
X7970000Y-3540000D02*
G01*
X7972947Y-3542948D01*
X9090000Y-3542948D01*
X6525000Y-3545000D02*
G01*
X6385000Y-3405000D01*
X6385000Y-2950010D01*
X6385000Y-2950010D02*
G01*
X6385000Y-2850000D01*
X6025000Y-2850000D01*
X5990000Y-2885000D01*
X4725000Y-2885000D01*
X4455000Y-2615000D01*
X3235000Y-2620000D02*
G01*
X3240000Y-2615000D01*
X3370000Y-2615000D01*
X2810000Y-2700000D02*
G01*
X3155000Y-2700000D01*
X3155000Y-3190000D01*
X3710000Y-3190000D01*
X4165000Y-2735000D01*
X4165000Y-2490000D01*
X4010000Y-1895000D02*
G01*
X4010000Y-1840000D01*
X4595000Y-1840000D01*
X4595000Y-1900000D01*
X4755000Y-2490000D02*
G01*
X5100000Y-2145000D01*
X5100000Y-935000D01*
X5475789Y-935000D01*
X5475789Y-935000D02*
G01*
X5477240Y-936449D01*
X5477240Y-1142840D01*
X8433999Y-343000D02*
G01*
X8435000Y-341999D01*
X8435000Y-120000D01*
X5526599Y-120000D01*
X5475799Y-170799D01*
X5475799Y-935000D01*
X4165000Y-2490000D02*
G01*
X4235000Y-2560000D01*
X4685000Y-2560000D01*
X4755000Y-2490000D01*
D10*
X5650000Y-5565000D02*
G01*
X5650000Y-5090000D01*
X5700000Y-5040000D01*
X5700000Y-4755000D01*
X5830000Y-4755000D01*
X5830000Y-4330000D01*
X5795000Y-4295000D01*
X5795000Y-4120000D01*
X5845000Y-4070000D01*
X5845000Y-3330000D01*
D11*
X5850000Y-4965000D02*
G01*
X5905000Y-4910000D01*
X5905000Y-4795000D01*
D10*
X4490000Y-8955000D02*
G01*
X4440000Y-9005000D01*
X4440000Y-9310000D01*
X4140000Y-8115000D02*
G01*
X4490000Y-8115000D01*
X4140000Y-6230000D02*
G01*
X4140000Y-7305000D01*
X4475000Y-5145000D02*
G01*
X4475000Y-5880000D01*
X4140000Y-5880000D01*
X5450000Y-4965000D02*
G01*
X5450000Y-5145000D01*
X4340000Y-8995000D02*
G01*
X4340000Y-8995000D01*
X4340000Y-9310000D01*
X4070000Y-8170000D02*
G01*
X4525000Y-8170000D01*
X4070000Y-6150000D02*
G01*
X4070000Y-7125000D01*
X4545000Y-5110000D02*
G01*
X4545000Y-5937170D01*
X4542168Y-5940000D01*
X4070000Y-5940000D01*
X4070000Y-6000000D01*
X5350000Y-4965000D02*
G01*
X5350000Y-5110000D01*
X5160000Y-6630000D02*
G01*
X5160000Y-7330000D01*
X7070000Y-8010400D02*
G01*
X5110000Y-8010400D01*
X5950000Y-4965000D02*
G01*
X5950000Y-5160000D01*
X7040000Y-8955000D02*
G01*
X6060000Y-8955000D01*
X6050000Y-4965000D02*
G01*
X6050000Y-5135000D01*
X7010000Y-9150000D02*
G01*
X6060000Y-9150000D01*
X6150000Y-4965000D02*
G01*
X6150000Y-5105000D01*
X6250000Y-4965000D02*
G01*
X6250000Y-5080000D01*
X6350000Y-4965000D02*
G01*
X6345000Y-4970000D01*
X6345000Y-5060000D01*
X7295000Y-8300000D02*
G01*
X7295000Y-8520000D01*
X5020000Y-8520000D01*
X7295000Y-7895000D02*
G01*
X7295000Y-8220000D01*
X4165000Y-6150000D02*
G01*
X4470000Y-6150000D01*
X4470000Y-7330000D01*
X4030000Y-6030000D02*
G01*
X4215000Y-6030000D01*
X4575000Y-5715000D02*
G01*
X4575000Y-6000000D01*
X4165000Y-6000000D01*
X5943599Y-5815000D02*
G01*
X5945000Y-5813600D01*
X5945000Y-5715000D01*
D11*
X7166800Y-7850000D02*
G01*
X7250000Y-7850000D01*
X7245000Y-4410000D01*
X7205000Y-4410000D01*
X6425000Y-4415000D01*
X6770000Y-7760000D02*
G01*
X6860000Y-7850000D01*
X7640000Y-7850000D01*
X7690000Y-7800000D01*
X7690000Y-7740000D01*
X9000000Y-3595000D02*
G01*
X9000000Y-7170000D01*
X7455000Y-7170000D01*
X7445000Y-7180000D01*
X7445000Y-7795000D01*
D10*
X7365000Y-8265000D02*
G01*
X4310000Y-8265000D01*
X4190000Y-8385000D01*
X7154979Y-535030D02*
G01*
X6895007Y-795001D01*
X6820000Y-795001D01*
X6645000Y-1195000D02*
G01*
X6645000Y-1455000D01*
X6330000Y-1770000D01*
D11*
X205000Y-4600000D02*
G01*
X95000Y-4600000D01*
X95000Y-2800000D01*
X8015000Y-2170000D02*
G01*
X9000000Y-2170000D01*
X9000000Y-3485000D01*
X8925000Y-3485000D02*
G01*
X8925000Y-2765000D01*
X7530000Y-2765000D01*
X7530000Y-2670000D01*
D10*
X2810000Y-4700000D02*
G01*
X3790000Y-4700000D01*
X4190000Y-3175000D02*
G01*
X4190000Y-2810000D01*
X4280000Y-2720000D01*
X4280000Y-2600000D01*
X4190000Y-4600000D02*
G01*
X4190000Y-3260000D01*
X2810000Y-4600000D02*
G01*
X3790000Y-4600000D01*
X5415000Y-6105000D02*
G01*
X5415000Y-5965000D01*
X5450000Y-5930000D01*
X5450000Y-5900000D01*
X5985000Y-6925000D02*
G01*
X5985000Y-6870000D01*
X6010000Y-6845000D01*
X6010000Y-6105000D01*
X5765000Y-7640000D02*
G01*
X5765000Y-7195000D01*
X5820000Y-7140000D01*
X5820000Y-7020000D01*
X5840000Y-7000000D01*
X5840000Y-6925000D01*
X4431050Y-6640000D02*
G01*
X4430000Y-6641051D01*
X4430000Y-7130000D01*
X4320000Y-7130000D01*
X4713100Y-5070000D02*
G01*
X4715000Y-5071900D01*
X4715000Y-5665000D01*
X4775000Y-5725000D01*
X4775000Y-6085000D01*
X4730000Y-6130000D01*
X4730000Y-6640000D01*
X5050000Y-4965000D02*
G01*
X5045000Y-4970000D01*
X5045000Y-5070000D01*
X4740000Y-4885000D02*
G01*
X4740000Y-5450000D01*
X6250000Y-5270000D02*
G01*
X6250000Y-5565000D01*
X6350000Y-5305000D02*
G01*
X6350000Y-5565000D01*
X5700000Y-5370000D02*
G01*
X5700000Y-5635000D01*
X5660000Y-5635000D01*
X5400000Y-5405000D02*
G01*
X5400000Y-5610000D01*
X5390000Y-5620000D01*
X5390000Y-5655000D01*
X5500000Y-5430000D02*
G01*
X5500000Y-5635000D01*
X5495000Y-5640000D01*
X5495000Y-5680000D01*
X4950000Y-4965000D02*
G01*
X4945000Y-4970000D01*
X4945000Y-5240000D01*
X4505000Y-5240000D02*
G01*
X4505000Y-5905000D01*
X4073622Y-5905000D01*
X3978622Y-5905000D02*
G01*
X3885000Y-5905000D01*
X3885000Y-6030000D01*
X3855000Y-6255000D02*
G01*
X3855000Y-6420000D01*
X3825000Y-5865000D02*
G01*
X3855000Y-5895000D01*
X3855000Y-6035000D01*
X4290000Y-5690000D02*
G01*
X4150000Y-5690000D01*
X4290000Y-5735000D02*
G01*
X4180000Y-5735000D01*
X4300000Y-5860000D02*
G01*
X4095000Y-5860000D01*
X4730000Y-6090000D02*
G01*
X4730000Y-5855000D01*
X4665000Y-6735000D02*
G01*
X4665000Y-6090000D01*
X5460000Y-6630000D02*
G01*
X5460000Y-6735000D01*
X4160000Y-5355000D02*
G01*
X4160000Y-5505000D01*
X4175000Y-5520000D01*
X4345000Y-5520000D01*
X4370000Y-5545000D01*
X4370000Y-5855000D01*
X4215000Y-6030000D02*
G01*
X4290000Y-6030000D01*
X4850000Y-4965000D02*
G01*
X4850000Y-5215000D01*
X5200000Y-3995000D02*
G01*
X5200000Y-2980000D01*
X5100000Y-4330000D02*
G01*
X5100000Y-3995000D01*
X2817500Y-4500000D02*
G01*
X3790000Y-4500000D01*
X5120000Y-3905000D02*
G01*
X4770000Y-3905000D01*
X4770000Y-4105000D01*
X5645000Y-2925000D02*
G01*
X5645000Y-3905000D01*
X5235000Y-3905000D01*
X2810000Y-4400000D02*
G01*
X3790000Y-4400000D01*
X3645000Y-5415000D02*
G01*
X3645000Y-6070000D01*
X3675000Y-4965000D02*
G01*
X3855000Y-4965000D01*
X3710000Y-5415000D02*
G01*
X3710000Y-6020000D01*
X3735000Y-6700000D02*
G01*
X3735000Y-6175000D01*
X3735000Y-6170000D01*
X3735000Y-6075000D02*
G01*
X3735000Y-5440000D01*
X3760000Y-5415000D02*
G01*
X3760000Y-6060000D01*
X4700000Y-6060000D01*
X4700000Y-6575000D01*
X4425000Y-2745000D02*
G01*
X4630000Y-2950000D01*
X5155000Y-2950000D01*
X5155000Y-4890000D01*
X5100000Y-4890000D01*
X5100000Y-5035000D01*
X5150000Y-5085000D01*
X5150000Y-5565000D01*
X4378019Y-7845000D02*
G01*
X4343019Y-7810000D01*
X3930000Y-7810000D01*
X5420000Y-9310000D02*
G01*
X5353999Y-9243999D01*
X5020000Y-9243999D01*
X4205000Y-6760000D02*
G01*
X4205000Y-7330000D01*
X3635000Y-7330000D01*
X3515000Y-7450000D01*
X3445000Y-7450000D01*
X3445000Y-7450000D01*
X5360000Y-6630000D02*
G01*
X5360000Y-6760000D01*
X1005000Y-7290000D02*
G01*
X1005000Y-7880000D01*
X1145000Y-7880000D01*
X5060000Y-6030000D02*
G01*
X5055000Y-6035000D01*
X5055000Y-6290000D01*
X905000Y-7290000D02*
G01*
X905000Y-7700000D01*
X505000Y-7700000D01*
X505000Y-7880000D01*
X3735000Y-6700000D02*
G01*
X905000Y-6700000D01*
X905000Y-7160000D01*
X3885000Y-7225000D02*
G01*
X3075000Y-7225000D01*
X3075000Y-7350000D01*
X3885000Y-6180000D02*
G01*
X3885000Y-7125000D01*
X5100000Y-5215000D02*
G01*
X5100000Y-5215000D01*
X5100000Y-5755000D01*
X5090000Y-5765000D01*
X5090000Y-5920000D01*
X5115000Y-5945000D01*
X5115000Y-6220000D01*
X4140000Y-5415000D02*
G01*
X4140000Y-5595000D01*
X4250000Y-5595000D01*
X5965000Y-7255000D02*
G01*
X5965000Y-7640000D01*
X4860000Y-6630000D02*
G01*
X4860000Y-6960000D01*
X5015000Y-6960000D01*
X5015000Y-7255000D01*
X4960000Y-6630000D02*
G01*
X4960000Y-6900000D01*
X5185000Y-6900000D02*
G01*
X5185000Y-6900000D01*
X5185000Y-7145000D01*
X6410000Y-7375000D02*
G01*
X6410000Y-7550000D01*
X6465000Y-7605000D01*
X6465000Y-7640000D01*
X6500000Y-7145000D02*
G01*
X6410000Y-7235000D01*
X6410000Y-7280000D01*
X5150000Y-4965000D02*
G01*
X5200000Y-5015000D01*
X5200000Y-5710000D01*
X5210000Y-5720000D01*
X5210000Y-6985000D01*
X5665000Y-7410000D02*
G01*
X5665000Y-7640000D01*
X5310000Y-6420000D02*
G01*
X5310000Y-6960000D01*
X5315000Y-6965000D01*
X5315000Y-7410000D01*
X5560000Y-6030000D02*
G01*
X5560000Y-6105000D01*
X5585000Y-6105000D01*
X5585000Y-6420000D01*
X5400000Y-6450000D02*
G01*
X5415000Y-6465000D01*
X5415000Y-6895000D01*
X5465000Y-6945000D01*
X5465000Y-7040000D01*
X5400000Y-6160000D02*
G01*
X5400000Y-6450000D01*
X5660000Y-6030000D02*
G01*
X5660000Y-6160000D01*
X5565000Y-7380000D02*
G01*
X5565000Y-7640000D01*
X5715000Y-6895000D02*
G01*
X5715000Y-7380000D01*
X5860000Y-6030000D02*
G01*
X5880000Y-6050000D01*
X5880000Y-6530000D01*
X5465000Y-7225000D02*
G01*
X5465000Y-7640000D01*
X5960000Y-6030000D02*
G01*
X5915000Y-6075000D01*
X5915000Y-7225000D01*
X5560000Y-6185000D02*
G01*
X5560000Y-6550000D01*
X5610000Y-6600000D01*
X5610000Y-6680000D01*
X5600000Y-6690000D01*
X5600000Y-6915000D01*
X5665000Y-6980000D01*
X5665000Y-7040000D01*
X5460000Y-6030000D02*
G01*
X5460000Y-6185000D01*
X4440000Y-7805000D02*
G01*
X4440000Y-7230000D01*
X4320000Y-7230000D01*
X4525000Y-7630000D02*
G01*
X4525000Y-6855000D01*
X4520000Y-6850000D01*
X6060000Y-6030000D02*
G01*
X6060000Y-6210000D01*
X6210000Y-6210000D01*
X6210000Y-6735000D01*
X6215000Y-6740000D01*
X6215000Y-6835000D01*
X6115000Y-6935000D01*
X6115000Y-7485000D01*
X6160000Y-6030000D02*
G01*
X6160000Y-6175000D01*
X6315000Y-6175000D01*
X6315000Y-6835000D01*
X6220000Y-6930000D01*
X6220000Y-7225000D01*
X6165000Y-7280000D01*
X6165000Y-7435000D01*
X6010000Y-7100000D02*
G01*
X6010000Y-7100000D01*
X6010000Y-6870000D01*
X6065000Y-6815000D01*
X5360000Y-6030000D02*
G01*
X5360000Y-6515000D01*
X5440000Y-6515000D02*
G01*
X5510000Y-6585000D01*
X5510000Y-6755000D01*
X5565000Y-6810000D01*
X5565000Y-7040000D01*
X5390000Y-5655000D02*
G01*
X5390000Y-6030000D01*
X5360000Y-6030000D01*
X5550000Y-5815000D02*
G01*
X5515000Y-5850000D01*
X5515000Y-6550000D01*
X5265000Y-7040000D02*
G01*
X5265000Y-6700000D01*
D11*
X5760000Y-6030000D02*
G01*
X5695000Y-5965000D01*
X5695000Y-5815000D01*
D10*
X5595000Y-5620000D02*
G01*
X5615000Y-5640000D01*
X5615000Y-6550000D01*
X5350000Y-5690000D02*
G01*
X5350000Y-5690000D01*
X5350000Y-5565000D01*
X6855000Y-6060000D02*
G01*
X6855000Y-7170000D01*
X6810000Y-7170000D01*
X5080000Y-7391260D02*
G01*
X5100000Y-7371260D01*
X5100000Y-7120000D01*
X5260000Y-6220000D02*
G01*
X5260000Y-6630000D01*
X5160000Y-6285000D02*
G01*
X5160000Y-6630000D01*
X6450000Y-4965000D02*
G01*
X6500000Y-5015000D01*
X6500000Y-5720000D01*
X6405000Y-5720000D01*
X6405000Y-6285000D01*
X5300000Y-5030000D02*
G01*
X5300000Y-5740000D01*
X5260000Y-5780000D01*
X5260000Y-6030000D01*
X5495000Y-5680000D02*
G01*
X5480000Y-5695000D01*
X5480000Y-5970000D01*
X5460000Y-5990000D01*
X5460000Y-6030000D01*
X5660000Y-5635000D02*
G01*
X5645000Y-5650000D01*
X5645000Y-5995000D01*
X5660000Y-6010000D01*
X5660000Y-6030000D01*
X6450000Y-5565000D02*
G01*
X6305000Y-5710000D01*
X6300000Y-5710000D01*
X6300000Y-5920000D01*
X6210000Y-6010000D01*
X6210000Y-6095000D01*
X4960000Y-6630000D02*
G01*
X5010000Y-6580000D01*
X5010000Y-5785000D01*
X5060000Y-5735000D01*
X5250000Y-5735000D02*
G01*
X5250000Y-5735000D01*
X5250000Y-5565000D01*
X5360000Y-6550000D02*
G01*
X5360000Y-6630000D01*
X6250000Y-5565000D02*
G01*
X6100000Y-5715000D01*
X6100000Y-5920000D01*
X5990000Y-6030000D01*
X5960000Y-6030000D01*
X6150000Y-5565000D02*
G01*
X5990000Y-5725000D01*
X5990000Y-5910000D01*
X5870000Y-6030000D01*
X5860000Y-6030000D01*
X6560000Y-6030000D02*
G01*
X6560000Y-6350000D01*
X6525000Y-6409890D02*
G01*
X6510000Y-6394890D01*
X6510000Y-5955000D01*
X6451599Y-5896599D01*
X6451599Y-5815000D01*
X6654799Y-5815000D02*
G01*
X6705000Y-5865200D01*
X6705000Y-6400000D01*
X6745000Y-6440000D01*
X6745000Y-6545000D01*
X6660000Y-6630000D02*
G01*
X6630000Y-6600000D01*
X6630000Y-6450000D01*
X6610000Y-6430000D01*
X6610000Y-5990000D01*
X6553199Y-5933200D01*
X6553199Y-5815000D01*
X4860000Y-6630000D02*
G01*
X4915000Y-6575000D01*
X4915000Y-5795000D01*
X5020000Y-5690000D01*
X4960000Y-6030000D02*
G01*
X4960000Y-5905000D01*
X5450000Y-5900000D02*
G01*
X5450000Y-5900000D01*
X5450000Y-5565000D01*
X5875000Y-5895000D02*
G01*
X5875000Y-5895000D01*
X5875000Y-5740000D01*
X6050000Y-5565000D01*
D11*
X4840000Y-7030000D02*
G01*
X4840000Y-7030000D01*
X4840000Y-7405000D01*
X4840000Y-7835000D01*
X4755000Y-7835000D01*
X4755000Y-7930000D01*
D10*
X4620000Y-7230000D02*
G01*
X4555000Y-7230000D01*
X4555000Y-7279474D01*
X4555000Y-7279474D02*
G01*
X4555000Y-7630000D01*
X4620000Y-7630000D01*
X4320000Y-7030000D02*
G01*
X4240000Y-7030000D01*
X4240000Y-7530000D01*
X4320000Y-7530000D01*
X5750000Y-5225821D02*
G01*
X5750000Y-4965000D01*
X5500000Y-4808807D02*
G01*
X5500000Y-4805000D01*
X5500000Y-5110000D01*
X5550000Y-5160000D01*
X5550000Y-5565000D01*
X6160000Y-6030000D02*
G01*
X6205000Y-5985000D01*
X6205000Y-5725000D01*
X6350000Y-5580000D01*
X6350000Y-5565000D01*
X5850000Y-5565000D02*
G01*
X5795000Y-5620000D01*
X5795000Y-5815000D01*
X2810000Y-4300000D02*
G01*
X3745000Y-4300000D01*
X3745000Y-4345000D01*
X3825000Y-4345000D01*
X3825000Y-4927127D01*
X3825000Y-5014627D02*
G01*
X3825000Y-5865000D01*
X2810000Y-4200000D02*
G01*
X2815000Y-4205000D01*
X3775000Y-4205000D01*
X3775000Y-4305000D01*
X3850000Y-4305000D01*
X3850000Y-4885000D01*
X2810000Y-4100000D02*
G01*
X3800000Y-4100000D01*
X3800000Y-4275000D01*
X3875000Y-4275000D01*
X3875000Y-5270000D01*
X2810000Y-4000000D02*
G01*
X3825000Y-4000000D01*
X3830000Y-4005000D01*
X3830000Y-4255000D01*
X3900000Y-4255000D01*
X3900000Y-5305000D01*
X2810000Y-3900000D02*
G01*
X3855000Y-3900000D01*
X3855000Y-4235000D01*
X3925000Y-4235000D01*
X3925000Y-5340000D01*
X2810000Y-3800000D02*
G01*
X2815000Y-3805000D01*
X3885000Y-3805000D01*
X3885000Y-4210000D01*
X3950000Y-4210000D01*
X3950000Y-5370000D01*
X2810000Y-3700000D02*
G01*
X3915000Y-3700000D01*
X3915000Y-4185000D01*
X3975000Y-4185000D01*
X3975000Y-5405000D01*
X2810000Y-3600000D02*
G01*
X3945000Y-3600000D01*
X3945000Y-4160000D01*
X4000000Y-4160000D01*
X4000000Y-5430000D01*
X1605000Y-2500000D02*
G01*
X2625000Y-2500000D01*
X2670000Y-2455000D01*
X2740000Y-2455000D01*
X2785000Y-2500000D01*
X2810000Y-2500000D01*
X2810000Y-3200000D02*
G01*
X3040000Y-3200000D01*
X3040000Y-3285000D01*
X3125000Y-3370000D01*
X3930000Y-3370000D01*
X4035000Y-3475000D01*
X4035000Y-4085000D01*
X4095000Y-4085000D01*
X4095000Y-5860000D01*
X2810000Y-3100000D02*
G01*
X3055000Y-3100000D01*
X3055000Y-3275000D01*
X3130000Y-3350000D01*
X3940000Y-3350000D01*
X4055000Y-3465000D01*
X4055000Y-4065000D01*
X4115000Y-4065000D01*
X4115000Y-5030000D01*
X2810000Y-3000000D02*
G01*
X3070000Y-3000000D01*
X3070000Y-3265000D01*
X3140000Y-3335000D01*
X3950000Y-3335000D01*
X4075000Y-3460000D01*
X4075000Y-4050000D01*
X4140000Y-4050000D01*
X4140000Y-5415000D01*
X2810000Y-2900000D02*
G01*
X3085000Y-2900000D01*
X3085000Y-3255000D01*
X3150000Y-3320000D01*
X3970000Y-3320000D01*
X4100000Y-3455000D01*
X4100000Y-4030000D01*
X2810000Y-2800000D02*
G01*
X3115000Y-2800000D01*
X3115000Y-3230000D01*
X3175000Y-3290000D01*
X3985000Y-3290000D01*
X4160000Y-3465000D01*
X4160000Y-5355000D01*
X4115000Y-8460000D02*
G01*
X3971419Y-8603580D01*
X3943000Y-8603580D01*
X4320000Y-7330000D02*
G01*
X4320000Y-7430000D01*
X3485000Y-9485000D02*
G01*
X5870000Y-9485000D01*
X5870000Y-8855000D01*
X5825000Y-8855000D01*
X1245000Y-9305000D02*
G01*
X1245000Y-9485000D01*
X3375000Y-9485000D01*
X2760000Y-7405000D02*
G01*
X3490000Y-7405000D01*
X3615000Y-7280000D01*
X4105000Y-7280000D01*
X1885000Y-8120000D02*
G01*
X1880000Y-8125000D01*
X1880000Y-8220000D01*
X2045000Y-8220000D01*
X2195000Y-8070000D01*
X2195000Y-7635000D01*
X2515000Y-7635000D01*
X2650000Y-7500000D01*
X2650000Y-7405000D01*
X2675000Y-7405000D01*
X4620000Y-7430000D02*
G01*
X4620000Y-7330000D01*
X2680000Y-7180000D02*
G01*
X2420000Y-7440000D01*
X2420000Y-7479979D01*
X4105000Y-7180000D02*
G01*
X2765000Y-7180000D01*
X1770000Y-9144081D02*
G01*
X1770000Y-8620000D01*
X2655000Y-8620000D01*
X2800000Y-8765000D01*
X3535000Y-8765000D01*
X3610000Y-8690000D01*
X4190000Y-8690000D01*
X1575000Y-9305000D02*
G01*
X1630000Y-9250000D01*
X1630000Y-8595000D01*
X2675000Y-8595000D01*
X2815000Y-8735000D01*
X3445000Y-8735000D01*
X3445000Y-8215000D01*
D11*
X1685000Y-9205000D02*
G01*
X1930000Y-9205000D01*
D10*
X4760000Y-9445000D02*
G01*
X3465000Y-9445000D01*
X3400000Y-9510000D01*
X1895000Y-9510000D01*
X1900000Y-9510000D01*
X1190000Y-9510000D01*
X1190000Y-9305000D01*
X1245000Y-9205000D01*
X1135000Y-9305000D02*
G01*
X1190000Y-9250000D01*
X1190000Y-8520000D01*
X2546342Y-8520000D01*
D11*
X1930000Y-9205000D02*
G01*
X3885000Y-9205000D01*
X3885000Y-8755000D01*
X4190000Y-8755000D01*
X4290000Y-8755000D02*
G01*
X4406999Y-8638000D01*
X4406999Y-8613599D01*
D10*
X6350000Y-3570000D02*
G01*
X6310000Y-3530000D01*
X6310000Y-3180000D01*
X6290000Y-3160000D01*
X6290000Y-2895000D01*
X8085000Y-7115000D02*
G01*
X8415000Y-7115000D01*
X8415000Y-3740000D01*
X6350000Y-3740000D01*
X6350000Y-3690000D01*
X6415000Y-3570000D02*
G01*
X6355000Y-3510000D01*
X6355000Y-3170000D01*
X6330000Y-3145000D01*
X6330000Y-2895000D01*
X8455000Y-7115000D02*
G01*
X8455000Y-5040000D01*
X8465000Y-5030000D01*
X8465000Y-3690000D01*
X6415000Y-3690000D01*
D11*
X9015000Y-7750000D02*
G01*
X8925000Y-7660000D01*
X8925000Y-7225000D01*
X8595000Y-8390000D02*
G01*
X8665000Y-8320000D01*
X9015000Y-8320000D01*
X9015000Y-7840000D01*
D10*
X8505000Y-7755000D02*
G01*
X8505000Y-7220000D01*
X8855000Y-8150000D02*
G01*
X8650000Y-7945000D01*
X8505000Y-7945000D01*
X8505000Y-7840000D01*
X5840000Y-2595000D02*
G01*
X5705000Y-2595000D01*
X5705000Y-2690000D01*
X5955000Y-785000D02*
G01*
X5905000Y-835000D01*
X5905000Y-2595000D01*
X5705000Y-2840000D02*
G01*
X5705000Y-2755000D01*
X5350000Y-4965000D02*
G01*
X5295000Y-4910000D01*
X5295000Y-4345000D01*
X5705000Y-3935000D01*
X5705000Y-2925000D01*
X5820000Y-1065000D02*
G01*
X5750000Y-995000D01*
X5750000Y-845000D01*
X5810000Y-785000D01*
X5800000Y-2545000D02*
G01*
X5800000Y-1580000D01*
X5820000Y-1560000D01*
X5820000Y-1115000D01*
X5800000Y-2840000D02*
G01*
X5800000Y-2630000D01*
X5450000Y-4965000D02*
G01*
X5410000Y-4925000D01*
X5410000Y-4350000D01*
X5800000Y-3960000D01*
X5800000Y-2925000D01*
X5870000Y-1050000D02*
G01*
X5810000Y-990000D01*
X5810000Y-885000D01*
X6085000Y-1850000D02*
G01*
X6085000Y-1050000D01*
X5985000Y-1050000D01*
X6985000Y-2370000D02*
G01*
X6085000Y-2370000D01*
X6085000Y-1905000D01*
X7080000Y-2590000D02*
G01*
X7080000Y-2465000D01*
X7670000Y-2935000D02*
G01*
X7480000Y-2935000D01*
X7480000Y-2870000D01*
X5660000Y-6630000D02*
G01*
X5815000Y-6475000D01*
X5815000Y-5905000D01*
X5795000Y-5885000D01*
X5795000Y-5815000D01*
X6665000Y-6965000D02*
G01*
X6675000Y-6955000D01*
X6675000Y-6685000D01*
X6705000Y-6655000D01*
X6705000Y-6485000D01*
X6660000Y-6440000D01*
X6660000Y-6030000D01*
X6565000Y-7040000D02*
G01*
X6570000Y-7035000D01*
X6570000Y-6695000D01*
X6600000Y-6650000D01*
X6600000Y-6535000D01*
X6460000Y-6385000D01*
X6460000Y-6156379D01*
X6460000Y-6156379D02*
G01*
X6460000Y-6030000D01*
X6760000Y-6630000D02*
G01*
X6710000Y-6680000D01*
X6710000Y-7285000D01*
X6465000Y-7530000D01*
X6165000Y-7485000D02*
G01*
X6165000Y-7640000D01*
X6560000Y-6630000D02*
G01*
X6515000Y-6675000D01*
X6515000Y-7082938D01*
X6265000Y-7332938D01*
X6265000Y-7640000D01*
D11*
X4406999Y-8613599D02*
G01*
X4663000Y-8613599D01*
X4662997Y-8613599D02*
G01*
X4711602Y-8565000D01*
X6230000Y-8565000D01*
X6455000Y-8790000D01*
X7325000Y-8790000D01*
X7445000Y-7895000D02*
G01*
X7445000Y-8045000D01*
X7750000Y-2170000D02*
G01*
X8015000Y-2170000D01*
X8433999Y-343000D02*
G01*
X8436999Y-340000D01*
X8935000Y-340000D01*
X8935000Y-265000D01*
X9270000Y-265000D01*
X9263999Y-270999D01*
X9263999Y-343000D01*
D10*
X5750000Y-2725000D02*
G01*
X5100000Y-2725000D01*
X6740000Y-2590000D02*
G01*
X6195000Y-2590000D01*
X6170000Y-2615000D01*
X5985000Y-2615000D01*
X7455000Y-1635000D02*
G01*
X7380000Y-1710000D01*
X7375000Y-2125000D01*
X7325000Y-2175000D01*
X6830000Y-2670000D01*
X7710000Y-1545000D02*
G01*
X7620000Y-1635000D01*
X7520000Y-1635000D01*
X7920000Y-1545000D02*
G01*
X7795000Y-1545000D01*
X8905000Y-1110000D02*
G01*
X8985000Y-1190000D01*
X8985000Y-1315000D01*
X8860000Y-1440000D01*
X8175000Y-1440000D01*
X8070000Y-1545000D01*
X8000000Y-1545000D01*
X8340000Y-1020000D02*
G01*
X8385000Y-975000D01*
X8800000Y-975000D01*
X8155000Y-1020000D02*
G01*
X8280000Y-1020000D01*
X7435000Y-1050000D02*
G01*
X7465000Y-1020000D01*
X8090000Y-1020000D01*
X6730000Y-2670000D02*
G01*
X7180000Y-2220000D01*
X7180000Y-1670000D01*
X7435000Y-1415000D01*
X7435000Y-1130000D01*
X9085000Y-1110000D02*
G01*
X8950000Y-975000D01*
X8875000Y-975000D01*
X8905000Y-1250000D02*
G01*
X8830000Y-1250000D01*
X8830000Y-1105000D01*
X8830000Y-710000D01*
X8905000Y-710000D01*
X5880000Y-2840000D02*
G01*
X5880000Y-1090000D01*
X5695900Y-1089099D01*
X5695900Y-425900D01*
X5880000Y-4230000D02*
G01*
X5880000Y-2925000D01*
D11*
X6245000Y-4414989D02*
G01*
X6230000Y-4399989D01*
X6230000Y-3545010D01*
D10*
X7455000Y-2210000D02*
G01*
X7430000Y-2185000D01*
X7430000Y-1770000D01*
X7960000Y-2935000D02*
G01*
X7960000Y-2815000D01*
X7960000Y-2717120D02*
G01*
X7960000Y-2615000D01*
X7870000Y-2525000D01*
X7455000Y-2525000D01*
X7455000Y-2500000D01*
X7455000Y-2380000D01*
X7130000Y-2670000D02*
G01*
X7625000Y-2175000D01*
X7625000Y-2020000D01*
X7825000Y-2020000D01*
X7825000Y-1935000D01*
X7955000Y-1805000D01*
X7955000Y-1500000D01*
X8175000Y-1280000D01*
X8175000Y-1185000D01*
X8250000Y-1110000D01*
X8255000Y-1110000D01*
X7750000Y-2270000D02*
G01*
X8015000Y-2270000D01*
X5955000Y-885000D02*
G01*
X5955000Y-2839567D01*
X5955000Y-2925000D02*
G01*
X5955000Y-2940000D01*
X6235000Y-2940000D01*
D11*
X6230000Y-3545010D02*
G01*
X6314989Y-3630000D01*
X6945000Y-3630000D01*
X7030000Y-3545000D01*
X7030000Y-3535010D01*
X6525000Y-3545000D02*
G01*
X6625000Y-3445000D01*
X7130000Y-3445000D01*
X7220000Y-3535000D01*
X7320000Y-3535000D01*
X7665000Y-3540000D02*
G01*
X7575000Y-3630000D01*
X7095000Y-3630000D01*
X7030000Y-3565000D01*
X7030000Y-3535010D01*
X7320000Y-3535000D02*
G01*
X7180000Y-3395000D01*
X7180000Y-2940000D01*
D10*
X7320000Y-2930000D02*
G01*
X7320000Y-3135000D01*
X7670000Y-2935000D02*
G01*
X7665000Y-2940000D01*
X7665000Y-3140000D01*
X7960000Y-2935000D02*
G01*
X7970000Y-2945000D01*
X7970000Y-3140000D01*
X7030000Y-2930000D02*
G01*
X7030000Y-3135010D01*
D11*
X7820000Y-2945000D02*
G01*
X7705000Y-2830000D01*
X7270000Y-2830000D01*
X7180000Y-2920000D01*
X7180000Y-2940000D01*
X7970000Y-3540000D02*
G01*
X7820000Y-3390000D01*
X7820000Y-2945000D01*
D10*
X6235000Y-2940010D02*
G01*
X6230000Y-2945010D01*
X6230000Y-3145010D01*
X6525000Y-2940010D02*
G01*
X6525000Y-3145000D01*
X6530000Y-2670000D02*
G01*
X6525000Y-2675000D01*
X6525000Y-2940010D01*
X7750000Y-2470000D02*
G01*
X8015000Y-2470000D01*
X7750000Y-2370000D02*
G01*
X8015000Y-2370000D01*
X7750000Y-2070000D02*
G01*
X8015000Y-2070000D01*
X7695000Y-1195000D02*
G01*
X7695000Y-1085000D01*
X6485000Y-1085000D01*
X6475000Y-1095000D01*
X6475000Y-1530000D01*
X6235000Y-1770000D01*
X6230000Y-1770000D01*
X7030000Y-2670000D02*
G01*
X7480000Y-2220000D01*
X7480000Y-1630000D01*
X7785000Y-1325000D01*
X7785000Y-1110000D01*
X8060000Y-1110000D01*
X7530000Y-1770000D02*
G01*
X7870000Y-1430000D01*
X7870000Y-1195000D01*
X7230000Y-1770000D02*
G01*
X7525000Y-1475000D01*
X7525000Y-1195000D01*
X6930000Y-1770000D02*
G01*
X7345000Y-1355000D01*
X7345000Y-1195000D01*
X6830000Y-1770000D02*
G01*
X7175000Y-1425000D01*
X7175000Y-1195000D01*
X6730000Y-1770000D02*
G01*
X6995000Y-1505000D01*
X6995000Y-1195000D01*
X6630000Y-1770000D02*
G01*
X6820000Y-1580000D01*
X6820000Y-1195000D01*
X3750000Y-2520000D02*
G01*
X3750000Y-2215000D01*
X3870000Y-2095000D01*
X3870000Y-2090000D01*
X3370000Y-3015000D02*
G01*
X3620000Y-2765000D01*
X3750000Y-2765000D01*
X3750000Y-2705000D01*
X3370000Y-2915000D02*
G01*
X3620000Y-2665000D01*
X4000000Y-2665000D01*
X4000000Y-2465000D01*
D11*
X8260000Y-1650000D02*
G01*
X8905000Y-1650000D01*
X9090000Y-8975000D02*
G01*
X9090000Y-7795000D01*
X8855000Y-7795000D01*
D10*
X5065000Y-1500000D02*
G01*
X4573699Y-1500000D01*
X4415000Y-1658699D01*
X5288270Y-1497170D02*
G01*
X5285439Y-1500000D01*
X5140000Y-1500000D01*
X5655000Y-9410000D02*
G01*
X5820000Y-9410000D01*
X5820000Y-9310000D01*
X4920000Y-9343999D02*
G01*
X4986000Y-9410000D01*
X5575000Y-9410000D01*
X5570000Y-9200000D02*
G01*
X5720000Y-9200000D01*
X5720000Y-9310000D01*
X4920000Y-9243999D02*
G01*
X4920000Y-9165000D01*
X5290000Y-9165000D01*
X5325000Y-9200000D01*
X5475000Y-9200000D01*
X4820000Y-9343999D02*
G01*
X4820000Y-9435000D01*
X5620000Y-9435000D01*
X5620000Y-9310000D01*
X5020000Y-8520000D02*
G01*
X5020000Y-8436400D01*
X4663000Y-8436400D01*
D11*
X7440000Y-8790000D02*
G01*
X7730000Y-8790000D01*
X7810000Y-8790000D02*
G01*
X7985000Y-8790000D01*
X8045000Y-8790000D02*
G01*
X8210000Y-8625000D01*
X8210000Y-8440000D01*
X8540000Y-8440000D01*
X8590000Y-8390000D01*
X8595000Y-8390000D01*
X8595000Y-8390000D02*
G01*
X8755000Y-8550000D01*
X8855000Y-8550000D01*
X4820000Y-8915000D02*
G01*
X4908168Y-9003168D01*
X5520000Y-9003168D01*
X4240000Y-8915000D02*
G01*
X4820000Y-8915000D01*
X4820000Y-9243999D01*
X3930000Y-8210000D02*
G01*
X4240000Y-8520000D01*
X4240000Y-8915000D01*
X530000Y-7330000D02*
G01*
X315000Y-7330000D01*
X2720000Y-7580000D02*
G01*
X2815000Y-7675000D01*
X3583739Y-7675000D01*
X1185000Y-7325000D02*
G01*
X1185000Y-7135000D01*
X2720000Y-7135000D01*
X2720000Y-7580000D01*
D10*
X4000000Y-2370000D02*
G01*
X4280000Y-2090000D01*
X4455000Y-2090000D01*
X1605000Y-4700000D02*
G01*
X2625000Y-4700000D01*
X305000Y-4700000D02*
G01*
X1420000Y-4700000D01*
X7810000Y-8595000D02*
G01*
X8030000Y-8375000D01*
X8440000Y-8375000D01*
X8440000Y-7955000D01*
X8330000Y-7845000D01*
X8330000Y-7795000D01*
X7725000Y-8595000D02*
G01*
X7635000Y-8595000D01*
X7930000Y-9175000D02*
G01*
X8015000Y-9090000D01*
X8015000Y-8595000D01*
X7810000Y-8595000D01*
D11*
X7770000Y-8975000D02*
G01*
X7770000Y-7840000D01*
X7690000Y-7760000D01*
X7690000Y-7740000D01*
D10*
X8335000Y-8545000D02*
G01*
X8580000Y-8545000D01*
X8585000Y-8540000D01*
X8590000Y-8975000D02*
G01*
X8590000Y-8545000D01*
X8585000Y-8540000D01*
X8585000Y-8250000D02*
G01*
X8685000Y-8150000D01*
X8855000Y-8150000D01*
X8330000Y-7795000D02*
G01*
X8335000Y-7800000D01*
X8575000Y-7800000D01*
X8575000Y-7510000D02*
G01*
X8575000Y-7395000D01*
X8855000Y-7395000D01*
D11*
X7690000Y-7740000D02*
G01*
X7715000Y-7715000D01*
X7715000Y-7395000D01*
X8330000Y-7395000D01*
D10*
X8083699Y-7465000D02*
G01*
X8085000Y-7466300D01*
X8085000Y-7740000D01*
X7643699Y-7470000D02*
G01*
X7640000Y-7473699D01*
X7640000Y-7740000D01*
D11*
X6770000Y-7760000D02*
G01*
X6600000Y-7930000D01*
X4935000Y-7930000D01*
X5750000Y-5565000D02*
G01*
X5850000Y-5465000D01*
X5850000Y-4965000D01*
D10*
X5550000Y-5815000D02*
G01*
X5550000Y-5565000D01*
D11*
X5695000Y-5815000D02*
G01*
X5750000Y-5760000D01*
X5750000Y-5565000D01*
D10*
X5765000Y-7040000D02*
G01*
X5815000Y-6990000D01*
X5815000Y-6700000D01*
X5760000Y-6645000D01*
X5760000Y-6630000D01*
X5861800Y-6815000D02*
G01*
X5860000Y-6813200D01*
X5860000Y-6630000D01*
X5865000Y-7040000D02*
G01*
X5861800Y-7036800D01*
X5861800Y-6815000D01*
X5963400Y-6815000D02*
G01*
X5965000Y-6816599D01*
X5965000Y-7040000D01*
X5963400Y-6815000D02*
G01*
X5960000Y-6811599D01*
X5960000Y-6630000D01*
X6065000Y-6815000D02*
G01*
X6060000Y-6810000D01*
X6060000Y-6630000D01*
X6471400Y-6815000D02*
G01*
X6460000Y-6803600D01*
X6460000Y-6630000D01*
X6365000Y-7040000D02*
G01*
X6471400Y-6933600D01*
X6471400Y-6815000D01*
X6369799Y-6815000D02*
G01*
X6265000Y-6919800D01*
X6265000Y-7040000D01*
X6360000Y-6630000D02*
G01*
X6369799Y-6639800D01*
X6369799Y-6815000D01*
X6268199Y-6815000D02*
G01*
X6165000Y-6918200D01*
X6165000Y-7040000D01*
X6268199Y-6815000D02*
G01*
X6260000Y-6806799D01*
X6260000Y-6630000D01*
X6166599Y-6815000D02*
G01*
X6160000Y-6808400D01*
X6160000Y-6630000D01*
X6166599Y-6815000D02*
G01*
X6065000Y-6916599D01*
X6065000Y-7040000D01*
X5980000Y-4665000D02*
G01*
X5980000Y-4230000D01*
X6245000Y-4814989D02*
G01*
X6150000Y-4909989D01*
X6150000Y-4965000D01*
X6055000Y-4815000D02*
G01*
X6055000Y-4960000D01*
X6050000Y-4965000D01*
X6425000Y-4814989D02*
G01*
X6350000Y-4889989D01*
X6350000Y-4965000D01*
D11*
X1505000Y-4700000D02*
G01*
X1555000Y-4750000D01*
X2655000Y-4750000D01*
X2705000Y-4700000D01*
X2710000Y-4700000D01*
X205000Y-4700000D02*
G01*
X255000Y-4750000D01*
X1455000Y-4750000D01*
X1505000Y-4700000D01*
D10*
X1605000Y-4600000D02*
G01*
X2625000Y-4600000D01*
X2670000Y-4555000D01*
X2765000Y-4555000D01*
X2810000Y-4600000D01*
D11*
X1505000Y-4600000D02*
G01*
X1555000Y-4650000D01*
X2660000Y-4650000D01*
X2710000Y-4600000D01*
D10*
X305000Y-4600000D02*
G01*
X1400000Y-4600000D01*
X1445000Y-4555000D01*
X1540000Y-4555000D01*
X1585000Y-4600000D01*
X1605000Y-4600000D01*
D11*
X205000Y-4600000D02*
G01*
X255000Y-4650000D01*
X1450000Y-4650000D01*
X1500000Y-4600000D01*
X1505000Y-4600000D01*
D10*
X1605000Y-4500000D02*
G01*
X2625000Y-4500000D01*
X2675000Y-4450000D01*
X2755000Y-4450000D01*
X2805000Y-4500000D01*
X2810000Y-4500000D01*
X1505000Y-4500000D02*
G01*
X1545000Y-4540000D01*
X2660000Y-4540000D01*
X2700000Y-4500000D01*
X2710000Y-4500000D01*
X305000Y-4500000D02*
G01*
X1400000Y-4500000D01*
X1445000Y-4455000D01*
X1540000Y-4455000D01*
X1585000Y-4500000D01*
X1605000Y-4500000D01*
X205000Y-4500000D02*
G01*
X245000Y-4540000D01*
X1450000Y-4540000D01*
X1490000Y-4500000D01*
X1505000Y-4500000D01*
X1605000Y-4400000D02*
G01*
X2625000Y-4400000D01*
X2675000Y-4350000D01*
X2750000Y-4350000D01*
X2800000Y-4400000D01*
X2810000Y-4400000D01*
X1505000Y-4400000D02*
G01*
X1545000Y-4440000D01*
X2655000Y-4440000D01*
X2695000Y-4400000D01*
X2710000Y-4400000D01*
X305000Y-4400000D02*
G01*
X1400000Y-4400000D01*
X1445000Y-4355000D01*
X1535000Y-4355000D01*
X1580000Y-4400000D01*
X1605000Y-4400000D01*
X205000Y-4400000D02*
G01*
X245000Y-4440000D01*
X1455000Y-4440000D01*
X1495000Y-4400000D01*
X1505000Y-4400000D01*
X1605000Y-4300000D02*
G01*
X2625000Y-4300000D01*
X2675000Y-4250000D01*
X2745000Y-4250000D01*
X2795000Y-4300000D01*
X2810000Y-4300000D01*
X1505000Y-4300000D02*
G01*
X1545000Y-4340000D01*
X2655000Y-4340000D01*
X2695000Y-4300000D01*
X2710000Y-4300000D01*
X305000Y-4300000D02*
G01*
X1400000Y-4300000D01*
X1445000Y-4255000D01*
X1540000Y-4255000D01*
X1585000Y-4300000D01*
X1605000Y-4300000D01*
X205000Y-4300000D02*
G01*
X245000Y-4340000D01*
X1450000Y-4340000D01*
X1490000Y-4300000D01*
X1505000Y-4300000D01*
X1605000Y-4200000D02*
G01*
X2625000Y-4200000D01*
X2670000Y-4155000D01*
X2755000Y-4155000D01*
X2800000Y-4200000D01*
X2810000Y-4200000D01*
X1505000Y-4200000D02*
G01*
X1545000Y-4240000D01*
X2660000Y-4240000D01*
X2700000Y-4200000D01*
X2710000Y-4200000D01*
X305000Y-4200000D02*
G01*
X1400000Y-4200000D01*
X1440000Y-4160000D01*
X1550000Y-4160000D01*
X1590000Y-4200000D01*
X1605000Y-4200000D01*
X205000Y-4200000D02*
G01*
X245000Y-4240000D01*
X1450000Y-4240000D01*
X1490000Y-4200000D01*
X1505000Y-4200000D01*
X1505000Y-4100000D02*
G01*
X1545000Y-4140000D01*
X2655000Y-4140000D01*
X2695000Y-4100000D01*
X2710000Y-4100000D01*
X1605000Y-4100000D02*
G01*
X2625000Y-4100000D01*
X2675000Y-4050000D01*
X2750000Y-4050000D01*
X2800000Y-4100000D01*
X2810000Y-4100000D01*
X305000Y-4100000D02*
G01*
X1405000Y-4100000D01*
X1450000Y-4055000D01*
X1540000Y-4055000D01*
X1585000Y-4100000D01*
X1605000Y-4100000D01*
X205000Y-4100000D02*
G01*
X245000Y-4140000D01*
X1455000Y-4140000D01*
X1495000Y-4100000D01*
X1505000Y-4100000D01*
X1605000Y-4000000D02*
G01*
X2625000Y-4000000D01*
X2675000Y-3950000D01*
X2755000Y-3950000D01*
X2805000Y-4000000D01*
X2810000Y-4000000D01*
X305000Y-4000000D02*
G01*
X1405000Y-4000000D01*
X1445000Y-3960000D01*
X1555000Y-3960000D01*
X1595000Y-4000000D01*
X1605000Y-4000000D01*
X205000Y-4000000D02*
G01*
X245000Y-4040000D01*
X1455000Y-4040000D01*
X1495000Y-4000000D01*
X1505000Y-4000000D01*
X1605000Y-3900000D02*
G01*
X2625000Y-3900000D01*
X2675000Y-3850000D01*
X2760000Y-3850000D01*
X2810000Y-3900000D01*
X1505000Y-3900000D02*
G01*
X1545000Y-3940000D01*
X2660000Y-3940000D01*
X2700000Y-3900000D01*
X2710000Y-3900000D01*
X305000Y-3900000D02*
G01*
X1405000Y-3900000D01*
X1445000Y-3860000D01*
X1550000Y-3860000D01*
X1590000Y-3900000D01*
X1605000Y-3900000D01*
X205000Y-3900000D02*
G01*
X245000Y-3940000D01*
X1455000Y-3940000D01*
X1495000Y-3900000D01*
X1505000Y-3900000D01*
X1605000Y-3800000D02*
G01*
X2625000Y-3800000D01*
X2675000Y-3750000D01*
X2770000Y-3750000D01*
X2810000Y-3790000D01*
X2810000Y-3800000D01*
X1505000Y-3800000D02*
G01*
X1545000Y-3840000D01*
X2655000Y-3840000D01*
X2695000Y-3800000D01*
X2710000Y-3800000D01*
X305000Y-3800000D02*
G01*
X1405000Y-3800000D01*
X1450000Y-3755000D01*
X1545000Y-3755000D01*
X1590000Y-3800000D01*
X1605000Y-3800000D01*
X205000Y-3800000D02*
G01*
X245000Y-3840000D01*
X1455000Y-3840000D01*
X1495000Y-3800000D01*
X1505000Y-3800000D01*
X1605000Y-3700000D02*
G01*
X2625000Y-3700000D01*
X2675000Y-3650000D01*
X2755000Y-3650000D01*
X2805000Y-3700000D01*
X2810000Y-3700000D01*
X1505000Y-3700000D02*
G01*
X1545000Y-3740000D01*
X2660000Y-3740000D01*
X2700000Y-3700000D01*
X2710000Y-3700000D01*
X305000Y-3700000D02*
G01*
X1405000Y-3700000D01*
X1450000Y-3655000D01*
X1545000Y-3655000D01*
X1590000Y-3700000D01*
X1605000Y-3700000D01*
X205000Y-3700000D02*
G01*
X245000Y-3740000D01*
X1450000Y-3740000D01*
X1490000Y-3700000D01*
X1505000Y-3700000D01*
X1605000Y-3600000D02*
G01*
X2625000Y-3600000D01*
X2670000Y-3555000D01*
X2760000Y-3555000D01*
X2805000Y-3600000D01*
X2810000Y-3600000D01*
X1505000Y-3600000D02*
G01*
X1545000Y-3640000D01*
X2660000Y-3640000D01*
X2700000Y-3600000D01*
X2710000Y-3600000D01*
X305000Y-3600000D02*
G01*
X1405000Y-3600000D01*
X1450000Y-3555000D01*
X1540000Y-3555000D01*
X1585000Y-3600000D01*
X1605000Y-3600000D01*
X205000Y-3600000D02*
G01*
X245000Y-3640000D01*
X1455000Y-3640000D01*
X1495000Y-3600000D01*
X1505000Y-3600000D01*
X1505000Y-3400000D02*
G01*
X1545000Y-3440000D01*
X2655000Y-3440000D01*
X2695000Y-3400000D01*
X2710000Y-3400000D01*
X205000Y-3400000D02*
G01*
X245000Y-3440000D01*
X1455000Y-3440000D01*
X1495000Y-3400000D01*
X1505000Y-3400000D01*
X1505000Y-3300000D02*
G01*
X1545000Y-3340000D01*
X2660000Y-3340000D01*
X2700000Y-3300000D01*
X2710000Y-3300000D01*
X205000Y-3300000D02*
G01*
X245000Y-3340000D01*
X1450000Y-3340000D01*
X1490000Y-3300000D01*
X1505000Y-3300000D01*
X1605000Y-3200000D02*
G01*
X2625000Y-3200000D01*
X2670000Y-3155000D01*
X2765000Y-3155000D01*
X2810000Y-3200000D01*
X1505000Y-3200000D02*
G01*
X1545000Y-3240000D01*
X2655000Y-3240000D01*
X2695000Y-3200000D01*
X2710000Y-3200000D01*
X305000Y-3200000D02*
G01*
X1410000Y-3200000D01*
X1450000Y-3160000D01*
X1545000Y-3160000D01*
X1585000Y-3200000D01*
X1605000Y-3200000D01*
X205000Y-3200000D02*
G01*
X245000Y-3240000D01*
X1450000Y-3240000D01*
X1490000Y-3200000D01*
X1505000Y-3200000D01*
X1605000Y-3100000D02*
G01*
X2625000Y-3100000D01*
X2675000Y-3050000D01*
X2765000Y-3050000D01*
X2810000Y-3095000D01*
X2810000Y-3100000D01*
X1505000Y-3100000D02*
G01*
X1550000Y-3145000D01*
X2655000Y-3145000D01*
X2700000Y-3100000D01*
X2710000Y-3100000D01*
X305000Y-3100000D02*
G01*
X1420000Y-3100000D01*
X1470000Y-3050000D01*
X1570000Y-3050000D01*
X1605000Y-3085000D01*
X1605000Y-3100000D01*
X205000Y-3100000D02*
G01*
X250000Y-3145000D01*
X1450000Y-3145000D01*
X1495000Y-3100000D01*
X1505000Y-3100000D01*
D11*
X3930000Y-8210000D02*
G01*
X4210000Y-7930000D01*
X4755000Y-7930000D01*
X3583739Y-7675000D02*
G01*
X3583739Y-7863739D01*
X3930000Y-8210000D01*
D10*
X2720000Y-7880000D02*
G01*
X2720000Y-8040000D01*
X2280000Y-8480000D01*
X1135000Y-8480000D01*
X1135000Y-9205000D01*
X2720000Y-7880000D02*
G01*
X2805000Y-7795000D01*
X2975000Y-7795000D01*
X2975000Y-8124979D01*
X2895000Y-7880000D02*
G01*
X2895000Y-8419399D01*
X2901999Y-8426400D01*
X2901999Y-8426400D02*
G01*
X3158000Y-8426400D01*
X3720000Y-8215000D02*
G01*
X3755000Y-8250000D01*
X3755000Y-8535580D01*
X3686999Y-8603580D01*
X3686999Y-8603580D02*
G01*
X3943000Y-8603580D01*
X4663000Y-8436400D02*
G01*
X4406999Y-8436400D01*
X205000Y-1000000D02*
G01*
X255000Y-1050000D01*
X1445000Y-1050000D01*
X1495000Y-1000000D01*
X1505000Y-1000000D01*
X305000Y-1000000D02*
G01*
X1415000Y-1000000D01*
X1485000Y-930000D01*
X1600000Y-930000D01*
X1605000Y-935000D01*
X1605000Y-1000000D01*
X205000Y-1100000D02*
G01*
X245000Y-1140000D01*
X1450000Y-1140000D01*
X1490000Y-1100000D01*
X1505000Y-1100000D01*
X305000Y-1100000D02*
G01*
X1420000Y-1100000D01*
X1465000Y-1055000D01*
X1570000Y-1055000D01*
X1605000Y-1090000D01*
X1605000Y-1100000D01*
X1505000Y-1000000D02*
G01*
X1545000Y-1040000D01*
X2660000Y-1040000D01*
X2700000Y-1000000D01*
X2710000Y-1000000D01*
X1605000Y-1000000D02*
G01*
X2625000Y-1000000D01*
X2695000Y-930000D01*
X2810000Y-930000D01*
X2810000Y-1000000D01*
X1505000Y-1100000D02*
G01*
X1545000Y-1140000D01*
X2655000Y-1140000D01*
X2695000Y-1100000D01*
X2710000Y-1100000D01*
X1605000Y-1100000D02*
G01*
X2625000Y-1100000D01*
X2670000Y-1055000D01*
X2770000Y-1055000D01*
X2810000Y-1095000D01*
X2810000Y-1100000D01*
X2710000Y-1100000D02*
G01*
X2755000Y-1145000D01*
X3120000Y-1145000D01*
X3625000Y-1650000D01*
X3625000Y-1870000D01*
X3670000Y-1915000D01*
X205000Y-1200000D02*
G01*
X245000Y-1240000D01*
X1455000Y-1240000D01*
X1495000Y-1200000D01*
X1505000Y-1200000D01*
X305000Y-1200000D02*
G01*
X1420000Y-1200000D01*
X1465000Y-1155000D01*
X1565000Y-1155000D01*
X1605000Y-1195000D01*
X1605000Y-1200000D01*
X1505000Y-1200000D02*
G01*
X1545000Y-1240000D01*
X2660000Y-1240000D01*
X2700000Y-1200000D01*
X2710000Y-1200000D01*
X1605000Y-1200000D02*
G01*
X2625000Y-1200000D01*
X2665000Y-1160000D01*
X2765000Y-1160000D01*
X2805000Y-1200000D01*
X2810000Y-1200000D01*
X2710000Y-1200000D02*
G01*
X2760000Y-1250000D01*
X3200000Y-1250000D01*
X3605000Y-1655000D01*
X3605000Y-1655000D01*
X3605000Y-1955000D01*
X3670000Y-2015000D01*
X205000Y-1300000D02*
G01*
X245000Y-1340000D01*
X1455000Y-1340000D01*
X1495000Y-1300000D01*
X1505000Y-1300000D01*
X305000Y-1300000D02*
G01*
X1420000Y-1300000D01*
X1465000Y-1255000D01*
X1570000Y-1255000D01*
X1605000Y-1290000D01*
X1605000Y-1300000D01*
X1505000Y-1300000D02*
G01*
X1545000Y-1340000D01*
X2660000Y-1340000D01*
X2700000Y-1300000D01*
X2710000Y-1300000D01*
X1605000Y-1300000D02*
G01*
X2625000Y-1300000D01*
X2665000Y-1260000D01*
X2753299Y-1260000D01*
X2793299Y-1300000D01*
X2810000Y-1300000D01*
X2710000Y-1300000D02*
G01*
X2760000Y-1350000D01*
X3275000Y-1350000D01*
X3580000Y-1655000D01*
X3580000Y-2040000D01*
X3655000Y-2115000D01*
X3670000Y-2115000D01*
X205000Y-1400000D02*
G01*
X245000Y-1440000D01*
X1450000Y-1440000D01*
X1490000Y-1400000D01*
X1505000Y-1400000D01*
X305000Y-1400000D02*
G01*
X1420000Y-1400000D01*
X1465000Y-1355000D01*
X1560000Y-1355000D01*
X1605000Y-1400000D01*
X1505000Y-1400000D02*
G01*
X1545000Y-1440000D01*
X2660000Y-1440000D01*
X2700000Y-1400000D01*
X2710000Y-1400000D01*
X1605000Y-1400000D02*
G01*
X2625000Y-1400000D01*
X2665000Y-1360000D01*
X2745000Y-1360000D01*
X2785000Y-1400000D01*
X2810000Y-1400000D01*
X2710000Y-1000000D02*
G01*
X2750000Y-1040000D01*
X3040000Y-1040000D01*
X3665000Y-1665000D01*
X3665000Y-1815000D01*
X3670000Y-1815000D01*
X205000Y-1500000D02*
G01*
X245000Y-1540000D01*
X1455000Y-1540000D01*
X1495000Y-1500000D01*
X1505000Y-1500000D01*
X305000Y-1500000D02*
G01*
X1420000Y-1500000D01*
X1465000Y-1455000D01*
X1545000Y-1455000D01*
X1590000Y-1500000D01*
X1605000Y-1500000D01*
X1505000Y-1500000D02*
G01*
X1550000Y-1545000D01*
X2660000Y-1545000D01*
X2705000Y-1500000D01*
X2710000Y-1500000D01*
X1605000Y-1500000D02*
G01*
X2625000Y-1500000D01*
X2665000Y-1460000D01*
X2745000Y-1460000D01*
X2785000Y-1500000D01*
X2810000Y-1500000D01*
X2710000Y-1500000D02*
G01*
X2760000Y-1550000D01*
X3425000Y-1550000D01*
X3530000Y-1655000D01*
X3530000Y-2170000D01*
X3670000Y-2310000D01*
X3670000Y-2315000D01*
X205000Y-1600000D02*
G01*
X245000Y-1640000D01*
X1455000Y-1640000D01*
X1495000Y-1600000D01*
X1505000Y-1600000D01*
X305000Y-1600000D02*
G01*
X1420000Y-1600000D01*
X1465000Y-1555000D01*
X1543299Y-1555000D01*
X1588299Y-1600000D01*
X1605000Y-1600000D01*
X1505000Y-1600000D02*
G01*
X1545000Y-1640000D01*
X2660000Y-1640000D01*
X2700000Y-1600000D01*
X2710000Y-1600000D01*
X1605000Y-1600000D02*
G01*
X2625000Y-1600000D01*
X2670000Y-1555000D01*
X2740000Y-1555000D01*
X2785000Y-1600000D01*
X2810000Y-1600000D01*
X2710000Y-1600000D02*
G01*
X2765000Y-1655000D01*
X3510000Y-1655000D01*
X3510000Y-2250000D01*
X3670000Y-2410000D01*
X3670000Y-2415000D01*
X205000Y-1700000D02*
G01*
X245000Y-1740000D01*
X1455000Y-1740000D01*
X1495000Y-1700000D01*
X1505000Y-1700000D01*
X305000Y-1700000D02*
G01*
X1420000Y-1700000D01*
X1465000Y-1655000D01*
X1550000Y-1655000D01*
X1595000Y-1700000D01*
X1605000Y-1700000D01*
X1505000Y-1700000D02*
G01*
X1545000Y-1740000D01*
X2660000Y-1740000D01*
X2700000Y-1700000D01*
X2710000Y-1700000D01*
X1605000Y-1700000D02*
G01*
X2625000Y-1700000D01*
X2670000Y-1655000D01*
X2740000Y-1655000D01*
X2785000Y-1700000D01*
X2810000Y-1700000D01*
X2710000Y-1700000D02*
G01*
X2760000Y-1750000D01*
X3495000Y-1750000D01*
X3495000Y-2340000D01*
X3670000Y-2515000D01*
X205000Y-1800000D02*
G01*
X245000Y-1840000D01*
X1455000Y-1840000D01*
X1495000Y-1800000D01*
X1505000Y-1800000D01*
X1505000Y-1800000D02*
G01*
X1545000Y-1840000D01*
X2655000Y-1840000D01*
X2695000Y-1800000D01*
X2710000Y-1800000D01*
X2710000Y-1800000D02*
G01*
X2755000Y-1845000D01*
X3275000Y-1845000D01*
X3305000Y-1815000D01*
X3370000Y-1815000D01*
X205000Y-1900000D02*
G01*
X245000Y-1940000D01*
X1450000Y-1940000D01*
X1490000Y-1900000D01*
X1505000Y-1900000D01*
X1505000Y-1900000D02*
G01*
X1545000Y-1940000D01*
X2660000Y-1940000D01*
X2700000Y-1900000D01*
X2710000Y-1900000D01*
X2710000Y-1900000D02*
G01*
X2760000Y-1950000D01*
X3275000Y-1950000D01*
X3310000Y-1915000D01*
X3370000Y-1915000D01*
X205000Y-2000000D02*
G01*
X245000Y-2040000D01*
X1450000Y-2040000D01*
X1490000Y-2000000D01*
X1505000Y-2000000D01*
X1505000Y-2000000D02*
G01*
X1545000Y-2040000D01*
X2660000Y-2040000D01*
X2700000Y-2000000D01*
X2710000Y-2000000D01*
X2710000Y-2000000D02*
G01*
X2760000Y-2050000D01*
X3275000Y-2050000D01*
X3310000Y-2015000D01*
X3370000Y-2015000D01*
X205000Y-2100000D02*
G01*
X245000Y-2140000D01*
X1455000Y-2140000D01*
X1495000Y-2100000D01*
X1505000Y-2100000D01*
X2710000Y-2100000D02*
G01*
X2760000Y-2150000D01*
X3275000Y-2150000D01*
X3310000Y-2115000D01*
X3370000Y-2115000D01*
X205000Y-2200000D02*
G01*
X245000Y-2240000D01*
X1455000Y-2240000D01*
X1495000Y-2200000D01*
X1505000Y-2200000D01*
X305000Y-2200000D02*
G01*
X1420000Y-2200000D01*
X1465000Y-2155000D01*
X1550000Y-2155000D01*
X1595000Y-2200000D01*
X1605000Y-2200000D01*
X1505000Y-2200000D02*
G01*
X1545000Y-2240000D01*
X2660000Y-2240000D01*
X2700000Y-2200000D01*
X2710000Y-2200000D01*
X1605000Y-2200000D02*
G01*
X2625000Y-2200000D01*
X2665000Y-2160000D01*
X2753299Y-2160000D01*
X2793299Y-2200000D01*
X2810000Y-2200000D01*
X2710000Y-2200000D02*
G01*
X2760000Y-2250000D01*
X3275000Y-2250000D01*
X3310000Y-2215000D01*
X3370000Y-2215000D01*
X205000Y-2300000D02*
G01*
X245000Y-2340000D01*
X1455000Y-2340000D01*
X1495000Y-2300000D01*
X1505000Y-2300000D01*
X305000Y-2300000D02*
G01*
X1420000Y-2300000D01*
X1465000Y-2255000D01*
X1560000Y-2255000D01*
X1605000Y-2300000D01*
X1505000Y-2300000D02*
G01*
X1545000Y-2340000D01*
X2660000Y-2340000D01*
X2700000Y-2300000D01*
X2710000Y-2300000D01*
X1605000Y-2300000D02*
G01*
X2625000Y-2300000D01*
X2665000Y-2260000D01*
X2750000Y-2260000D01*
X2790000Y-2300000D01*
X2810000Y-2300000D01*
X2710000Y-2300000D02*
G01*
X2760000Y-2350000D01*
X3275000Y-2350000D01*
X3310000Y-2315000D01*
X3370000Y-2315000D01*
X205000Y-2400000D02*
G01*
X245000Y-2440000D01*
X1455000Y-2440000D01*
X1495000Y-2400000D01*
X1505000Y-2400000D01*
X305000Y-2400000D02*
G01*
X1420000Y-2400000D01*
X1465000Y-2355000D01*
X1560000Y-2355000D01*
X1605000Y-2400000D01*
X1505000Y-2400000D02*
G01*
X1545000Y-2440000D01*
X2625000Y-2440000D01*
X2665000Y-2400000D01*
X2710000Y-2400000D01*
X1605000Y-2400000D02*
G01*
X2625000Y-2400000D01*
X2670000Y-2355000D01*
X2745000Y-2355000D01*
X2790000Y-2400000D01*
X2810000Y-2400000D01*
X2710000Y-2400000D02*
G01*
X2760000Y-2450000D01*
X3275000Y-2450000D01*
X3310000Y-2415000D01*
X3370000Y-2415000D01*
X205000Y-2500000D02*
G01*
X245000Y-2540000D01*
X1455000Y-2540000D01*
X1495000Y-2500000D01*
X1505000Y-2500000D01*
X305000Y-2500000D02*
G01*
X1420000Y-2500000D01*
X1460000Y-2460000D01*
X1555000Y-2460000D01*
X1595000Y-2500000D01*
X1605000Y-2500000D01*
X1505000Y-2500000D02*
G01*
X1555000Y-2550000D01*
X2660000Y-2550000D01*
X2710000Y-2500000D01*
D11*
X205000Y-2700000D02*
G01*
X305000Y-2700000D01*
X305000Y-2700000D02*
G01*
X555000Y-2700000D01*
X555000Y-2700000D02*
G01*
X1505000Y-2700000D01*
X1505000Y-2700000D02*
G01*
X1605000Y-2700000D01*
X1605000Y-2700000D02*
G01*
X1890000Y-2700000D01*
X1890000Y-2700000D02*
G01*
X2710000Y-2700000D01*
X2710000Y-2700000D02*
G01*
X2810000Y-2700000D01*
D10*
X205000Y-2800000D02*
G01*
X245000Y-2840000D01*
X1455000Y-2840000D01*
X1495000Y-2800000D01*
X1505000Y-2800000D01*
X305000Y-2800000D02*
G01*
X1420000Y-2800000D01*
X1470000Y-2750000D01*
X1560000Y-2750000D01*
X1605000Y-2795000D01*
X1605000Y-2800000D01*
X1505000Y-2800000D02*
G01*
X1545000Y-2840000D01*
X2660000Y-2840000D01*
X2700000Y-2800000D01*
X2710000Y-2800000D01*
X1605000Y-2800000D02*
G01*
X2625000Y-2800000D01*
X2675000Y-2750000D01*
X2760000Y-2750000D01*
X2810000Y-2800000D01*
X6820000Y-795000D02*
G01*
X6645000Y-795000D01*
X6995000Y-795000D02*
G01*
X7175000Y-795000D01*
X7345000Y-795000D02*
G01*
X7525000Y-795000D01*
X8065000Y-1250000D02*
G01*
X8130000Y-1185000D01*
X8130000Y-715000D01*
X8125000Y-710000D01*
X8060000Y-710000D01*
X8260000Y-1250000D02*
G01*
X8315000Y-1195000D01*
X8315000Y-715000D01*
X8310000Y-710000D01*
X8255000Y-710000D01*
X8255000Y-710000D02*
G01*
X8248999Y-704000D01*
X8248999Y-343000D01*
X8996000Y-439000D02*
G01*
X8905000Y-530000D01*
X8905000Y-710000D01*
X9078999Y-343000D02*
G01*
X9085000Y-349000D01*
X9085000Y-710000D01*
X9090000Y-1250000D02*
G01*
X9160000Y-1180000D01*
X9160000Y-715000D01*
X9155000Y-710000D01*
X9085000Y-710000D01*
X8060000Y-710000D02*
G01*
X8060000Y-440000D01*
X8061000Y-439000D01*
X8166000Y-439000D01*
X7175000Y-795000D02*
G01*
X7243570Y-726430D01*
X7243570Y-535030D01*
X7345000Y-795000D02*
G01*
X7332150Y-782150D01*
X7332150Y-535030D01*
X7332150Y-335030D02*
G01*
X7382120Y-385000D01*
X7555000Y-385000D01*
X7695000Y-525000D01*
X7695000Y-795000D01*
X7870000Y-795000D02*
G01*
X7725000Y-650000D01*
X7725000Y-490000D01*
X7570000Y-335000D01*
X7570000Y-275000D01*
X7420699Y-275700D01*
X7420699Y-335000D01*
X4638000Y-373499D02*
G01*
X4635000Y-376500D01*
X4635000Y-687319D01*
X4638000Y-373499D02*
G01*
X4706499Y-305000D01*
X4985000Y-305000D01*
X5031999Y-351999D01*
X5031999Y-373499D01*
X5914049Y-425909D02*
G01*
X5955000Y-466860D01*
X5955000Y-785000D01*
X5805000Y-425909D02*
G01*
X5810000Y-430909D01*
X5810000Y-785000D01*
X5755000Y-1211300D02*
G01*
X5753699Y-1210000D01*
X5385000Y-1210000D01*
X5382759Y-1207759D01*
X5382759Y-1142840D01*
X4455000Y-1910000D02*
G01*
X4455000Y-2090000D01*
X4160000Y-1905000D02*
G01*
X4165000Y-1910000D01*
X4165000Y-2090000D01*
X3870000Y-1905000D02*
G01*
X3870000Y-2090000D01*
X4745000Y-1910000D02*
G01*
X4755000Y-1920000D01*
X4755000Y-2090000D01*
X3670000Y-2815000D02*
G01*
X3815000Y-2815000D01*
X5705000Y-1730601D02*
G01*
X5704399Y-1730000D01*
X5480000Y-1730000D01*
X5100000Y-2325000D02*
G01*
X5236300Y-2325000D01*
X5236300Y-2325000D02*
G01*
X5285000Y-2276300D01*
X5285000Y-2130000D01*
X5285000Y-2130000D02*
G01*
X5605630Y-1809369D01*
X5705000Y-1809369D01*
D11*
X8065000Y-1650000D02*
G01*
X8260000Y-1650000D01*
X8905000Y-1650000D02*
G01*
X9090000Y-1650000D01*
D10*
X4415000Y-1250000D02*
G01*
X4415000Y-1371300D01*
X4880000Y-1250000D02*
G01*
X4885000Y-1255000D01*
X4885000Y-1376300D01*
D11*
X6765000Y-7640000D02*
G01*
X6770000Y-7645000D01*
X6770000Y-7760000D01*
D10*
X7635000Y-8285000D02*
G01*
X7635000Y-8495020D01*
D11*
X8585000Y-7650000D02*
G01*
X8729979Y-7794979D01*
X8855000Y-7794979D01*
X4620000Y-6850000D02*
G01*
X4620000Y-7030000D01*
X6245000Y-4414989D02*
G01*
X6425000Y-4414989D01*
D10*
X5650000Y-4475000D02*
G01*
X5646459Y-4478539D01*
X5646459Y-4680000D01*
X5646459Y-4680000D02*
G01*
X5650000Y-4683539D01*
X5650000Y-4965000D01*
X5455000Y-4475000D02*
G01*
X5453540Y-4476460D01*
X5453540Y-4680000D01*
X5453540Y-4680000D02*
G01*
X5550000Y-4776460D01*
X5550000Y-4965000D01*
X1605000Y-4900000D02*
G01*
X2710000Y-4900000D01*
X305000Y-4900000D02*
G01*
X1505000Y-4900000D01*
X2895000Y-7480000D02*
G01*
X3075000Y-7480000D01*
X3445000Y-8215000D02*
G01*
X3720000Y-8215000D01*
D11*
X4240000Y-8915000D02*
G01*
X4240000Y-9105000D01*
X4240000Y-9105000D02*
G01*
X4240000Y-9310000D01*
X5520000Y-8870000D02*
G01*
X5520000Y-9070000D01*
X5520000Y-9070000D02*
G01*
X5520000Y-9310000D01*
D10*
X5825000Y-8370000D02*
G01*
X5830000Y-8365000D01*
X6020000Y-8365000D01*
X5825000Y-8670000D02*
G01*
X5825000Y-8855000D01*
X5920000Y-9310000D02*
G01*
X6020000Y-9210000D01*
X6020000Y-8765000D01*
X5825000Y-8955000D02*
G01*
X5820000Y-8960000D01*
X5820000Y-9310000D01*
X1325000Y-7480000D02*
G01*
X1285000Y-7440000D01*
X1285000Y-7325000D01*
X1145000Y-7480000D02*
G01*
X1235000Y-7390000D01*
X1235000Y-7325000D01*
X685000Y-7879979D02*
G01*
X685000Y-8110000D01*
X685000Y-7479979D02*
G01*
X630000Y-7424979D01*
X630000Y-7330000D01*
X505000Y-7480000D02*
G01*
X580000Y-7405000D01*
X580000Y-7330000D01*
D11*
X530000Y-7330000D02*
G01*
X530000Y-7270000D01*
X575000Y-7225000D01*
X1105000Y-7225000D01*
X1185000Y-7305000D01*
X1185000Y-7325000D01*
D10*
X1325000Y-8119979D02*
G01*
X1325000Y-7880000D01*
X1985000Y-7880000D02*
G01*
X1985000Y-8120000D01*
X2420000Y-7879979D02*
G01*
X2425000Y-7884979D01*
X2425000Y-8125000D01*
X3075000Y-7880000D02*
G01*
X3075000Y-8124979D01*
D11*
X4755000Y-7930000D02*
G01*
X4935000Y-7930000D01*
D10*
X4930000Y-7391260D02*
G01*
X4935000Y-7396260D01*
X4935000Y-7530000D01*
X4620000Y-7530000D02*
G01*
X4755000Y-7530000D01*
X3926260Y-7675000D02*
G01*
X3930000Y-7678739D01*
X3930000Y-7810000D01*
X3930000Y-7810000D02*
G01*
X3925000Y-7815000D01*
X3720000Y-7815000D01*
X4245000Y-4030000D02*
G01*
X4245000Y-4805000D01*
X4945000Y-4805000D01*
X1505000Y-4800000D02*
G01*
X305000Y-4800000D01*
X2710000Y-4800000D02*
G01*
X1605000Y-4800000D01*
X1505000Y-4800000D02*
G01*
X1605000Y-4800000D01*
X205000Y-4800000D02*
G01*
X305000Y-4800000D01*
D11*
X8925000Y-7120000D02*
G01*
X8925000Y-3595000D01*
D10*
X7090000Y-5910000D02*
G01*
X7090000Y-4460000D01*
X7110000Y-6130000D02*
G01*
X7110000Y-4445000D01*
X7130000Y-6155000D02*
G01*
X7130000Y-4460000D01*
X7150000Y-6180000D02*
G01*
X7150000Y-4445000D01*
X7170000Y-6350000D02*
G01*
X7170000Y-4460000D01*
X7190000Y-6630000D02*
G01*
X7190000Y-4445000D01*
X7210000Y-6680000D02*
G01*
X7210000Y-4460000D01*
X7355000Y-6765000D02*
G01*
X7355000Y-4345000D01*
X7395000Y-6860000D02*
G01*
X7395000Y-4345000D01*
X7415000Y-6890000D02*
G01*
X7415000Y-4325000D01*
X7455000Y-6935000D02*
G01*
X7455000Y-4325000D01*
X7295000Y-6760000D02*
G01*
X7295000Y-4400000D01*
X7295000Y-4370000D01*
X7320000Y-6740000D02*
G01*
X7315000Y-5140000D01*
X7315000Y-4325000D01*
X7375000Y-6810000D02*
G01*
X7375000Y-4325000D01*
X7475000Y-6980000D02*
G01*
X7475000Y-4340000D01*
X7755000Y-4750000D02*
G01*
X7845000Y-4750000D01*
X5200000Y-2980000D02*
G01*
X5620348Y-2980000D01*
D11*
X3870000Y-2490000D02*
G01*
X3870000Y-2415000D01*
X4455000Y-2415000D01*
X4455000Y-2490000D01*
X3870000Y-2490000D02*
G01*
X3795000Y-2565000D01*
X3235000Y-2565000D01*
X3235000Y-2620000D01*
D10*
X2810000Y-3500000D02*
G01*
X2770000Y-3460000D01*
X925000Y-3460000D01*
X925000Y-3500000D01*
X205000Y-3500000D02*
G01*
X245000Y-3540000D01*
X1450000Y-3540000D01*
X1490000Y-3500000D01*
X1505000Y-3500000D01*
X1505000Y-3500000D02*
G01*
X1545000Y-3540000D01*
X2660000Y-3540000D01*
X2700000Y-3500000D01*
X2710000Y-3500000D01*
X3605000Y-5415000D02*
G01*
X3605000Y-5965000D01*
X4290000Y-5965000D02*
G01*
X4115000Y-5965000D01*
X5845000Y-6085000D02*
G01*
X5845000Y-6475000D01*
X5710000Y-6610000D01*
X5710000Y-6730000D01*
X5760200Y-6780200D01*
X5760200Y-6815000D01*
X4440000Y-2725000D02*
G01*
X4640000Y-2925000D01*
X4860000Y-2925000D01*
X4455000Y-2705000D02*
G01*
X4640000Y-2890000D01*
X5137393Y-3327393D02*
G01*
X5117393Y-3327393D01*
X4805000Y-3015000D01*
X4470000Y-2685000D02*
G01*
X4620000Y-2835000D01*
X5138292Y-3358292D02*
G01*
X5118292Y-3358292D01*
X4795000Y-3035000D01*
X4190000Y-3260000D02*
G01*
X4190000Y-3175000D01*
D11*
X4460000Y-2415000D02*
G01*
X4595000Y-2415000D01*
X4595000Y-1900000D01*
D10*
X4040000Y-2587500D02*
G01*
X4040000Y-2795000D01*
X4065000Y-2600000D02*
G01*
X4065000Y-2775000D01*
X4085000Y-2575000D02*
G01*
X4085000Y-2755000D01*
X4105000Y-2550000D02*
G01*
X4105000Y-2730000D01*
X4230000Y-2595000D02*
G01*
X4230000Y-2725000D01*
X4015000Y-2940000D01*
X5130000Y-3535000D02*
G01*
X5130000Y-3400000D01*
X4735000Y-3005000D01*
X4650000Y-3005000D01*
X4570000Y-2925000D01*
X4515000Y-2870000D01*
X5137299Y-3572300D02*
G01*
X5110000Y-3572300D01*
X5110000Y-3410000D01*
X4735000Y-3035000D01*
X4640000Y-3035000D01*
X4535000Y-2930000D01*
X4575000Y-2670000D02*
G01*
X4900000Y-2670000D01*
X5137294Y-3602294D02*
G01*
X5090000Y-3600000D01*
X5090000Y-3420000D01*
X4735000Y-3065000D01*
X4595000Y-3065000D01*
X4919794Y-3019794D02*
G01*
X5134794Y-3234794D01*
X4914182Y-3049155D02*
G01*
X5132961Y-3267935D01*
X4950000Y-3515000D02*
G01*
X4950000Y-3510000D01*
X4780000Y-3340000D01*
X5135000Y-3630000D02*
G01*
X5100000Y-3630000D01*
X5070000Y-3630000D01*
X5070000Y-3430000D01*
X4995000Y-3355000D01*
X5137461Y-3667460D02*
G01*
X5055000Y-3667460D01*
X5055000Y-3470000D01*
X4950000Y-3365000D01*
X4885000Y-1663701D02*
G01*
X4885000Y-1780000D01*
X3930000Y-1780000D01*
X3925000Y-2320000D01*
X3810000Y-2320000D01*
X3810000Y-2430000D01*
X3775000Y-2700000D02*
G01*
X3775000Y-2700000D01*
X3935856Y-2700000D01*
X2710000Y-2500000D02*
G01*
X2760000Y-2550000D01*
X3195000Y-2550000D01*
X3230000Y-2515000D01*
X3370000Y-2515000D01*
X2810000Y-2500000D02*
G01*
X3190000Y-2500000D01*
X3225000Y-2465000D01*
X3540000Y-2465000D01*
D11*
X2485000Y-4955000D02*
G01*
X2485000Y-5775000D01*
X2445000Y-5815000D01*
X2445000Y-6060000D01*
D10*
X2935000Y-3125000D02*
G01*
X2935000Y-3175000D01*
X2935000Y-3220000D02*
G01*
X2935000Y-3575000D01*
X2975000Y-5660000D02*
G01*
X2860000Y-5660000D01*
X2970000Y-3125000D02*
G01*
X2970000Y-3175000D01*
X2970000Y-3225000D02*
G01*
X2970000Y-3575000D01*
X3370000Y-2915000D02*
G01*
X3195000Y-2915000D01*
X3370000Y-3015000D02*
G01*
X3200000Y-3015000D01*
X2995000Y-3125000D02*
G01*
X2995000Y-3175000D01*
X3020000Y-3125000D02*
G01*
X3020000Y-3175000D01*
X3020000Y-3225000D02*
G01*
X3020000Y-3575000D01*
X2995000Y-3225000D02*
G01*
X2995000Y-3545000D01*
X2995000Y-3575000D01*
X2560000Y-6360000D02*
G01*
X2620000Y-6360000D01*
X2620000Y-6010000D01*
X3030000Y-6010000D02*
G01*
X2745000Y-6010000D01*
X2620000Y-6010000D01*
X3055000Y-6110000D02*
G01*
X2650000Y-6110000D01*
X2650000Y-6460000D01*
X2560000Y-6460000D01*
X2545000Y-4955000D02*
G01*
X2545000Y-5135000D01*
X2195000Y-5470000D02*
G01*
X2195000Y-5525000D01*
X2195000Y-5575000D02*
G01*
X2195000Y-6000000D01*
X2000000Y-6000000D01*
X3090000Y-5710000D02*
G01*
X2655000Y-5710000D01*
X1960000Y-5650000D02*
G01*
X1500000Y-5650000D01*
X1450000Y-5600000D01*
X3095000Y-5610000D02*
G01*
X2655000Y-5610000D01*
X3105000Y-5910000D02*
G01*
X2650000Y-5910000D01*
X1045000Y-5950000D02*
G01*
X1045000Y-5605000D01*
X910000Y-5605000D01*
D11*
X2860000Y-6460000D02*
G01*
X2700000Y-6620000D01*
X2355000Y-6620000D01*
X2355000Y-6060000D01*
X2445000Y-6060000D01*
D10*
X8375000Y-3965000D02*
G01*
X8225000Y-3965000D01*
X8225000Y-3875000D01*
D12*
G01*
X2445000Y-6060000D03*
G01*
X2445000Y-6160000D03*
G01*
X2295000Y-5180000D03*
G01*
X2195000Y-5180000D03*
G01*
X1750000Y-5180000D03*
G01*
X1650000Y-5180000D03*
G01*
X1205000Y-5180000D03*
G01*
X1105000Y-5180000D03*
D13*
G01*
X3005000Y-6260000D03*
G01*
X3405000Y-6260000D03*
D14*
G01*
X2860000Y-5460000D03*
G01*
X2860000Y-5560000D03*
G01*
X2860000Y-5660000D03*
G01*
X2860000Y-5760000D03*
G01*
X2860000Y-5860000D03*
G01*
X2860000Y-5960000D03*
G01*
X2860000Y-6060000D03*
G01*
X2560000Y-6060000D03*
G01*
X2860000Y-5360000D03*
G01*
X2860000Y-5260000D03*
G01*
X2560000Y-5960000D03*
G01*
X2560000Y-5860000D03*
G01*
X2560000Y-5760000D03*
G01*
X2560000Y-5660000D03*
G01*
X2560000Y-5560000D03*
G01*
X2560000Y-5460000D03*
G01*
X2560000Y-5360000D03*
D15*
G01*
X2560000Y-5260000D03*
D14*
G01*
X2560000Y-6160000D03*
G01*
X2560000Y-6260000D03*
G01*
X2560000Y-6360000D03*
G01*
X2560000Y-6460000D03*
G01*
X2560000Y-6560000D03*
G01*
X2860000Y-6560000D03*
G01*
X2860000Y-6460000D03*
G01*
X2860000Y-6360000D03*
G01*
X2860000Y-6260000D03*
G01*
X2860000Y-6160000D03*
D16*
G01*
X910000Y-5305000D03*
G01*
X910000Y-5405000D03*
G01*
X910000Y-5505000D03*
G01*
X910000Y-5605000D03*
G01*
X910000Y-5705000D03*
G01*
X910000Y-5805000D03*
G01*
X910000Y-5905000D03*
G01*
X910000Y-6005000D03*
G01*
X1210000Y-5305000D03*
G01*
X1210000Y-5405000D03*
G01*
X1210000Y-5505000D03*
G01*
X1210000Y-5605000D03*
G01*
X1210000Y-5705000D03*
G01*
X1210000Y-5805000D03*
G01*
X1210000Y-5905000D03*
G01*
X1210000Y-6005000D03*
G01*
X1450000Y-5300000D03*
G01*
X1450000Y-5400000D03*
G01*
X1450000Y-5500000D03*
G01*
X1450000Y-5600000D03*
G01*
X1450000Y-5700000D03*
G01*
X1450000Y-5800000D03*
G01*
X1450000Y-5900000D03*
G01*
X1450000Y-6000000D03*
G01*
X1750000Y-5300000D03*
G01*
X1750000Y-5400000D03*
G01*
X1750000Y-5500000D03*
G01*
X1750000Y-5600000D03*
G01*
X1750000Y-5700000D03*
G01*
X1750000Y-5800000D03*
G01*
X1750000Y-5900000D03*
G01*
X1750000Y-6000000D03*
G01*
X2000000Y-5300000D03*
G01*
X2000000Y-5400000D03*
G01*
X2000000Y-5500000D03*
G01*
X2000000Y-5600000D03*
G01*
X2000000Y-5700000D03*
G01*
X2000000Y-5800000D03*
G01*
X2000000Y-5900000D03*
G01*
X2000000Y-6000000D03*
G01*
X2300000Y-5300000D03*
G01*
X2300000Y-5400000D03*
G01*
X2300000Y-5500000D03*
G01*
X2300000Y-5600000D03*
G01*
X2300000Y-5700000D03*
G01*
X2300000Y-5800000D03*
G01*
X2300000Y-5900000D03*
G01*
X2300000Y-6000000D03*
D17*
G01*
X8015000Y-2470000D03*
G01*
X8015000Y-2370000D03*
G01*
X8015000Y-2270000D03*
G01*
X8015000Y-2170000D03*
G01*
X8015000Y-2070000D03*
D18*
G01*
X8015000Y-1970000D03*
D19*
G01*
X5920000Y-9310000D03*
G01*
X5820000Y-9310000D03*
G01*
X5720000Y-9310000D03*
G01*
X5620000Y-9310000D03*
G01*
X5520000Y-9310000D03*
D20*
G01*
X5420000Y-9310000D03*
D19*
G01*
X4540000Y-9310000D03*
G01*
X4440000Y-9310000D03*
G01*
X4340000Y-9310000D03*
G01*
X4240000Y-9310000D03*
G01*
X4140000Y-9310000D03*
D20*
G01*
X4040000Y-9310000D03*
D21*
G01*
X8135000Y-7740000D03*
G01*
X8085000Y-7740000D03*
D22*
G01*
X8035000Y-7740000D03*
D21*
G01*
X7690000Y-7740000D03*
G01*
X7640000Y-7740000D03*
D22*
G01*
X7590000Y-7740000D03*
D12*
G01*
X4240000Y-9105000D03*
G01*
X4140000Y-9105000D03*
G01*
X4240000Y-8915000D03*
G01*
X4140000Y-8915000D03*
D13*
G01*
X4250000Y-5595000D03*
G01*
X4650000Y-5595000D03*
G01*
X1985000Y-7880000D03*
G01*
X1985000Y-7480000D03*
G01*
X6020000Y-8365000D03*
G01*
X6020000Y-8765000D03*
D23*
G01*
X7635000Y-8595020D03*
D24*
G01*
X7635000Y-8495020D03*
D25*
G01*
X2810000Y-1000000D03*
G01*
X2810000Y-4700000D03*
G01*
X2810000Y-4600000D03*
G01*
X2810000Y-4500000D03*
G01*
X2810000Y-4400000D03*
G01*
X2810000Y-4300000D03*
G01*
X2810000Y-4200000D03*
G01*
X2810000Y-4100000D03*
G01*
X2810000Y-4000000D03*
G01*
X2810000Y-3900000D03*
G01*
X2810000Y-3800000D03*
G01*
X2810000Y-3700000D03*
G01*
X2810000Y-3600000D03*
G01*
X2810000Y-3500000D03*
G01*
X2810000Y-3400000D03*
G01*
X2810000Y-3300000D03*
G01*
X2810000Y-3200000D03*
G01*
X2810000Y-3100000D03*
G01*
X2810000Y-3000000D03*
G01*
X2810000Y-2900000D03*
G01*
X2810000Y-2800000D03*
G01*
X2810000Y-2700000D03*
G01*
X2810000Y-2600000D03*
G01*
X2810000Y-2500000D03*
G01*
X2810000Y-2400000D03*
G01*
X2810000Y-2300000D03*
G01*
X2810000Y-2200000D03*
G01*
X2810000Y-2100000D03*
G01*
X2810000Y-2000000D03*
G01*
X2810000Y-1900000D03*
G01*
X2810000Y-1800000D03*
G01*
X2810000Y-1700000D03*
G01*
X2810000Y-1600000D03*
G01*
X2810000Y-1500000D03*
G01*
X2810000Y-1400000D03*
G01*
X2810000Y-1300000D03*
G01*
X2810000Y-1200000D03*
G01*
X2810000Y-1100000D03*
G01*
X2810000Y-4800000D03*
G01*
X2810000Y-4900000D03*
G01*
X2710000Y-1000000D03*
G01*
X2710000Y-4700000D03*
G01*
X2710000Y-4600000D03*
G01*
X2710000Y-4500000D03*
G01*
X2710000Y-4400000D03*
G01*
X2710000Y-4300000D03*
G01*
X2710000Y-4200000D03*
G01*
X2710000Y-4100000D03*
G01*
X2710000Y-4000000D03*
G01*
X2710000Y-3900000D03*
G01*
X2710000Y-3800000D03*
G01*
X2710000Y-3700000D03*
G01*
X2710000Y-3600000D03*
G01*
X2710000Y-3500000D03*
G01*
X2710000Y-3400000D03*
G01*
X2710000Y-3300000D03*
G01*
X2710000Y-3200000D03*
G01*
X2710000Y-3100000D03*
G01*
X2710000Y-3000000D03*
G01*
X2710000Y-2900000D03*
G01*
X2710000Y-2800000D03*
G01*
X2710000Y-2700000D03*
G01*
X2710000Y-2600000D03*
G01*
X2710000Y-2500000D03*
G01*
X2710000Y-2400000D03*
G01*
X2710000Y-2300000D03*
G01*
X2710000Y-2200000D03*
G01*
X2710000Y-2100000D03*
G01*
X2710000Y-2000000D03*
G01*
X2710000Y-1900000D03*
G01*
X2710000Y-1800000D03*
G01*
X2710000Y-1700000D03*
G01*
X2710000Y-1600000D03*
G01*
X2710000Y-1500000D03*
G01*
X2710000Y-1400000D03*
G01*
X2710000Y-1300000D03*
G01*
X2710000Y-1200000D03*
G01*
X2710000Y-1100000D03*
G01*
X2710000Y-4800000D03*
G01*
X2710000Y-4900000D03*
G01*
X1605000Y-1000000D03*
G01*
X1605000Y-4700000D03*
G01*
X1605000Y-4600000D03*
G01*
X1605000Y-4500000D03*
G01*
X1605000Y-4400000D03*
G01*
X1605000Y-4300000D03*
G01*
X1605000Y-4200000D03*
G01*
X1605000Y-4100000D03*
G01*
X1605000Y-4000000D03*
G01*
X1605000Y-3900000D03*
G01*
X1605000Y-3800000D03*
G01*
X1605000Y-3700000D03*
G01*
X1605000Y-3600000D03*
G01*
X1605000Y-3500000D03*
G01*
X1605000Y-3400000D03*
G01*
X1605000Y-3300000D03*
G01*
X1605000Y-3200000D03*
G01*
X1605000Y-3100000D03*
G01*
X1605000Y-3000000D03*
G01*
X1605000Y-2900000D03*
G01*
X1605000Y-2800000D03*
G01*
X1605000Y-2700000D03*
G01*
X1605000Y-2600000D03*
G01*
X1605000Y-2500000D03*
G01*
X1605000Y-2400000D03*
G01*
X1605000Y-2300000D03*
G01*
X1605000Y-2200000D03*
G01*
X1605000Y-2100000D03*
G01*
X1605000Y-2000000D03*
G01*
X1605000Y-1900000D03*
G01*
X1605000Y-1800000D03*
G01*
X1605000Y-1700000D03*
G01*
X1605000Y-1600000D03*
G01*
X1605000Y-1500000D03*
G01*
X1605000Y-1400000D03*
G01*
X1605000Y-1300000D03*
G01*
X1605000Y-1200000D03*
G01*
X1605000Y-1100000D03*
G01*
X1605000Y-4800000D03*
G01*
X1605000Y-4900000D03*
G01*
X1505000Y-1000000D03*
G01*
X1505000Y-4700000D03*
G01*
X1505000Y-4600000D03*
G01*
X1505000Y-4500000D03*
G01*
X1505000Y-4400000D03*
G01*
X1505000Y-4300000D03*
G01*
X1505000Y-4200000D03*
G01*
X1505000Y-4100000D03*
G01*
X1505000Y-4000000D03*
G01*
X1505000Y-3900000D03*
G01*
X1505000Y-3800000D03*
G01*
X1505000Y-3700000D03*
G01*
X1505000Y-3600000D03*
G01*
X1505000Y-3500000D03*
G01*
X1505000Y-3400000D03*
G01*
X1505000Y-3300000D03*
G01*
X1505000Y-3200000D03*
G01*
X1505000Y-3100000D03*
G01*
X1505000Y-3000000D03*
G01*
X1505000Y-2900000D03*
G01*
X1505000Y-2800000D03*
G01*
X1505000Y-2700000D03*
G01*
X1505000Y-2600000D03*
G01*
X1505000Y-2500000D03*
G01*
X1505000Y-2400000D03*
G01*
X1505000Y-2300000D03*
G01*
X1505000Y-2200000D03*
G01*
X1505000Y-2100000D03*
G01*
X1505000Y-2000000D03*
G01*
X1505000Y-1900000D03*
G01*
X1505000Y-1800000D03*
G01*
X1505000Y-1700000D03*
G01*
X1505000Y-1600000D03*
G01*
X1505000Y-1500000D03*
G01*
X1505000Y-1400000D03*
G01*
X1505000Y-1300000D03*
G01*
X1505000Y-1200000D03*
G01*
X1505000Y-1100000D03*
G01*
X1505000Y-4800000D03*
G01*
X1505000Y-4900000D03*
G01*
X305000Y-1000000D03*
G01*
X305000Y-4700000D03*
G01*
X305000Y-4600000D03*
G01*
X305000Y-4500000D03*
G01*
X305000Y-4400000D03*
G01*
X305000Y-4300000D03*
G01*
X305000Y-4200000D03*
G01*
X305000Y-4100000D03*
G01*
X305000Y-4000000D03*
G01*
X305000Y-3900000D03*
G01*
X305000Y-3800000D03*
G01*
X305000Y-3700000D03*
G01*
X305000Y-3600000D03*
G01*
X305000Y-3500000D03*
G01*
X305000Y-3400000D03*
G01*
X305000Y-3300000D03*
G01*
X305000Y-3200000D03*
G01*
X305000Y-3100000D03*
G01*
X305000Y-3000000D03*
G01*
X305000Y-2900000D03*
G01*
X305000Y-2800000D03*
G01*
X305000Y-2700000D03*
G01*
X305000Y-2600000D03*
G01*
X305000Y-2500000D03*
G01*
X305000Y-2400000D03*
G01*
X305000Y-2300000D03*
G01*
X305000Y-2200000D03*
G01*
X305000Y-2100000D03*
G01*
X305000Y-2000000D03*
G01*
X305000Y-1900000D03*
G01*
X305000Y-1800000D03*
G01*
X305000Y-1700000D03*
G01*
X305000Y-1600000D03*
G01*
X305000Y-1500000D03*
G01*
X305000Y-1400000D03*
G01*
X305000Y-1300000D03*
G01*
X305000Y-1200000D03*
G01*
X305000Y-1100000D03*
G01*
X305000Y-4800000D03*
G01*
X305000Y-4900000D03*
G01*
X205000Y-1000000D03*
G01*
X205000Y-4700000D03*
G01*
X205000Y-4600000D03*
G01*
X205000Y-4500000D03*
G01*
X205000Y-4400000D03*
G01*
X205000Y-4300000D03*
G01*
X205000Y-4200000D03*
G01*
X205000Y-4100000D03*
G01*
X205000Y-4000000D03*
G01*
X205000Y-3900000D03*
G01*
X205000Y-3800000D03*
G01*
X205000Y-3700000D03*
G01*
X205000Y-3600000D03*
G01*
X205000Y-3500000D03*
G01*
X205000Y-3400000D03*
G01*
X205000Y-3300000D03*
G01*
X205000Y-3200000D03*
G01*
X205000Y-3100000D03*
G01*
X205000Y-3000000D03*
G01*
X205000Y-2900000D03*
G01*
X205000Y-2800000D03*
G01*
X205000Y-2700000D03*
G01*
X205000Y-2600000D03*
G01*
X205000Y-2500000D03*
G01*
X205000Y-2400000D03*
G01*
X205000Y-2300000D03*
G01*
X205000Y-2200000D03*
G01*
X205000Y-2100000D03*
G01*
X205000Y-2000000D03*
G01*
X205000Y-1900000D03*
G01*
X205000Y-1800000D03*
G01*
X205000Y-1700000D03*
G01*
X205000Y-1600000D03*
G01*
X205000Y-1500000D03*
G01*
X205000Y-1400000D03*
G01*
X205000Y-1300000D03*
G01*
X205000Y-1200000D03*
G01*
X205000Y-1100000D03*
G01*
X205000Y-4800000D03*
G01*
X205000Y-4900000D03*
D26*
G01*
X3445000Y-7815000D03*
G01*
X3445000Y-8215000D03*
D27*
G01*
X7796300Y-7465000D03*
G01*
X8083699Y-7465000D03*
G01*
X7356300Y-7470000D03*
G01*
X7643699Y-7470000D03*
D12*
G01*
X1890000Y-2700000D03*
G01*
X1890000Y-2600000D03*
G01*
X555000Y-2700000D03*
G01*
X555000Y-2600000D03*
D28*
G01*
X9090000Y-9175000D03*
G01*
X8920000Y-9175000D03*
G01*
X8760000Y-9175000D03*
G01*
X8590000Y-9175000D03*
G01*
X8430000Y-9175000D03*
G01*
X8260000Y-9175000D03*
G01*
X8100000Y-9175000D03*
G01*
X7930000Y-9175000D03*
G01*
X7770000Y-9175000D03*
G01*
X7600000Y-9175000D03*
G01*
X7440000Y-9175000D03*
G01*
X7270000Y-9175000D03*
G01*
X9090000Y-8975000D03*
G01*
X8920000Y-8975000D03*
G01*
X8760000Y-8975000D03*
G01*
X8590000Y-8975000D03*
G01*
X8430000Y-8975000D03*
G01*
X8260000Y-8975000D03*
G01*
X8100000Y-8975000D03*
G01*
X7930000Y-8975000D03*
G01*
X7770000Y-8975000D03*
G01*
X7600000Y-8975000D03*
G01*
X7440000Y-8975000D03*
G01*
X7270000Y-8975000D03*
D12*
G01*
X8225000Y-3875000D03*
G01*
X8325000Y-3875000D03*
D13*
G01*
X5020000Y-8715000D03*
G01*
X5420000Y-8715000D03*
D29*
G01*
X6765000Y-7040000D03*
D12*
G01*
X6665000Y-7040000D03*
G01*
X6565000Y-7040000D03*
G01*
X6465000Y-7040000D03*
G01*
X6365000Y-7040000D03*
G01*
X6265000Y-7040000D03*
G01*
X6165000Y-7040000D03*
G01*
X6065000Y-7040000D03*
G01*
X5965000Y-7040000D03*
G01*
X5865000Y-7040000D03*
G01*
X5765000Y-7040000D03*
G01*
X5665000Y-7040000D03*
G01*
X5565000Y-7040000D03*
G01*
X5465000Y-7040000D03*
G01*
X5365000Y-7040000D03*
G01*
X5265000Y-7040000D03*
G01*
X5265000Y-7640000D03*
G01*
X5365000Y-7640000D03*
G01*
X5465000Y-7640000D03*
G01*
X5565000Y-7640000D03*
G01*
X5665000Y-7640000D03*
G01*
X5765000Y-7640000D03*
G01*
X5865000Y-7640000D03*
G01*
X5965000Y-7640000D03*
G01*
X6065000Y-7640000D03*
G01*
X6165000Y-7640000D03*
G01*
X6265000Y-7640000D03*
G01*
X6365000Y-7640000D03*
G01*
X6465000Y-7640000D03*
G01*
X6565000Y-7640000D03*
G01*
X6665000Y-7640000D03*
G01*
X6765000Y-7640000D03*
D30*
G01*
X8765000Y-4174560D03*
D31*
G01*
X8765000Y-3875399D03*
D32*
G01*
X1355000Y-9305000D03*
D33*
G01*
X1355000Y-9205000D03*
D32*
G01*
X1245000Y-9305000D03*
D33*
G01*
X1245000Y-9205000D03*
D32*
G01*
X1135000Y-9305000D03*
D33*
G01*
X1135000Y-9205000D03*
D34*
G01*
X7660000Y-4497500D03*
G01*
X7660000Y-5322500D03*
D32*
G01*
X7445000Y-8045000D03*
D33*
G01*
X7445000Y-8145000D03*
D35*
G01*
X9398000Y-225000D03*
G01*
X8863999Y-225000D03*
D36*
G01*
X9130000Y-193000D03*
D37*
G01*
X9181000Y-343000D03*
G01*
X9078999Y-343000D03*
G01*
X8996000Y-343000D03*
G01*
X9263999Y-343000D03*
G01*
X9263999Y-440999D03*
G01*
X8996000Y-439000D03*
D35*
G01*
X8568000Y-225000D03*
G01*
X8033999Y-225000D03*
D36*
G01*
X8300000Y-193000D03*
D37*
G01*
X8351000Y-343000D03*
G01*
X8248999Y-343000D03*
G01*
X8166000Y-343000D03*
G01*
X8433999Y-343000D03*
G01*
X8433999Y-440999D03*
G01*
X8166000Y-439000D03*
D38*
G01*
X7802129Y-435030D03*
G01*
X6817870Y-435030D03*
D39*
G01*
X7509309Y-535030D03*
G01*
X7420730Y-535030D03*
G01*
X7332150Y-535030D03*
G01*
X7243570Y-535030D03*
G01*
X7154979Y-535030D03*
G01*
X7465020Y-435030D03*
G01*
X7376440Y-435030D03*
G01*
X7287860Y-435030D03*
G01*
X7199279Y-435030D03*
G01*
X7110690Y-435030D03*
G01*
X7509309Y-335030D03*
G01*
X7420730Y-335030D03*
G01*
X7332150Y-335030D03*
G01*
X7243570Y-335030D03*
G01*
X7154979Y-335030D03*
D40*
G01*
X8575000Y-7510000D03*
D41*
G01*
X8585000Y-7650000D03*
G01*
X8575000Y-7800000D03*
D13*
G01*
X8330000Y-7395000D03*
G01*
X8330000Y-7795000D03*
G01*
X8855000Y-7794979D03*
G01*
X8855000Y-7394979D03*
D40*
G01*
X3870000Y-1905000D03*
D41*
G01*
X4010000Y-1895000D03*
G01*
X4160000Y-1905000D03*
D40*
G01*
X4455000Y-1910000D03*
D41*
G01*
X4595000Y-1900000D03*
G01*
X4745000Y-1910000D03*
D13*
G01*
X4165000Y-2505010D03*
G01*
X4165000Y-2105010D03*
G01*
X3870000Y-2490000D03*
G01*
X3870000Y-2090000D03*
G01*
X4755000Y-2490000D03*
G01*
X4755000Y-2090000D03*
G01*
X4455000Y-2490000D03*
G01*
X4455000Y-2090000D03*
D12*
G01*
X5905000Y-4795000D03*
G01*
X5905000Y-4695000D03*
G01*
X5880000Y-4230000D03*
G01*
X5980000Y-4230000D03*
G01*
X5695000Y-5815000D03*
G01*
X5795000Y-5815000D03*
G01*
X4620000Y-6850000D03*
G01*
X4520000Y-6850000D03*
G01*
X6770000Y-7760000D03*
G01*
X6670000Y-7760000D03*
G01*
X5650000Y-4475000D03*
G01*
X5750000Y-4475000D03*
G01*
X5355000Y-4475000D03*
G01*
X5455000Y-4475000D03*
G01*
X5520000Y-9070000D03*
G01*
X5420000Y-9070000D03*
G01*
X5520000Y-8870000D03*
G01*
X5420000Y-8870000D03*
G01*
X3235000Y-2620000D03*
G01*
X3235000Y-2720000D03*
D42*
G01*
X5705000Y-1809369D03*
G01*
X5705000Y-1730630D03*
D43*
G01*
X4635000Y-848739D03*
D13*
G01*
X4635000Y-687319D03*
D27*
G01*
X5475789Y-935000D03*
G01*
X5574210Y-935000D03*
G01*
X4885000Y-1376300D03*
G01*
X4885000Y-1663699D03*
G01*
X4415000Y-1658699D03*
G01*
X4415000Y-1371300D03*
G01*
X5755000Y-1211300D03*
G01*
X5755000Y-1498699D03*
G01*
X5236300Y-2325000D03*
G01*
X5523699Y-2325000D03*
D44*
G01*
X4930000Y-7048739D03*
G01*
X4930000Y-7391260D03*
G01*
X5080000Y-7048739D03*
G01*
X5080000Y-7391260D03*
G01*
X3583739Y-7675000D03*
G01*
X3926260Y-7675000D03*
D45*
G01*
X2720000Y-7880000D03*
G01*
X2720000Y-7580000D03*
G01*
X5825000Y-8370000D03*
G01*
X5825000Y-8670000D03*
D13*
G01*
X4820000Y-9243999D03*
G01*
X4820000Y-9343999D03*
G01*
X4920000Y-9243999D03*
G01*
X4920000Y-9343999D03*
D43*
G01*
X5020000Y-9243999D03*
D13*
G01*
X5020000Y-9343999D03*
D46*
G01*
X4835000Y-176500D03*
G01*
X4933000Y-373499D03*
G01*
X5031999Y-373499D03*
G01*
X4736999Y-373499D03*
G01*
X4638000Y-373499D03*
D27*
G01*
X1885000Y-8120000D03*
G01*
X1985000Y-8120000D03*
G01*
X1325000Y-8119979D03*
G01*
X1425000Y-8119979D03*
G01*
X685000Y-8110000D03*
G01*
X785000Y-8110000D03*
G01*
X2975000Y-8124979D03*
G01*
X3075000Y-8124979D03*
G01*
X2425000Y-8125000D03*
G01*
X2525000Y-8125000D03*
G01*
X5825000Y-8955000D03*
G01*
X5825000Y-8855000D03*
D47*
G01*
X5288270Y-1497170D03*
G01*
X5382759Y-1497170D03*
G01*
X5477240Y-1497170D03*
G01*
X5571729Y-1497170D03*
G01*
X5571729Y-1142840D03*
G01*
X5477240Y-1142840D03*
G01*
X5382759Y-1142840D03*
G01*
X5288270Y-1142840D03*
D44*
G01*
X7630000Y-1770000D03*
G01*
X7530000Y-1770000D03*
G01*
X7430000Y-1770000D03*
G01*
X7330000Y-1770000D03*
G01*
X7230000Y-1770000D03*
G01*
X7130000Y-1770000D03*
G01*
X7030000Y-1770000D03*
G01*
X6930000Y-1770000D03*
G01*
X6830000Y-1770000D03*
G01*
X6730000Y-1770000D03*
G01*
X6630000Y-1770000D03*
G01*
X6530000Y-1770000D03*
G01*
X6430000Y-1770000D03*
G01*
X6330000Y-1770000D03*
G01*
X6230000Y-1770000D03*
G01*
X6230000Y-2670000D03*
G01*
X6330000Y-2670000D03*
G01*
X6430000Y-2670000D03*
G01*
X6530000Y-2670000D03*
G01*
X6630000Y-2670000D03*
G01*
X6730000Y-2670000D03*
G01*
X6830000Y-2670000D03*
G01*
X6930000Y-2670000D03*
G01*
X7030000Y-2670000D03*
G01*
X7130000Y-2670000D03*
G01*
X7230000Y-2670000D03*
G01*
X7330000Y-2670000D03*
G01*
X7430000Y-2670000D03*
G01*
X7530000Y-2670000D03*
G01*
X7630000Y-2670000D03*
G01*
X7750000Y-2470000D03*
G01*
X7750000Y-2370000D03*
G01*
X7750000Y-2270000D03*
G01*
X7750000Y-2170000D03*
G01*
X7750000Y-2070000D03*
G01*
X7750000Y-1970000D03*
D48*
G01*
X7750000Y-2620000D03*
G01*
X7750000Y-1820000D03*
D44*
G01*
X5805000Y-425909D03*
D49*
G01*
X5312879Y-370010D03*
D44*
G01*
X5586890Y-425909D03*
G01*
X5695940Y-425909D03*
G01*
X5914049Y-425909D03*
D50*
G01*
X6023100Y-425900D03*
D44*
G01*
X5641409Y-314099D03*
G01*
X5750469Y-314099D03*
G01*
X5859520Y-314099D03*
G01*
X5968580Y-314099D03*
D49*
G01*
X6297129Y-370010D03*
D22*
G01*
X1185000Y-7325000D03*
D21*
G01*
X1235000Y-7325000D03*
G01*
X1285000Y-7325000D03*
D22*
G01*
X530000Y-7330000D03*
D21*
G01*
X580000Y-7330000D03*
G01*
X630000Y-7330000D03*
D40*
G01*
X6525000Y-2940010D03*
D41*
G01*
X6385000Y-2950010D03*
G01*
X6235000Y-2940010D03*
D40*
G01*
X7960000Y-2935000D03*
D41*
G01*
X7820000Y-2945000D03*
G01*
X7670000Y-2935000D03*
D40*
G01*
X7320000Y-2930000D03*
D41*
G01*
X7180000Y-2940000D03*
G01*
X7030000Y-2930000D03*
D40*
G01*
X8585000Y-8250000D03*
D41*
G01*
X8595000Y-8390000D03*
G01*
X8585000Y-8540000D03*
D13*
G01*
X4755000Y-7530000D03*
G01*
X4755000Y-7930000D03*
G01*
X4935000Y-7930000D03*
G01*
X4935000Y-7530000D03*
G01*
X1145000Y-7880000D03*
G01*
X1145000Y-7480000D03*
G01*
X1325000Y-7880000D03*
G01*
X1325000Y-7480000D03*
G01*
X505000Y-7880000D03*
G01*
X505000Y-7480000D03*
G01*
X685000Y-7879979D03*
G01*
X685000Y-7479979D03*
G01*
X5550000Y-5815000D03*
G01*
X5150000Y-5815000D03*
G01*
X2420000Y-7479979D03*
G01*
X2420000Y-7879979D03*
G01*
X2895000Y-7480000D03*
G01*
X2895000Y-7880000D03*
G01*
X3075000Y-7480000D03*
G01*
X3075000Y-7880000D03*
G01*
X6230000Y-3545010D03*
G01*
X6230000Y-3145010D03*
G01*
X6525000Y-3545000D03*
G01*
X6525000Y-3145000D03*
G01*
X7665000Y-3540000D03*
G01*
X7665000Y-3140000D03*
G01*
X7970000Y-3140000D03*
G01*
X7970000Y-3540000D03*
G01*
X7870000Y-795000D03*
G01*
X7870000Y-1195000D03*
G01*
X7695000Y-795000D03*
G01*
X7695000Y-1195000D03*
G01*
X7345000Y-795000D03*
G01*
X7345000Y-1195000D03*
G01*
X7525000Y-795000D03*
G01*
X7525000Y-1195000D03*
G01*
X6995000Y-795000D03*
G01*
X6995000Y-1195000D03*
G01*
X7175000Y-795000D03*
G01*
X7175000Y-1195000D03*
G01*
X6645000Y-795000D03*
G01*
X6645000Y-1195000D03*
G01*
X6820000Y-795000D03*
G01*
X6820000Y-1195000D03*
G01*
X8065000Y-1250000D03*
G01*
X8065000Y-1650000D03*
G01*
X8260000Y-1250000D03*
G01*
X8260000Y-1650000D03*
G01*
X8060000Y-710000D03*
G01*
X8060000Y-1110000D03*
G01*
X8255000Y-710000D03*
G01*
X8255000Y-1110000D03*
G01*
X8905000Y-1250000D03*
G01*
X8905000Y-1650000D03*
G01*
X9090000Y-1250000D03*
G01*
X9090000Y-1650000D03*
G01*
X8905000Y-710000D03*
G01*
X8905000Y-1110000D03*
G01*
X9085000Y-710000D03*
G01*
X9085000Y-1110000D03*
G01*
X4880000Y-850000D03*
G01*
X4880000Y-1250000D03*
G01*
X4415000Y-1250000D03*
G01*
X4415000Y-850000D03*
G01*
X5480000Y-1730000D03*
G01*
X5480000Y-2130000D03*
G01*
X5285000Y-2130000D03*
G01*
X5285000Y-1730000D03*
G01*
X5100000Y-2725000D03*
G01*
X5100000Y-2325000D03*
G01*
X6245000Y-4414989D03*
G01*
X6245000Y-4814989D03*
G01*
X6425000Y-4414989D03*
G01*
X6425000Y-4814989D03*
G01*
X6055000Y-4815000D03*
G01*
X6055000Y-4415000D03*
G01*
X3720000Y-8215000D03*
G01*
X3720000Y-7815000D03*
G01*
X3930000Y-8210000D03*
G01*
X3930000Y-7810000D03*
G01*
X635000Y-4975000D03*
G01*
X635000Y-5375000D03*
G01*
X455000Y-4975000D03*
G01*
X455000Y-5375000D03*
G01*
X7030000Y-3535010D03*
G01*
X7030000Y-3135010D03*
G01*
X7320000Y-3535000D03*
G01*
X7320000Y-3135000D03*
G01*
X7635000Y-8285000D03*
G01*
X8035000Y-8285000D03*
G01*
X8335000Y-8145000D03*
G01*
X8335000Y-8545000D03*
G01*
X8855000Y-8550000D03*
G01*
X8855000Y-8150000D03*
G01*
X3815000Y-2815000D03*
G01*
X3815000Y-3215000D03*
D44*
G01*
X2901999Y-8426400D03*
G01*
X2901999Y-8603599D03*
G01*
X3158000Y-8426400D03*
G01*
X3158000Y-8603599D03*
G01*
X3686999Y-8426380D03*
G01*
X3686999Y-8603580D03*
G01*
X3943000Y-8426380D03*
G01*
X3943000Y-8603580D03*
G01*
X4406999Y-8436400D03*
G01*
X4406999Y-8613599D03*
G01*
X4663000Y-8436400D03*
G01*
X4663000Y-8613599D03*
D51*
G01*
X4620000Y-7630000D03*
G01*
X4620000Y-7530000D03*
G01*
X4620000Y-7430000D03*
G01*
X4620000Y-7330000D03*
G01*
X4620000Y-7230000D03*
G01*
X4620000Y-7130000D03*
G01*
X4620000Y-7030000D03*
G01*
X4320000Y-7630000D03*
G01*
X4320000Y-7530000D03*
G01*
X4320000Y-7430000D03*
G01*
X4320000Y-7330000D03*
G01*
X4320000Y-7230000D03*
G01*
X4320000Y-7130000D03*
D52*
G01*
X4320000Y-7030000D03*
D44*
G01*
X4950000Y-4965000D03*
G01*
X5150000Y-4965000D03*
G01*
X5050000Y-4965000D03*
G01*
X5550000Y-4965000D03*
G01*
X5950000Y-4965000D03*
G01*
X6050000Y-4965000D03*
G01*
X6150000Y-4965000D03*
G01*
X6250000Y-4965000D03*
G01*
X6350000Y-4965000D03*
G01*
X6450000Y-4965000D03*
G01*
X6550000Y-4965000D03*
G01*
X6650000Y-4965000D03*
D50*
G01*
X6750000Y-4965000D03*
D44*
G01*
X5850000Y-4965000D03*
G01*
X5650000Y-4965000D03*
G01*
X5750000Y-4965000D03*
G01*
X5450000Y-4965000D03*
G01*
X5250000Y-4965000D03*
G01*
X5350000Y-4965000D03*
G01*
X4850000Y-4965000D03*
G01*
X6650000Y-5565000D03*
G01*
X6750000Y-5565000D03*
G01*
X6550000Y-5565000D03*
G01*
X6450000Y-5565000D03*
G01*
X5250000Y-5565000D03*
G01*
X5350000Y-5565000D03*
G01*
X5450000Y-5565000D03*
G01*
X5550000Y-5565000D03*
G01*
X5150000Y-5565000D03*
G01*
X5050000Y-5565000D03*
G01*
X4950000Y-5565000D03*
G01*
X4850000Y-5565000D03*
G01*
X5950000Y-5565000D03*
G01*
X5850000Y-5565000D03*
G01*
X5750000Y-5565000D03*
G01*
X5650000Y-5565000D03*
G01*
X6050000Y-5565000D03*
G01*
X6150000Y-5565000D03*
G01*
X6250000Y-5565000D03*
G01*
X6350000Y-5565000D03*
D40*
G01*
X8025000Y-4065000D03*
D41*
G01*
X8025000Y-4165000D03*
G01*
X8025000Y-4265000D03*
G01*
X8025000Y-4365000D03*
G01*
X8325000Y-4065000D03*
G01*
X8325000Y-4165000D03*
G01*
X8325000Y-4265000D03*
G01*
X8325000Y-4365000D03*
D14*
G01*
X3670000Y-2015000D03*
G01*
X3670000Y-2115000D03*
G01*
X3670000Y-2215000D03*
G01*
X3670000Y-2315000D03*
G01*
X3670000Y-2415000D03*
G01*
X3670000Y-2515000D03*
G01*
X3670000Y-2615000D03*
G01*
X3370000Y-2615000D03*
G01*
X3670000Y-1915000D03*
G01*
X3670000Y-1815000D03*
G01*
X3370000Y-2515000D03*
G01*
X3370000Y-2415000D03*
G01*
X3370000Y-2315000D03*
G01*
X3370000Y-2215000D03*
G01*
X3370000Y-2115000D03*
G01*
X3370000Y-2015000D03*
G01*
X3370000Y-1915000D03*
D15*
G01*
X3370000Y-1815000D03*
D14*
G01*
X3370000Y-2715000D03*
G01*
X3370000Y-2815000D03*
G01*
X3370000Y-2915000D03*
G01*
X3370000Y-3015000D03*
G01*
X3370000Y-3115000D03*
G01*
X3670000Y-3115000D03*
G01*
X3670000Y-3015000D03*
G01*
X3670000Y-2915000D03*
G01*
X3670000Y-2815000D03*
G01*
X3670000Y-2715000D03*
D53*
G01*
X5453540Y-4680000D03*
G01*
X5646459Y-4680000D03*
D54*
G01*
X7880000Y-4065000D03*
G01*
X7880000Y-4165000D03*
D32*
G01*
X5955000Y-785000D03*
D33*
G01*
X5955000Y-885000D03*
D32*
G01*
X5810000Y-785000D03*
D33*
G01*
X5810000Y-885000D03*
D32*
G01*
X1575000Y-9305000D03*
D33*
G01*
X1575000Y-9205000D03*
D32*
G01*
X1685000Y-9305000D03*
D33*
G01*
X1685000Y-9205000D03*
D32*
G01*
X1465000Y-9305000D03*
D33*
G01*
X1465000Y-9205000D03*
D55*
G01*
X5658599Y-6815000D03*
D56*
G01*
X5760200Y-6815000D03*
G01*
X5861800Y-6815000D03*
G01*
X5963400Y-6815000D03*
G01*
X6065000Y-6815000D03*
G01*
X6166599Y-6815000D03*
G01*
X6268199Y-6815000D03*
G01*
X6369799Y-6815000D03*
G01*
X6471400Y-6815000D03*
D55*
G01*
X6756400Y-5815000D03*
D56*
G01*
X6654799Y-5815000D03*
G01*
X6553199Y-5815000D03*
G01*
X6451599Y-5815000D03*
G01*
X6350000Y-5815000D03*
G01*
X6248400Y-5815000D03*
G01*
X6146800Y-5815000D03*
G01*
X6045200Y-5815000D03*
G01*
X5943599Y-5815000D03*
D29*
G01*
X6760000Y-6035000D03*
D12*
G01*
X6660000Y-6035000D03*
G01*
X6560000Y-6035000D03*
G01*
X6460000Y-6035000D03*
G01*
X6360000Y-6035000D03*
G01*
X6260000Y-6035000D03*
G01*
X6160000Y-6035000D03*
G01*
X6060000Y-6035000D03*
G01*
X5960000Y-6035000D03*
G01*
X5860000Y-6035000D03*
G01*
X5760000Y-6035000D03*
G01*
X5660000Y-6035000D03*
G01*
X5560000Y-6035000D03*
G01*
X5460000Y-6035000D03*
G01*
X5360000Y-6035000D03*
G01*
X5260000Y-6035000D03*
G01*
X5160000Y-6035000D03*
G01*
X5060000Y-6035000D03*
G01*
X4960000Y-6035000D03*
G01*
X4860000Y-6035000D03*
G01*
X4860000Y-6635000D03*
G01*
X4960000Y-6635000D03*
G01*
X5060000Y-6635000D03*
G01*
X5160000Y-6635000D03*
G01*
X5260000Y-6635000D03*
G01*
X5360000Y-6635000D03*
G01*
X5460000Y-6635000D03*
G01*
X5560000Y-6635000D03*
G01*
X5660000Y-6635000D03*
G01*
X5760000Y-6635000D03*
G01*
X5860000Y-6635000D03*
G01*
X5960000Y-6635000D03*
G01*
X6060000Y-6635000D03*
G01*
X6160000Y-6635000D03*
G01*
X6260000Y-6635000D03*
G01*
X6360000Y-6635000D03*
G01*
X6460000Y-6635000D03*
G01*
X6560000Y-6635000D03*
G01*
X6660000Y-6635000D03*
G01*
X6760000Y-6635000D03*
D57*
G01*
X5980000Y-4665000D03*
G01*
X7810000Y-8595000D03*
G01*
X7725000Y-8595000D03*
G01*
X1420000Y-4700000D03*
G01*
X2625000Y-4700000D03*
G01*
X4000000Y-2465000D03*
G01*
X4000000Y-2370000D03*
G01*
X318159Y-7330000D03*
G01*
X225000Y-7330000D03*
G01*
X7725000Y-8145000D03*
G01*
X7805000Y-8145000D03*
G01*
X7325000Y-8790000D03*
G01*
X7440000Y-8790000D03*
G01*
X7730000Y-8790000D03*
G01*
X7810000Y-8790000D03*
G01*
X7985000Y-8790000D03*
G01*
X8045000Y-8790000D03*
G01*
X5020000Y-8520000D03*
G01*
X5475000Y-9200000D03*
G01*
X5570000Y-9200000D03*
G01*
X5575000Y-9410000D03*
G01*
X5655000Y-9410000D03*
G01*
X5135000Y-1500000D03*
G01*
X5065000Y-1500000D03*
G01*
X3750000Y-2705000D03*
G01*
X3750000Y-2520000D03*
G01*
X7455000Y-2380000D03*
G01*
X7455000Y-2210000D03*
G01*
X4455000Y-2615000D03*
G01*
X5955000Y-2925000D03*
G01*
X5955000Y-2839569D03*
G01*
X5880000Y-2925000D03*
G01*
X5880000Y-2840000D03*
G01*
X8875000Y-975000D03*
G01*
X8800000Y-975000D03*
G01*
X7435000Y-1130000D03*
G01*
X7435000Y-1050000D03*
G01*
X8090000Y-1020000D03*
G01*
X8155000Y-1020000D03*
G01*
X8280000Y-1020000D03*
G01*
X8340000Y-1020000D03*
G01*
X8000000Y-1545000D03*
G01*
X7920000Y-1545000D03*
G01*
X7795000Y-1545000D03*
G01*
X7710000Y-1545000D03*
G01*
X7520000Y-1635000D03*
G01*
X7455000Y-1635000D03*
G01*
X6740000Y-2590000D03*
G01*
X5985000Y-2615000D03*
G01*
X5750000Y-2725000D03*
G01*
X9000000Y-3485000D03*
G01*
X9000000Y-3595000D03*
G01*
X7445000Y-7795000D03*
G01*
X7445000Y-7895000D03*
G01*
X6465000Y-7485000D03*
G01*
X6165000Y-7485000D03*
G01*
X6465000Y-7530000D03*
G01*
X6665000Y-6965000D03*
G01*
X7480000Y-2870000D03*
G01*
X7080000Y-2590000D03*
G01*
X7080000Y-2465000D03*
G01*
X6985000Y-2370000D03*
G01*
X6085000Y-1905000D03*
G01*
X6085000Y-1850000D03*
G01*
X5985000Y-1050000D03*
G01*
X5870000Y-1050000D03*
G01*
X5800000Y-2925000D03*
G01*
X5800000Y-2840000D03*
G01*
X5800000Y-2630000D03*
G01*
X5800000Y-2545000D03*
G01*
X5820000Y-1115000D03*
G01*
X5820000Y-1065000D03*
G01*
X5705000Y-2925000D03*
G01*
X5705000Y-2840000D03*
G01*
X5705000Y-2755000D03*
G01*
X5705000Y-2690000D03*
G01*
X5905000Y-2595000D03*
G01*
X5840000Y-2595000D03*
G01*
X8505000Y-7843289D03*
G01*
X8505000Y-7755000D03*
G01*
X8505000Y-7220000D03*
G01*
X8505000Y-7115000D03*
G01*
X9015000Y-7840000D03*
G01*
X9015000Y-7750000D03*
G01*
X8925000Y-7225000D03*
G01*
X8925000Y-7120000D03*
G01*
X8925000Y-3595000D03*
G01*
X8925000Y-3485000D03*
G01*
X7960000Y-2815000D03*
G01*
X7960000Y-2717120D03*
G01*
X8455000Y-7115000D03*
G01*
X6415000Y-3690000D03*
G01*
X6415000Y-3570000D03*
G01*
X6330000Y-2895000D03*
G01*
X8085000Y-7115000D03*
G01*
X6350000Y-3690000D03*
G01*
X6350000Y-3570000D03*
G01*
X6290000Y-2895000D03*
G01*
X4760000Y-9445000D03*
G01*
X4190000Y-8755000D03*
G01*
X4290000Y-8755000D03*
G01*
X1770000Y-9144080D03*
G01*
X4190000Y-8690000D03*
G01*
X4305000Y-8575000D03*
G01*
X2765000Y-7180000D03*
G01*
X2680000Y-7180000D03*
G01*
X2675000Y-7405000D03*
G01*
X2760000Y-7405000D03*
G01*
X7325000Y-8840000D03*
G01*
X1355000Y-9530000D03*
G01*
X3375000Y-9485000D03*
G01*
X3485000Y-9485000D03*
G01*
X7365000Y-8265000D03*
G01*
X4190000Y-8385000D03*
G01*
X4115000Y-8460000D03*
G01*
X4100000Y-4030000D03*
G01*
X4245000Y-4030000D03*
G01*
X4945000Y-4805000D03*
G01*
X4115000Y-5030000D03*
G01*
X4030000Y-6030000D03*
G01*
X4000000Y-5430000D03*
G01*
X3975000Y-5405000D03*
G01*
X3950000Y-5370000D03*
G01*
X3925000Y-5340000D03*
G01*
X3900000Y-5305000D03*
G01*
X3875000Y-5270000D03*
G01*
X3850000Y-4885000D03*
G01*
X5500000Y-4808809D03*
G01*
X4105000Y-7180000D03*
G01*
X4105000Y-7280000D03*
G01*
X4555000Y-7280600D03*
G01*
X4555000Y-7279470D03*
G01*
X4840000Y-7030000D03*
G01*
X5875000Y-5895000D03*
G01*
X5450000Y-5900000D03*
G01*
X4960000Y-5905000D03*
G01*
X5020000Y-5690000D03*
G01*
X6880000Y-7525000D03*
G01*
X6745000Y-6545000D03*
G01*
X6525000Y-6409890D03*
G01*
X6560000Y-6350000D03*
G01*
X6415000Y-6350000D03*
G01*
X5060000Y-5735000D03*
G01*
X5250000Y-5735000D03*
G01*
X6210000Y-6095000D03*
G01*
X5660000Y-5635000D03*
G01*
X5390000Y-5655000D03*
G01*
X5495000Y-5680000D03*
G01*
X5300000Y-5030000D03*
G01*
X6405000Y-6285000D03*
G01*
X5160000Y-6285000D03*
G01*
X5115000Y-6220000D03*
G01*
X5260000Y-6220000D03*
G01*
X5100000Y-7120000D03*
G01*
X6855000Y-5960000D03*
G01*
X6855000Y-6060000D03*
G01*
X6810000Y-7170000D03*
G01*
X5350000Y-5690000D03*
G01*
X5595000Y-5620000D03*
G01*
X5615000Y-6550000D03*
G01*
X5265000Y-6700000D03*
G01*
X5845000Y-6085000D03*
G01*
X5360000Y-6550000D03*
G01*
X5515000Y-6550000D03*
G01*
X6010000Y-7100000D03*
G01*
X6165000Y-7435000D03*
G01*
X6115000Y-7485000D03*
G01*
X5265000Y-7480000D03*
G01*
X4525000Y-7630000D03*
G01*
X4440000Y-7805000D03*
G01*
X5460000Y-6185000D03*
G01*
X5560000Y-6185000D03*
G01*
X5915000Y-7225000D03*
G01*
X5465000Y-7225000D03*
G01*
X5880000Y-6530000D03*
G01*
X5715000Y-6895000D03*
G01*
X5715000Y-7380000D03*
G01*
X5565000Y-7380000D03*
G01*
X5660000Y-6160000D03*
G01*
X5400000Y-6160000D03*
G01*
X5360000Y-6515000D03*
G01*
X5440000Y-6515000D03*
G01*
X5585000Y-6420000D03*
G01*
X5310000Y-6420000D03*
G01*
X5315000Y-7410000D03*
G01*
X5665000Y-7410000D03*
G01*
X5210000Y-6985000D03*
G01*
X5185000Y-7145000D03*
G01*
X6500000Y-7145000D03*
G01*
X5185000Y-6900000D03*
G01*
X4960000Y-6900000D03*
G01*
X5015000Y-7255000D03*
G01*
X5965000Y-7255000D03*
G01*
X5100000Y-5215000D03*
G01*
X3885000Y-6030000D03*
G01*
X3885000Y-6180000D03*
G01*
X3885000Y-7125000D03*
G01*
X3885000Y-7225000D03*
G01*
X3075000Y-7350000D03*
G01*
X3735000Y-6700000D03*
G01*
X905000Y-7160000D03*
G01*
X905000Y-7290000D03*
G01*
X5055000Y-6290000D03*
G01*
X3825000Y-6290000D03*
G01*
X1005000Y-7160000D03*
G01*
X1005000Y-7290000D03*
G01*
X5360000Y-6760000D03*
G01*
X4205000Y-6760000D03*
G01*
X3445000Y-7450000D03*
G01*
X4378019Y-7845000D03*
G01*
X3540000Y-2465000D03*
G01*
X4425000Y-2745000D03*
G01*
X3760000Y-5415000D03*
G01*
X4700000Y-6575000D03*
G01*
X3735000Y-6170000D03*
G01*
X3735000Y-6075000D03*
G01*
X3735000Y-5440000D03*
G01*
X3710000Y-5415000D03*
G01*
X3710000Y-6020000D03*
G01*
X3675000Y-4965000D03*
G01*
X3855000Y-4965000D03*
G01*
X3645000Y-5415000D03*
G01*
X3645000Y-6070000D03*
G01*
X4290000Y-5965000D03*
G01*
X4115000Y-5965000D03*
G01*
X3605000Y-5965000D03*
G01*
X3605000Y-5415000D03*
G01*
X3790000Y-4400000D03*
G01*
X5645000Y-2925000D03*
G01*
X5235000Y-3905000D03*
G01*
X5120000Y-3905000D03*
G01*
X4770000Y-4105000D03*
G01*
X3790000Y-4500000D03*
G01*
X5100000Y-4330000D03*
G01*
X5100000Y-3995000D03*
G01*
X5200000Y-3995000D03*
G01*
X4850000Y-5215000D03*
G01*
X4290000Y-6030000D03*
G01*
X4370000Y-5855000D03*
G01*
X5460000Y-6735000D03*
G01*
X4665000Y-6735000D03*
G01*
X4665000Y-6090000D03*
G01*
X4730000Y-6090000D03*
G01*
X4730000Y-5855000D03*
G01*
X4300000Y-5860000D03*
G01*
X4290000Y-5735000D03*
G01*
X4180000Y-5735000D03*
G01*
X4290000Y-5690000D03*
G01*
X4150000Y-5690000D03*
G01*
X3855000Y-6035000D03*
G01*
X3855000Y-6255000D03*
G01*
X3855000Y-6420000D03*
G01*
X4945000Y-5240000D03*
G01*
X4505000Y-5240000D03*
G01*
X3825000Y-4927130D03*
G01*
X3825000Y-5014630D03*
G01*
X5500000Y-5430000D03*
G01*
X5400000Y-5405000D03*
G01*
X5700000Y-5370000D03*
G01*
X6350000Y-5305000D03*
G01*
X6250000Y-5270000D03*
G01*
X4740000Y-4885000D03*
G01*
X4740000Y-5450000D03*
G01*
X5045000Y-5070000D03*
G01*
X4713050Y-5070000D03*
G01*
X4730000Y-6640000D03*
G01*
X4431049Y-6640000D03*
G01*
X5845000Y-3330000D03*
G01*
X5840000Y-6925000D03*
G01*
X5985000Y-6925000D03*
G01*
X6010000Y-6105000D03*
G01*
X5415000Y-6105000D03*
G01*
X3790000Y-4600000D03*
G01*
X4190000Y-4600000D03*
G01*
X4280000Y-2600000D03*
G01*
X3790000Y-4700000D03*
G01*
X4220000Y-4700000D03*
G01*
X4835000Y-3290000D03*
G01*
X95000Y-2800000D03*
G01*
X95000Y-2599330D03*
G01*
X5945000Y-5715000D03*
G01*
X4575000Y-5715000D03*
G01*
X4073620Y-5905000D03*
G01*
X3978620Y-5905000D03*
G01*
X4165000Y-6000000D03*
G01*
X4165000Y-6150000D03*
G01*
X4470000Y-7330000D03*
G01*
X7115000Y-3765000D03*
G01*
X7295000Y-7775000D03*
G01*
X7295000Y-7895000D03*
G01*
X7295000Y-8220000D03*
G01*
X7295000Y-8300000D03*
G01*
X6345000Y-5056060D03*
G01*
X6945000Y-5055000D03*
G01*
X6945000Y-7740000D03*
G01*
X6250000Y-5080000D03*
G01*
X6975000Y-5080000D03*
G01*
X6975000Y-5080000D03*
G01*
X6975000Y-7740000D03*
G01*
X6150000Y-5105000D03*
G01*
X7010000Y-5105000D03*
G01*
X7010000Y-7740000D03*
G01*
X7010000Y-9150000D03*
G01*
X6060000Y-9150000D03*
G01*
X6050000Y-5135000D03*
G01*
X7040000Y-5135000D03*
G01*
X7040000Y-7740000D03*
G01*
X7040000Y-8955000D03*
G01*
X6060000Y-8955000D03*
G01*
X5950000Y-5160000D03*
G01*
X7070000Y-5160000D03*
G01*
X7070000Y-7740000D03*
G01*
X7070000Y-8010000D03*
G01*
X5110000Y-8010379D03*
G01*
X5160000Y-7330000D03*
G01*
X5350000Y-5110000D03*
G01*
X4545000Y-5110000D03*
G01*
X4070000Y-6000000D03*
G01*
X4070000Y-6150000D03*
G01*
X4070000Y-7125000D03*
G01*
X4070000Y-8170000D03*
G01*
X4525000Y-8170000D03*
G01*
X5450000Y-5145000D03*
G01*
X4475000Y-5145000D03*
G01*
X4140000Y-5880000D03*
G01*
X4140000Y-6230000D03*
G01*
X4140000Y-7305000D03*
G01*
X4140000Y-8115000D03*
G01*
X4490000Y-8115000D03*
G01*
X4340000Y-8995000D03*
G01*
X4490000Y-8955000D03*
G01*
X5750000Y-5225819D03*
G01*
X7785000Y-3660000D03*
G01*
X5918950Y-5225799D03*
G01*
X5365000Y-7435000D03*
G01*
X6220000Y-7405000D03*
G01*
X6365000Y-7405000D03*
G01*
X2855000Y-8265000D03*
G01*
X1030000Y-5155000D03*
G01*
X1030000Y-4955309D03*
G01*
X1720000Y-4951740D03*
G01*
X1565000Y-5155000D03*
G01*
X2130000Y-4950000D03*
G01*
X2130000Y-5180000D03*
G01*
X2160000Y-4950000D03*
G01*
X2185000Y-4950000D03*
G01*
X2185000Y-5070000D03*
G01*
X1815000Y-2575000D03*
G01*
X1975000Y-2575000D03*
G01*
X2015000Y-2575000D03*
G01*
X2050000Y-2575000D03*
G01*
X2050000Y-2650000D03*
G01*
X2015000Y-2650000D03*
G01*
X1975000Y-2650000D03*
G01*
X1815000Y-2650000D03*
G01*
X2160000Y-5100000D03*
G01*
X2700000Y-5100000D03*
G01*
X2215000Y-4975000D03*
G01*
X2245000Y-5205000D03*
G01*
X2245000Y-5300000D03*
G01*
X2240000Y-4975000D03*
G01*
X2265000Y-4975000D03*
G01*
X2290000Y-4975000D03*
G01*
X925000Y-3500000D03*
G01*
X925000Y-4955000D03*
G01*
X885000Y-3390000D03*
G01*
X1745000Y-4980000D03*
G01*
X1700000Y-5165000D03*
G01*
X2455000Y-5175000D03*
G01*
X2455000Y-4939380D03*
G01*
X2455000Y-3295000D03*
G01*
X5250000Y-4335000D03*
G01*
X4190000Y-5447500D03*
G01*
X4220000Y-5465000D03*
G01*
X6010000Y-5470000D03*
G01*
X6220000Y-5470000D03*
G01*
X6420000Y-5470000D03*
G01*
X6475000Y-5470000D03*
G01*
X5070000Y-5495000D03*
G01*
X6010000Y-5495000D03*
G01*
X6220000Y-5495000D03*
G01*
X6420000Y-5495000D03*
G01*
X6475000Y-5495000D03*
G01*
X7750000Y-5470000D03*
G01*
X7750000Y-5495000D03*
G01*
X1925000Y-5690000D03*
G01*
X7090000Y-5910000D03*
G01*
X7110000Y-6130000D03*
G01*
X7130000Y-6155000D03*
G01*
X7150000Y-6180000D03*
G01*
X7170000Y-6350000D03*
G01*
X7190000Y-6630000D03*
G01*
X7210000Y-6680000D03*
G01*
X7295000Y-6720000D03*
G01*
X7315000Y-6740000D03*
G01*
X7355000Y-6765000D03*
G01*
X7375000Y-6810000D03*
G01*
X7395000Y-6860000D03*
G01*
X7415000Y-6890000D03*
G01*
X7455000Y-6935000D03*
G01*
X7475000Y-6965000D03*
G01*
X7090000Y-4460000D03*
G01*
X7110000Y-4445000D03*
G01*
X7130000Y-4460000D03*
G01*
X7150000Y-4445000D03*
G01*
X7170000Y-4460000D03*
G01*
X7190000Y-4445000D03*
G01*
X7210000Y-4460000D03*
G01*
X7295000Y-4370000D03*
G01*
X7315000Y-4328899D03*
G01*
X7355000Y-4345000D03*
G01*
X7375000Y-4325000D03*
G01*
X7395000Y-4345000D03*
G01*
X7415000Y-4325000D03*
G01*
X7455000Y-4325000D03*
G01*
X7475000Y-4343899D03*
G01*
X7755000Y-4750000D03*
G01*
X7845000Y-4750000D03*
G01*
X5620349Y-2980000D03*
G01*
X4440000Y-2725000D03*
G01*
X4860000Y-2925000D03*
G01*
X4455000Y-2705000D03*
G01*
X4640000Y-2890000D03*
G01*
X4805000Y-3015000D03*
G01*
X5137389Y-3327390D03*
G01*
X4470000Y-2685000D03*
G01*
X4620000Y-2835000D03*
G01*
X4795000Y-3035000D03*
G01*
X5138289Y-3358290D03*
G01*
X4040000Y-2605000D03*
G01*
X4040000Y-2795000D03*
G01*
X4065000Y-2600000D03*
G01*
X4065000Y-2775000D03*
G01*
X4085000Y-2575000D03*
G01*
X4040000Y-2587500D03*
G01*
X4085000Y-2755000D03*
G01*
X4105000Y-2550000D03*
G01*
X4105000Y-2730000D03*
G01*
X4230000Y-2595000D03*
G01*
X4015000Y-2940000D03*
G01*
X5130000Y-3535000D03*
G01*
X4515000Y-2870000D03*
G01*
X5137290Y-3572289D03*
G01*
X4535000Y-2930000D03*
G01*
X4575000Y-2670000D03*
G01*
X4900000Y-2670000D03*
G01*
X5137290Y-3602289D03*
G01*
X4595000Y-3065000D03*
G01*
X4950000Y-3515000D03*
G01*
X4780000Y-3340000D03*
G01*
X5134790Y-3234789D03*
G01*
X5130000Y-3265000D03*
G01*
X4919790Y-3019789D03*
G01*
X4914179Y-3049160D03*
G01*
X4995000Y-3355000D03*
G01*
X4950000Y-3365000D03*
G01*
X5135000Y-3630000D03*
G01*
X5137460Y-3667460D03*
G01*
X3810000Y-2430000D03*
G01*
X3775000Y-2700000D03*
G01*
X3935860Y-2700000D03*
G01*
X2485000Y-4955000D03*
G01*
X2935000Y-3125000D03*
G01*
X2935000Y-3175000D03*
G01*
X2935000Y-3220000D03*
G01*
X2935000Y-3575000D03*
G01*
X2975000Y-5660000D03*
G01*
X2970000Y-3125000D03*
G01*
X2970000Y-3175000D03*
G01*
X2970000Y-3225000D03*
G01*
X2970000Y-3575000D03*
G01*
X3198220Y-2915000D03*
G01*
X3200000Y-3015000D03*
G01*
X2995000Y-3125000D03*
G01*
X2995000Y-3175000D03*
G01*
X2995000Y-3225000D03*
G01*
X3020000Y-3125000D03*
G01*
X3020000Y-3175000D03*
G01*
X3020000Y-3225000D03*
G01*
X2995000Y-3575000D03*
G01*
X3020000Y-3575000D03*
G01*
X3030000Y-6010000D03*
G01*
X3055000Y-6110000D03*
G01*
X2545000Y-5135000D03*
G01*
X2545000Y-4955000D03*
G01*
X2195000Y-5470000D03*
G01*
X2195000Y-5525000D03*
G01*
X2195000Y-5575000D03*
G01*
X3090000Y-5710000D03*
G01*
X2655000Y-5710000D03*
G01*
X1960000Y-5650000D03*
G01*
X3095000Y-5610000D03*
G01*
X2655000Y-5610000D03*
G01*
X3105000Y-5910000D03*
G01*
X2654889Y-5910000D03*
G01*
X1045000Y-5950000D03*
G01*
X8375000Y-3965000D03*
M02*
