G04 Layer: BottomLayer*
G04 EasyEDA v6.5.46, 2024-11-26 11:19:02*
G04 028e3914a6f949ed9ca799ef75e4ed4f,10*
G04 Gerber Generator version 0.2*
G04 Scale: 100 percent, Rotated: No, Reflected: No *
G04 Dimensions in inches *
G04 leading zeros omitted , absolute positions ,3 integer and 6 decimal *
%FSLAX36Y36*%
%MOIN*%

%ADD10C,0.0060*%
%ADD11C,0.0200*%
%ADD12C,0.0550*%
%ADD13C,0.0787*%
%ADD14O,0.06299199999999999X0.06299199999999999*%
%ADD15R,0.0630X0.0630*%
%ADD16O,0.07185X0.05748*%
%ADD17O,0.094488X0.06299199999999999*%
%ADD18R,0.0945X0.0630*%
%ADD19O,0.06299199999999999X0.094488*%
%ADD20R,0.0630X0.0945*%
%ADD21O,0.035433X0.06299199999999999*%
%ADD22R,0.0354X0.0630*%
%ADD23R,0.0906X0.0650*%
%ADD24O,0.09055099999999999X0.064961*%
%ADD25O,0.08X0.06*%
%ADD26C,0.0780*%
%ADD27C,0.0600*%
%ADD28C,0.1142*%
%ADD29R,0.0550X0.0550*%
%ADD30R,0.0984X0.0984*%
%ADD31C,0.0984*%
%ADD32C,0.0590*%
%ADD33R,0.0590X0.0590*%
%ADD34C,0.0900*%
%ADD35O,0.1X0.138*%
%ADD36O,0.138X0.1*%
%ADD37R,0.0560X0.0560*%
%ADD38C,0.1417*%
%ADD39C,0.0627*%
%ADD40R,0.0591X0.0591*%
%ADD41C,0.0591*%
%ADD42C,0.0512*%
%ADD43R,0.0787X0.0787*%
%ADD44C,0.0709*%
%ADD45C,0.0750*%
%ADD46C,0.0860*%
%ADD47C,0.0598*%
%ADD48C,0.1500*%
%ADD49C,0.1968*%
%ADD50R,0.0709X0.0709*%
%ADD51O,0.07873999999999999X0.059054999999999996*%
%ADD52R,0.0787X0.0591*%
%ADD53C,0.0630*%
%ADD54C,0.0500*%
%ADD55R,0.0559X0.0559*%
%ADD56C,0.0559*%
%ADD57C,0.0150*%
%ADD58C,0.0148*%

%LPD*%
D10*
X1210000Y-5605000D02*
G01*
X1010000Y-5605000D01*
X1005000Y-5600000D01*
X1005000Y-5205000D01*
X705000Y-5205000D01*
X705000Y-4545000D01*
X430000Y-4545000D01*
X430000Y-3500000D01*
X305000Y-3500000D01*
X305000Y-3400000D02*
G01*
X470000Y-3400000D01*
X470000Y-4500000D01*
X750000Y-4500000D01*
X750000Y-5100000D01*
X1540000Y-5100000D01*
X1540000Y-5600000D01*
X1750000Y-5600000D01*
X305000Y-3300000D02*
G01*
X510000Y-3300000D01*
X510000Y-4460000D01*
X790000Y-4460000D01*
X790000Y-5060000D01*
X2105000Y-5060000D01*
X2105000Y-5600000D01*
X2300000Y-5600000D01*
X205000Y-3000000D02*
G01*
X255000Y-3050000D01*
X535000Y-3050000D01*
X535000Y-4415000D01*
X820000Y-4415000D01*
X820000Y-5030000D01*
X2785000Y-5030000D01*
X2785000Y-5460000D01*
X2860000Y-5460000D01*
X205000Y-2900000D02*
G01*
X255000Y-2950000D01*
X560000Y-2950000D01*
X560000Y-4375000D01*
X845000Y-4375000D01*
X845000Y-5000000D01*
X2935000Y-5000000D01*
X2935000Y-5760000D01*
X2860000Y-5760000D01*
X2710000Y-3500000D02*
G01*
X2760000Y-3550000D01*
X3605000Y-3550000D01*
X3605000Y-5415000D01*
X2710000Y-3400000D02*
G01*
X2760000Y-3450000D01*
X3645000Y-3450000D01*
X3645000Y-5415000D01*
X2710000Y-3300000D02*
G01*
X2760000Y-3350000D01*
X3680000Y-3350000D01*
X3675000Y-3775000D01*
X3675000Y-3795000D01*
X3675000Y-4965000D01*
X2710000Y-2800000D02*
G01*
X2760000Y-2850000D01*
X3230000Y-2850000D01*
X3230000Y-3230000D01*
X3675000Y-3230000D01*
X3760000Y-3315000D01*
X3760000Y-5415000D01*
X2710000Y-3200000D02*
G01*
X2760000Y-3250000D01*
X3180000Y-3250000D01*
X3180000Y-3275000D01*
X3650000Y-3275000D01*
X3710000Y-3335000D01*
X3710000Y-5415000D01*
X3735000Y-5440000D02*
G01*
X3735000Y-3325000D01*
X3660000Y-3250000D01*
X3205000Y-3250000D01*
X3205000Y-3150000D01*
X2760000Y-3150000D01*
X2710000Y-3100000D01*
X7090000Y-4460000D02*
G01*
X7090000Y-4115000D01*
X5525000Y-4115000D01*
X4925000Y-3515000D01*
X4420000Y-3515000D01*
X4015000Y-3110000D01*
X4015000Y-2940000D01*
X7110000Y-4445000D02*
G01*
X7110000Y-4095000D01*
X5530000Y-4095000D01*
X4950000Y-3515000D01*
X7130000Y-4460000D02*
G01*
X7130000Y-4075000D01*
X5545000Y-4075000D01*
X5135000Y-3665000D01*
X7150000Y-4445000D02*
G01*
X7150000Y-4055000D01*
X5560000Y-4055000D01*
X5135000Y-3630000D01*
X7170000Y-4460000D02*
G01*
X7170000Y-4035000D01*
X5570000Y-4035000D01*
X5135000Y-3600000D01*
X7190000Y-4445000D02*
G01*
X7190000Y-4015000D01*
X5580000Y-4015000D01*
X5135000Y-3570000D01*
X7210000Y-4460000D02*
G01*
X7210000Y-3995000D01*
X5590000Y-3995000D01*
X5130000Y-3535000D01*
X7295000Y-4370000D02*
G01*
X7295000Y-3955000D01*
X5610000Y-3955000D01*
X5143081Y-3488078D01*
X4423081Y-3488078D01*
X4040000Y-3104998D01*
X4040000Y-2795000D01*
X7315000Y-4328894D02*
G01*
X7315000Y-3935000D01*
X5620000Y-3935000D01*
X5143081Y-3458078D01*
X4438081Y-3458078D01*
X4065000Y-3084998D01*
X4065000Y-2775000D01*
X7355000Y-4345000D02*
G01*
X7355000Y-3915000D01*
X5630000Y-3915000D01*
X5143706Y-3428703D01*
X4443706Y-3428703D01*
X4085000Y-3069998D01*
X4085000Y-2755000D01*
X7375000Y-4325000D02*
G01*
X7375000Y-3895000D01*
X5640000Y-3895000D01*
X5140000Y-3395000D01*
X4445000Y-3395000D01*
X4105000Y-3055000D01*
X4105000Y-2730000D01*
X7395000Y-4345000D02*
G01*
X7395000Y-3875000D01*
X5655000Y-3875000D01*
X5135000Y-3355000D01*
X7415000Y-4325000D02*
G01*
X7415000Y-3855000D01*
X5665000Y-3855000D01*
X5135000Y-3325000D01*
X7455000Y-4325000D02*
G01*
X7455000Y-3815000D01*
X5685000Y-3815000D01*
X5130000Y-3265000D01*
X5134794Y-3234794D02*
G01*
X5695000Y-3795000D01*
X7475000Y-3795000D01*
X7475000Y-4343895D01*
X4850000Y-5565000D02*
G01*
X4775000Y-5595000D01*
X4650000Y-5595000D01*
X4340000Y-8175000D02*
G01*
X4340000Y-8995000D01*
X7630000Y-2670000D02*
G01*
X7630000Y-3030000D01*
X7635000Y-3035000D01*
X8550000Y-3035000D01*
X8550000Y-3965000D01*
X8375000Y-3965000D01*
X2654899Y-5910000D02*
G01*
X2415000Y-5910000D01*
X2375000Y-5950000D01*
X1045000Y-5950000D01*
X4030000Y-6030000D02*
G01*
X4000000Y-6000000D01*
X3505000Y-6000000D01*
X3415000Y-5910000D01*
X3105000Y-5910000D01*
X2655000Y-5610000D02*
G01*
X2415000Y-5610000D01*
X2375000Y-5650000D01*
X2105000Y-5650000D01*
X2055000Y-5600000D01*
X2000000Y-5600000D01*
X2655000Y-5710000D02*
G01*
X2405000Y-5710000D01*
X2405000Y-5750000D01*
X2165000Y-5750000D01*
X2065000Y-5650000D01*
X1960000Y-5650000D01*
X2195000Y-5525000D02*
G01*
X2195000Y-5575000D01*
X2195000Y-5180000D02*
G01*
X2195000Y-5470000D01*
X2195000Y-5180000D02*
G01*
X2195000Y-5135000D01*
X2545000Y-5135000D01*
X2710000Y-4800000D02*
G01*
X2545000Y-4800000D01*
X2545000Y-4955000D01*
X1985000Y-7480000D02*
G01*
X1985000Y-6960000D01*
X2860000Y-6960000D01*
X2860000Y-6560000D01*
X1999165Y-6105000D02*
G01*
X2000000Y-6145000D01*
X2015000Y-6160000D01*
X2445000Y-6160000D01*
X3020000Y-3575000D02*
G01*
X3020000Y-4820000D01*
X3055000Y-4820000D01*
X3055000Y-6110000D01*
X2995000Y-3575000D02*
G01*
X2995000Y-4850000D01*
X3030000Y-4850000D01*
X3030000Y-6010000D01*
X3020000Y-3175000D02*
G01*
X3020000Y-3225000D01*
X3200000Y-3015000D02*
G01*
X3020000Y-3015000D01*
X3020000Y-3125000D01*
X2995000Y-3175000D02*
G01*
X2995000Y-3225000D01*
X3198217Y-2915000D02*
G01*
X2995000Y-2915000D01*
X2995000Y-3125000D01*
X2970000Y-3575000D02*
G01*
X2970000Y-4885000D01*
X3000000Y-4885000D01*
X3000000Y-5960000D01*
X2860000Y-5960000D01*
X2970000Y-3175000D02*
G01*
X2970000Y-3225000D01*
X2710000Y-2900000D02*
G01*
X2760000Y-2950000D01*
X2970000Y-2950000D01*
X2970000Y-3125000D01*
X2935000Y-3575000D02*
G01*
X2935000Y-4920000D01*
X2975000Y-4920000D01*
X2975000Y-5660000D01*
X2935000Y-3175000D02*
G01*
X2935000Y-3220000D01*
X2710000Y-3000000D02*
G01*
X2760000Y-3050000D01*
X2935000Y-3050000D01*
X2935000Y-3125000D01*
D11*
X2710000Y-4600000D02*
G01*
X2485000Y-4600000D01*
X2485000Y-4955000D01*
D10*
X2185000Y-5070000D02*
G01*
X2725000Y-5070000D01*
X2720000Y-5860000D01*
X2860000Y-5860000D01*
D11*
X3405000Y-6260000D02*
G01*
X3405000Y-6345000D01*
X2960000Y-6345000D01*
X2960000Y-6460000D01*
X2860000Y-6460000D01*
D10*
X3810000Y-2430000D02*
G01*
X3810000Y-2755000D01*
X3880000Y-2755000D01*
X3880000Y-2775000D01*
X3880000Y-2915000D01*
X3670000Y-2915000D01*
D11*
X3870000Y-2490000D02*
G01*
X3870000Y-2725000D01*
X3925000Y-2725000D01*
X3925000Y-3215000D01*
X3815000Y-3215000D01*
D10*
X2810000Y-1700000D02*
G01*
X4095000Y-1700000D01*
X4095000Y-2235000D01*
X4230000Y-2370000D01*
X4230000Y-2605000D01*
X3540000Y-2465000D02*
G01*
X3780000Y-2465000D01*
X3780000Y-2505000D01*
X3775000Y-2700000D01*
X3935856Y-2700000D02*
G01*
X4380000Y-2700000D01*
X4425000Y-2745000D01*
X2810000Y-1000000D02*
G01*
X4450000Y-1000000D01*
X4635000Y-1185000D01*
X4635000Y-1640000D01*
X4950000Y-1955000D01*
X4950000Y-2460000D01*
X4995000Y-2505000D01*
X4995000Y-3355000D01*
X2810000Y-1100000D02*
G01*
X4495000Y-1100000D01*
X4590000Y-1195000D01*
X4590000Y-1650000D01*
X4915000Y-1975000D01*
X4915000Y-2485000D01*
X4950000Y-2515000D01*
X4950000Y-3365000D01*
X4780000Y-3340000D02*
G01*
X4555000Y-3115000D01*
X4555000Y-2335000D01*
X4335000Y-2335000D01*
X4335000Y-1965000D01*
X4285000Y-1965000D01*
X4285000Y-1635000D01*
X4050000Y-1400000D01*
X2810000Y-1400000D01*
X2810000Y-1200000D02*
G01*
X3920000Y-1200000D01*
X4330000Y-1610000D01*
X4330000Y-1915000D01*
X4375000Y-1915000D01*
X4375000Y-2285000D01*
X4595000Y-2285000D01*
X4595000Y-3065000D01*
X4900000Y-2670000D02*
G01*
X4900000Y-3000000D01*
X4919794Y-3019794D01*
X2810000Y-1300000D02*
G01*
X3990000Y-1300000D01*
X4310000Y-1625000D01*
X4310000Y-1940000D01*
X4355000Y-1940000D01*
X4355000Y-2310000D01*
X4575000Y-2310000D01*
X4575000Y-2670000D01*
X2810000Y-1500000D02*
G01*
X4100000Y-1500000D01*
X4265000Y-1665000D01*
X4265000Y-1985000D01*
X4315000Y-1985000D01*
X4315000Y-2360000D01*
X4535000Y-2360000D01*
X4535000Y-2930000D01*
X2810000Y-1600000D02*
G01*
X4165000Y-1600000D01*
X4245000Y-1680000D01*
X4245000Y-2005000D01*
X4300000Y-2005000D01*
X4300000Y-2380000D01*
X4515000Y-2380000D01*
X4515000Y-2870000D01*
X2810000Y-1800000D02*
G01*
X3215000Y-1800000D01*
X3275000Y-1740000D01*
X3790000Y-1740000D01*
X3790000Y-1960000D01*
X4075000Y-1960000D01*
X4075000Y-2250000D01*
X4105000Y-2280000D01*
X4105000Y-2570000D01*
X2810000Y-1900000D02*
G01*
X3280000Y-1900000D01*
X3315000Y-1865000D01*
X3755000Y-1865000D01*
X3755000Y-1935000D01*
X3775000Y-1935000D01*
X3775000Y-1980000D01*
X4055000Y-1980000D01*
X4055000Y-2265000D01*
X4085000Y-2295000D01*
X4085000Y-2585000D01*
X2810000Y-2000000D02*
G01*
X3285000Y-2000000D01*
X3320000Y-1965000D01*
X3750000Y-1965000D01*
X3750000Y-1985000D01*
X3765000Y-2000000D01*
X4035000Y-2000000D01*
X4035000Y-2280000D01*
X4065000Y-2310000D01*
X4065000Y-2595000D01*
X2810000Y-2100000D02*
G01*
X3285000Y-2100000D01*
X3320000Y-2065000D01*
X3785000Y-2065000D01*
X3830000Y-2020000D01*
X4020000Y-2020000D01*
X4020000Y-2270000D01*
X4040000Y-2370000D01*
X4040000Y-2610000D01*
X2810000Y-2200000D02*
G01*
X3280000Y-2200000D01*
X3315000Y-2165000D01*
X3975000Y-2165000D01*
X3975000Y-2180000D01*
X3975000Y-2630000D01*
X4415000Y-2630000D01*
X4470000Y-2685000D01*
X4620000Y-2835000D02*
G01*
X4620000Y-3035000D01*
X4795000Y-3035000D01*
X4640000Y-2890000D02*
G01*
X4640000Y-3015000D01*
X4805000Y-3015000D01*
X2810000Y-2300000D02*
G01*
X3270000Y-2300000D01*
X3310000Y-2260000D01*
X3955000Y-2265000D01*
X3955000Y-2655000D01*
X4405000Y-2655000D01*
X4455000Y-2705000D01*
X4860000Y-2925000D02*
G01*
X4860000Y-2994974D01*
X4914182Y-3049155D01*
X2810000Y-2400000D02*
G01*
X3285000Y-2400000D01*
X3320000Y-2365000D01*
X3935000Y-2365000D01*
X3935000Y-2675000D01*
X4390000Y-2675000D01*
X4440000Y-2725000D01*
X5160000Y-6030000D02*
G01*
X5160000Y-5970000D01*
X5155000Y-5965000D01*
X4290000Y-5965000D01*
X4115000Y-5965000D02*
G01*
X3605000Y-5965000D01*
X1030000Y-4955306D02*
G01*
X1030000Y-3500000D01*
X1395000Y-3500000D01*
X1445000Y-3450000D01*
X1580000Y-3450000D01*
X1605000Y-3475000D01*
X1605000Y-3500000D01*
X8765000Y-3875399D02*
G01*
X8630000Y-3875399D01*
X8630000Y-4115000D01*
X8225000Y-4115000D01*
X7845000Y-4750000D02*
G01*
X8765000Y-4750000D01*
X8765000Y-4174560D01*
X5250000Y-4335000D02*
G01*
X7070000Y-4335000D01*
X7070000Y-4750000D01*
X7755000Y-4750000D01*
X7800000Y-5225799D02*
G01*
X7800400Y-4365000D01*
X8025000Y-4365000D01*
X5845000Y-3330000D02*
G01*
X7030000Y-3330000D01*
X7030000Y-3135010D01*
X3943000Y-8426380D02*
G01*
X4140000Y-8623379D01*
X4140000Y-8915000D01*
X3943000Y-8426380D02*
G01*
X4320000Y-8049380D01*
X4320000Y-7630000D01*
X1355000Y-9205000D02*
G01*
X1465000Y-9205000D01*
X1465000Y-9205000D02*
G01*
X1575000Y-9205000D01*
X1425000Y-8119979D02*
G01*
X1465000Y-8159979D01*
X1465000Y-9205000D01*
X785000Y-8110000D02*
G01*
X890000Y-8215000D01*
X1340000Y-8215000D01*
X1425000Y-8130000D01*
X1425000Y-8119979D01*
X1425000Y-8119979D02*
G01*
X1985000Y-7559979D01*
X1985000Y-7480000D01*
X1985000Y-7480000D02*
G01*
X2220000Y-7715000D01*
X2525000Y-7715000D01*
X2525000Y-8125000D01*
X2525000Y-8125000D02*
G01*
X2690000Y-8290000D01*
X2690000Y-8605000D01*
X2715000Y-8605000D01*
X2901999Y-8603599D01*
X3158000Y-8603599D02*
G01*
X3335219Y-8426380D01*
X3686999Y-8426380D01*
X3686999Y-8426380D02*
G01*
X3943000Y-8426380D01*
X2901999Y-8603599D02*
G01*
X3158000Y-8603599D01*
X5420000Y-9070000D02*
G01*
X5420000Y-9310000D01*
X5420000Y-8870000D02*
G01*
X5420000Y-9070000D01*
X5420000Y-8715000D02*
G01*
X5420000Y-8870000D01*
X4140000Y-9105000D02*
G01*
X4040000Y-9205000D01*
X4040000Y-9310000D01*
X4140000Y-8915000D02*
G01*
X4140000Y-9105000D01*
X2810000Y-4800000D02*
G01*
X2710000Y-4800000D01*
X5355000Y-4475000D02*
G01*
X5400000Y-4430000D01*
X5705000Y-4430000D01*
X5750000Y-4475000D01*
X8035000Y-8285000D02*
G01*
X8035000Y-7740000D01*
X8035000Y-8285000D02*
G01*
X8100000Y-8350000D01*
X8100000Y-8975000D01*
X5480000Y-2130000D02*
G01*
X5355000Y-2005000D01*
X5355000Y-1730000D01*
X5285000Y-1730000D01*
X5523701Y-2325000D02*
G01*
X5480000Y-2281298D01*
X5480000Y-2130000D01*
X3670000Y-3115000D02*
G01*
X3670000Y-3015000D01*
X3670000Y-2915000D02*
G01*
X3670000Y-3015000D01*
X4885000Y-1663699D02*
G01*
X4951300Y-1730000D01*
X5285000Y-1730000D01*
X5382759Y-1497170D02*
G01*
X5285000Y-1594929D01*
X5285000Y-1730000D01*
X5382759Y-1497170D02*
G01*
X5425590Y-1540000D01*
X5545000Y-1540000D01*
X5571729Y-1513270D01*
X5571729Y-1497170D01*
X5755000Y-1498699D02*
G01*
X5753469Y-1497170D01*
X5571729Y-1497170D01*
X5574210Y-935000D02*
G01*
X5635000Y-995790D01*
X5635000Y-1415000D01*
X5571729Y-1478270D01*
X5571729Y-1497170D01*
X4880000Y-850000D02*
G01*
X5255000Y-1225000D01*
X5570000Y-1225000D01*
X5571729Y-1223270D01*
X5571729Y-1142840D01*
X4635000Y-848739D02*
G01*
X4636260Y-850000D01*
X4880000Y-850000D01*
X4415000Y-850000D02*
G01*
X4416260Y-848739D01*
X4635000Y-848739D01*
X5586890Y-425909D02*
G01*
X5715980Y-555000D01*
X6820000Y-555000D01*
X6817870Y-552869D01*
X6817870Y-435030D01*
X5586890Y-425909D02*
G01*
X5460000Y-299020D01*
X5460000Y-180000D01*
X5456499Y-176500D01*
X4835000Y-176500D01*
X5586890Y-425909D02*
G01*
X5574210Y-438589D01*
X5574210Y-935000D01*
X7287900Y-435000D02*
G01*
X7332799Y-480000D01*
X7465000Y-480000D01*
X7465000Y-435000D01*
X7199279Y-435030D02*
G01*
X7287860Y-435030D01*
X7110690Y-435030D02*
G01*
X7199279Y-435030D01*
X6817870Y-435030D02*
G01*
X7110690Y-435030D01*
X9130000Y-193000D02*
G01*
X9161999Y-225000D01*
X9398000Y-225000D01*
X8996000Y-343000D02*
G01*
X9000000Y-339000D01*
X9000000Y-195000D01*
X9001999Y-193000D01*
X9130000Y-193000D01*
X8863999Y-225000D02*
G01*
X8981999Y-343000D01*
X8996000Y-343000D01*
X8568000Y-225000D02*
G01*
X8863999Y-225000D01*
X8300000Y-193000D02*
G01*
X8331999Y-225000D01*
X8568000Y-225000D01*
X8166000Y-343000D02*
G01*
X8165000Y-341999D01*
X8165000Y-195000D01*
X8166999Y-193000D01*
X8300000Y-193000D01*
X8033999Y-225000D02*
G01*
X8151999Y-343000D01*
X8166000Y-343000D01*
X7802129Y-435030D02*
G01*
X7805000Y-432159D01*
X7805000Y-230000D01*
X7810000Y-225000D01*
X8033999Y-225000D01*
X7509309Y-535030D02*
G01*
X7514279Y-540000D01*
X7805000Y-540000D01*
X7802129Y-537130D01*
X7802129Y-435030D01*
X7465020Y-435030D02*
G01*
X7509309Y-479319D01*
X7509309Y-535030D01*
X3370000Y-2715000D02*
G01*
X3570000Y-2915000D01*
X3670000Y-2915000D01*
X3235000Y-2720000D02*
G01*
X3240000Y-2715000D01*
X3370000Y-2715000D01*
X2810000Y-2600000D02*
G01*
X2860000Y-2650000D01*
X3140000Y-2650000D01*
X3210000Y-2720000D01*
X3235000Y-2720000D01*
X2710000Y-2600000D02*
G01*
X2810000Y-2600000D01*
X1890000Y-2600000D02*
G01*
X2710000Y-2600000D01*
X1605000Y-2600000D02*
G01*
X1890000Y-2600000D01*
X1505000Y-2600000D02*
G01*
X1605000Y-2600000D01*
X555000Y-2600000D02*
G01*
X1505000Y-2600000D01*
X305000Y-2600000D02*
G01*
X555000Y-2600000D01*
X205000Y-2600000D02*
G01*
X305000Y-2600000D01*
X4140000Y-9105000D02*
G01*
X4190000Y-9055000D01*
X5020000Y-9055000D01*
X5020000Y-9243999D01*
X5980000Y-4780000D02*
G01*
X5980000Y-4665000D01*
X5795000Y-5815000D02*
G01*
X5735000Y-5875000D01*
X5150000Y-5875000D01*
X5150000Y-5815000D01*
X7356300Y-7470000D02*
G01*
X7355000Y-7471300D01*
X7355000Y-7740000D01*
X7590000Y-7740000D01*
X7590000Y-7740000D02*
G01*
X7590000Y-7565000D01*
X7795000Y-7565000D01*
X7796300Y-7563699D01*
X7796300Y-7465000D01*
X7796300Y-7465000D02*
G01*
X8035000Y-7465000D01*
X8035000Y-7740000D01*
X7810000Y-8595000D02*
G01*
X7725000Y-8595000D01*
X1420000Y-4700000D02*
G01*
X1470000Y-4650000D01*
X1580000Y-4650000D01*
X1605000Y-4675000D01*
X1605000Y-4700000D01*
X2625000Y-4700000D02*
G01*
X2670000Y-4655000D01*
X2775000Y-4655000D01*
X2810000Y-4690000D01*
X2810000Y-4700000D01*
X4000000Y-2465000D02*
G01*
X4000000Y-2370000D01*
D11*
X318161Y-7330000D02*
G01*
X225000Y-7330000D01*
X7985000Y-8790000D02*
G01*
X8045000Y-8790000D01*
X7730000Y-8790000D02*
G01*
X7810000Y-8790000D01*
X7325000Y-8790000D02*
G01*
X7440000Y-8790000D01*
D10*
X5020000Y-8625000D02*
G01*
X5020000Y-8520000D01*
X5475000Y-9200000D02*
G01*
X5570000Y-9200000D01*
X5575000Y-9410000D02*
G01*
X5655000Y-9410000D01*
X5135000Y-1500000D02*
G01*
X5065000Y-1500000D01*
X3750000Y-2705000D02*
G01*
X3750000Y-2640000D01*
X3750000Y-2585000D02*
G01*
X3750000Y-2520000D01*
X7750000Y-1970000D02*
G01*
X8015000Y-1970000D01*
X7509309Y-535030D02*
G01*
X7615000Y-640720D01*
X7615000Y-1450000D01*
X7580000Y-1485000D01*
X7580000Y-1970000D01*
X7750000Y-1970000D01*
X7630000Y-2670000D02*
G01*
X7630000Y-2090000D01*
X7750000Y-1970000D01*
X7320000Y-2930000D02*
G01*
X7330000Y-2920000D01*
X7330000Y-2670000D01*
X7455000Y-2380000D02*
G01*
X7455000Y-2210000D01*
X5955000Y-2839567D02*
G01*
X5955000Y-2925000D01*
X5880000Y-2925000D02*
G01*
X5880000Y-2840000D01*
X8875000Y-975000D02*
G01*
X8800000Y-975000D01*
X7435000Y-1130000D02*
G01*
X7435000Y-1050000D01*
X8090000Y-1020000D02*
G01*
X8155000Y-1020000D01*
X8280000Y-1020000D02*
G01*
X8340000Y-1020000D01*
X8000000Y-1545000D02*
G01*
X7920000Y-1545000D01*
X7520000Y-1635000D02*
G01*
X7455000Y-1635000D01*
X6930000Y-2670000D02*
G01*
X6850000Y-2590000D01*
X6740000Y-2590000D01*
X5985000Y-2615000D02*
G01*
X5875000Y-2725000D01*
X5750000Y-2725000D01*
D11*
X9000000Y-3485000D02*
G01*
X9000000Y-3595000D01*
X7445000Y-7795000D02*
G01*
X7445000Y-7895000D01*
D10*
X6465000Y-7485000D02*
G01*
X6165000Y-7485000D01*
X6465000Y-7040000D02*
G01*
X6540000Y-6965000D01*
X6665000Y-6965000D01*
X7480000Y-2870000D02*
G01*
X7480000Y-2785000D01*
X5985000Y-1050000D02*
G01*
X5870000Y-1050000D01*
X5800000Y-2925000D02*
G01*
X5800000Y-2845000D01*
X5800000Y-2630000D02*
G01*
X5800000Y-2550000D01*
X5820000Y-1115000D02*
G01*
X5820000Y-1065000D01*
X5705000Y-2925000D02*
G01*
X5705000Y-2840000D01*
X5705000Y-2755000D02*
G01*
X5705000Y-2690000D01*
X5905000Y-2595000D02*
G01*
X5840000Y-2595000D01*
X8505000Y-7843288D02*
G01*
X8505000Y-7755000D01*
X8505000Y-7220000D02*
G01*
X8505000Y-7115000D01*
X7230000Y-3285000D02*
G01*
X7230000Y-3020000D01*
D11*
X9015000Y-7840000D02*
G01*
X9015000Y-7750000D01*
X8925000Y-7225000D02*
G01*
X8925000Y-7120000D01*
X8925000Y-3595000D02*
G01*
X8925000Y-3485000D01*
D10*
X7960000Y-2815000D02*
G01*
X7960000Y-2717118D01*
X8575000Y-7510000D02*
G01*
X8455000Y-7510000D01*
X8455000Y-7220000D02*
G01*
X8455000Y-7115000D01*
X6415000Y-3690000D02*
G01*
X6415000Y-3570000D01*
X6330000Y-2895000D02*
G01*
X6330000Y-2810000D01*
X8083699Y-7465000D02*
G01*
X8085000Y-7463699D01*
X8085000Y-7340000D01*
X8085000Y-7220000D02*
G01*
X8085000Y-7115000D01*
X6350000Y-3690000D02*
G01*
X6350000Y-3570000D01*
X6290000Y-2895000D02*
G01*
X6290000Y-2810000D01*
X4920000Y-9343999D02*
G01*
X4818999Y-9445000D01*
X4760000Y-9445000D01*
D11*
X4190000Y-8755000D02*
G01*
X4290000Y-8755000D01*
D10*
X1685000Y-9305000D02*
G01*
X1765000Y-9305000D01*
X1770000Y-9300000D01*
X1770000Y-9140000D01*
X4190000Y-8690000D02*
G01*
X4305000Y-8575000D01*
X2765000Y-7180000D02*
G01*
X2680000Y-7180000D01*
X2675000Y-7405000D02*
G01*
X2760000Y-7405000D01*
X7415000Y-8840000D02*
G01*
X7325000Y-8840000D01*
X1355000Y-9530000D02*
G01*
X1355000Y-9305000D01*
X3375000Y-9485000D02*
G01*
X3485000Y-9485000D01*
X7640000Y-7740000D02*
G01*
X7640000Y-8180000D01*
X7555000Y-8265000D01*
X7365000Y-8265000D01*
X4190000Y-8385000D02*
G01*
X4115000Y-8460000D01*
X4100000Y-4030000D02*
G01*
X4245000Y-4030000D01*
D11*
X4620000Y-6850000D02*
G01*
X4655000Y-6815000D01*
X5658599Y-6815000D01*
D10*
X5943599Y-5815000D02*
G01*
X6098599Y-5970000D01*
X6310000Y-5970000D01*
X6360000Y-6020000D01*
X6360000Y-6030000D01*
X6460000Y-6030000D02*
G01*
X6375000Y-5945000D01*
X6160000Y-5945000D01*
X6045200Y-5830200D01*
X6045200Y-5815000D01*
X6560000Y-6030000D02*
G01*
X6450000Y-5920000D01*
X6235000Y-5920000D01*
X6146800Y-5831799D01*
X6146800Y-5815000D01*
X6660000Y-6030000D02*
G01*
X6520000Y-5890000D01*
X6315000Y-5890000D01*
X6248400Y-5823400D01*
X6248400Y-5815000D01*
X6760000Y-6030000D02*
G01*
X6595000Y-5865000D01*
X6400000Y-5865000D01*
X6350000Y-5815000D01*
X4945000Y-4805000D02*
G01*
X5496190Y-4805000D01*
X5500000Y-4808809D01*
X4620000Y-7130000D02*
G01*
X4570000Y-7180000D01*
X4105000Y-7180000D01*
X4105000Y-7280000D02*
G01*
X4554399Y-7280000D01*
X4555000Y-7280600D01*
X4320000Y-7030000D02*
G01*
X4370000Y-7080000D01*
X4865000Y-7080000D01*
X4915000Y-7130000D01*
X5080000Y-7130000D01*
X5080000Y-7048739D01*
D11*
X4620000Y-7030000D02*
G01*
X4840000Y-7030000D01*
D10*
X6465000Y-7530000D02*
G01*
X5865000Y-7530000D01*
X5865000Y-7640000D01*
X5560000Y-6030000D02*
G01*
X5695000Y-5895000D01*
X5875000Y-5895000D01*
X4960000Y-5905000D02*
G01*
X5440000Y-5905000D01*
X5445000Y-5900000D01*
X5450000Y-5900000D01*
X6880000Y-7525000D02*
G01*
X6870000Y-7535000D01*
X6515000Y-7535000D01*
X6475000Y-7575000D01*
X6065000Y-7575000D01*
X6065000Y-7640000D01*
X6756400Y-5815000D02*
G01*
X6755000Y-5813600D01*
X6755000Y-5750000D01*
X5905000Y-5750000D01*
X5900000Y-5755000D01*
X5900000Y-5945000D01*
X5880000Y-5965000D01*
X5760000Y-5965000D01*
X5760000Y-6030000D01*
X6745000Y-6545000D02*
G01*
X6560000Y-6545000D01*
X6560000Y-6630000D01*
X6760000Y-6630000D02*
G01*
X6810000Y-6630000D01*
X6810000Y-6500000D01*
X6525000Y-6500000D01*
X6525000Y-6405000D01*
X6560000Y-6350000D02*
G01*
X6415000Y-6350000D01*
X5060000Y-5735000D02*
G01*
X5060000Y-5735000D01*
X5250000Y-5735000D01*
X6210000Y-6095000D02*
G01*
X6060000Y-6095000D01*
X6060000Y-6030000D01*
X6550000Y-5565000D02*
G01*
X6550000Y-5620000D01*
X6535000Y-5635000D01*
X5660000Y-5635000D01*
X6650000Y-5565000D02*
G01*
X6650000Y-5655000D01*
X5390000Y-5655000D01*
X6750000Y-5565000D02*
G01*
X6750000Y-5680000D01*
X5495000Y-5680000D01*
X6650000Y-4965000D02*
G01*
X6650000Y-5030000D01*
X5300000Y-5030000D01*
X6405000Y-6285000D02*
G01*
X5160000Y-6285000D01*
X5115000Y-6220000D02*
G01*
X5260000Y-6220000D01*
X5100000Y-7120000D02*
G01*
X6665000Y-7120000D01*
X6665000Y-7040000D01*
X6855000Y-6000000D02*
G01*
X6855000Y-6060000D01*
X5020000Y-5690000D02*
G01*
X5020000Y-5690000D01*
X5350000Y-5690000D01*
X5150000Y-5565000D02*
G01*
X5150000Y-5620000D01*
X5595000Y-5620000D01*
X5615000Y-6550000D02*
G01*
X5760000Y-6550000D01*
X5760000Y-6630000D01*
X5265000Y-6700000D02*
G01*
X5660000Y-6700000D01*
X5660000Y-6630000D01*
X5160000Y-6030000D02*
G01*
X5160000Y-6085000D01*
X5845000Y-6085000D01*
X5515000Y-6550000D02*
G01*
X5360000Y-6550000D01*
X6810000Y-7170000D02*
G01*
X4720000Y-7170000D01*
X4680000Y-7130000D01*
X4620000Y-7130000D01*
X5365000Y-7040000D02*
G01*
X5425000Y-7100000D01*
X6010000Y-7100000D01*
X6115000Y-7485000D02*
G01*
X6110000Y-7480000D01*
X5265000Y-7480000D01*
X6665000Y-7640000D02*
G01*
X6500000Y-7805000D01*
X4440000Y-7805000D01*
X4320000Y-7630000D02*
G01*
X4525000Y-7630000D01*
X5460000Y-6185000D02*
G01*
X5560000Y-6185000D01*
X5915000Y-7225000D02*
G01*
X5465000Y-7225000D01*
X5880000Y-6530000D02*
G01*
X5810000Y-6600000D01*
X5810000Y-6695000D01*
X5715000Y-6790000D01*
X5715000Y-6895000D01*
X5715000Y-7380000D02*
G01*
X5565000Y-7380000D01*
X5660000Y-6160000D02*
G01*
X5400000Y-6160000D01*
X5360000Y-6515000D02*
G01*
X5440000Y-6515000D01*
X5585000Y-6420000D02*
G01*
X5310000Y-6420000D01*
X5315000Y-7410000D02*
G01*
X5665000Y-7410000D01*
X4520000Y-6850000D02*
G01*
X4610000Y-6940000D01*
X5205000Y-6940000D01*
X5265000Y-7000000D01*
X5265000Y-7040000D01*
X5210000Y-6985000D02*
G01*
X5210000Y-6985000D01*
X4930000Y-6985000D01*
X4930000Y-7048739D01*
X5185000Y-7145000D02*
G01*
X6500000Y-7145000D01*
X4960000Y-6900000D02*
G01*
X4960000Y-6900000D01*
X5185000Y-6900000D01*
X5015000Y-7255000D02*
G01*
X5965000Y-7255000D01*
X3885000Y-6030000D02*
G01*
X3885000Y-6180000D01*
X3885000Y-7125000D02*
G01*
X3885000Y-7225000D01*
X3075000Y-7350000D02*
G01*
X3075000Y-7480000D01*
X5060000Y-6630000D02*
G01*
X5060000Y-6700000D01*
X3735000Y-6700000D01*
X905000Y-7160000D02*
G01*
X905000Y-7290000D01*
X5055000Y-6290000D02*
G01*
X4555000Y-6290000D01*
X3825000Y-6290000D01*
X1005000Y-7160000D02*
G01*
X1005000Y-7290000D01*
X5360000Y-6760000D02*
G01*
X4205000Y-6760000D01*
X3445000Y-7450000D02*
G01*
X3445000Y-7815000D01*
X5110000Y-8010384D02*
G01*
X5110000Y-7845000D01*
X4375000Y-7845000D01*
X5020000Y-9343999D02*
G01*
X5026000Y-9350000D01*
X5110000Y-9350000D01*
X5110000Y-8010384D01*
X4700000Y-6575000D02*
G01*
X5380000Y-6575000D01*
X5390000Y-6585000D01*
X5560000Y-6585000D01*
X5560000Y-6630000D01*
X3855000Y-4965000D02*
G01*
X4850000Y-4965000D01*
X3790000Y-4400000D02*
G01*
X4770000Y-4400000D01*
X4770000Y-4105000D01*
X6085000Y-1905000D02*
G01*
X5645000Y-1905000D01*
X5645000Y-2925000D01*
X5235000Y-3905000D02*
G01*
X5120000Y-3905000D01*
X5100000Y-3995000D02*
G01*
X5200000Y-3995000D01*
X5620348Y-2980000D02*
G01*
X5955000Y-2980000D01*
X5955000Y-2925000D01*
X5100000Y-5200000D02*
G01*
X4850000Y-5200000D01*
X5300000Y-5030000D02*
G01*
X4115000Y-5030000D01*
X5460000Y-6735000D02*
G01*
X4665000Y-6735000D01*
X4665000Y-6090000D02*
G01*
X4730000Y-6090000D01*
X4730000Y-5855000D02*
G01*
X4370000Y-5855000D01*
X4960000Y-5905000D02*
G01*
X4300000Y-5905000D01*
X4300000Y-5860000D01*
X5060000Y-5735000D02*
G01*
X4290000Y-5735000D01*
X5020000Y-5690000D02*
G01*
X4290000Y-5690000D01*
X3855000Y-6035000D02*
G01*
X3855000Y-6255000D01*
X5310000Y-6420000D02*
G01*
X3860000Y-6420000D01*
X4945000Y-5240000D02*
G01*
X4505000Y-5240000D01*
X3825000Y-4927127D02*
G01*
X3825000Y-5014627D01*
X3975000Y-5405000D02*
G01*
X5400000Y-5405000D01*
X3950000Y-5370000D02*
G01*
X5700000Y-5370000D01*
X3925000Y-5340000D02*
G01*
X6450000Y-5340000D01*
X6450000Y-5565000D01*
X3900000Y-5305000D02*
G01*
X6350000Y-5305000D01*
X3875000Y-5270000D02*
G01*
X6250000Y-5270000D01*
X3850000Y-4885000D02*
G01*
X4740000Y-4885000D01*
X4740000Y-5450000D02*
G01*
X6035000Y-5450000D01*
X6150000Y-5565000D01*
X5045000Y-5070000D02*
G01*
X4710000Y-5070000D01*
X4730000Y-6640000D02*
G01*
X4425000Y-6640000D01*
X5160000Y-6285000D02*
G01*
X5125000Y-6285000D01*
X5125000Y-6350000D01*
X3645000Y-6350000D01*
X3645000Y-6070000D01*
X5840000Y-6925000D02*
G01*
X5985000Y-6925000D01*
X6010000Y-6105000D02*
G01*
X5415000Y-6105000D01*
X3790000Y-4600000D02*
G01*
X4190000Y-4600000D01*
X4280000Y-2605000D02*
G01*
X4280000Y-2090000D01*
X4165000Y-2090000D01*
X3790000Y-4700000D02*
G01*
X4220000Y-4700000D01*
X4835000Y-3290000D02*
G01*
X4835000Y-2090000D01*
X4755000Y-2090000D01*
D11*
X95000Y-2800000D02*
G01*
X95000Y-2595000D01*
D10*
X4175000Y-6000000D02*
G01*
X4175000Y-6150000D01*
X4470000Y-7330000D02*
G01*
X4320000Y-7330000D01*
X6430000Y-2670000D02*
G01*
X6430000Y-2775000D01*
X7115000Y-2775000D01*
X7115000Y-3765000D01*
X7295000Y-7775000D02*
G01*
X7295000Y-7895000D01*
X7295000Y-8220000D02*
G01*
X7295000Y-8300000D01*
X6345000Y-5056062D02*
G01*
X6346063Y-5055000D01*
X6945000Y-5055000D01*
X7356300Y-7470000D02*
G01*
X7095000Y-7690000D01*
X6670000Y-7695000D01*
X6670000Y-7760000D01*
X6945000Y-7740000D02*
G01*
X6945000Y-8765000D01*
X6020000Y-8765000D01*
X6250000Y-5080000D02*
G01*
X6975000Y-5080000D01*
X6975000Y-7740000D02*
G01*
X6975000Y-8860000D01*
X6975000Y-8865000D01*
X6970000Y-9200000D01*
X5720000Y-9200000D01*
X5720000Y-9310000D01*
X6157500Y-5105000D02*
G01*
X7010000Y-5105000D01*
X7010000Y-7740000D02*
G01*
X7010000Y-9150000D01*
X6060000Y-9150000D02*
G01*
X5620000Y-9150000D01*
X5620000Y-9310000D01*
X6050000Y-5135000D02*
G01*
X7040000Y-5135000D01*
X7040000Y-7740000D02*
G01*
X7040000Y-8955000D01*
X6060000Y-8955000D02*
G01*
X5825000Y-8955000D01*
X5950000Y-5160000D02*
G01*
X7070000Y-5160000D01*
X7070000Y-7740000D02*
G01*
X7070000Y-8010000D01*
X5160000Y-7330000D02*
G01*
X4620000Y-7330000D01*
X5350000Y-5110000D02*
G01*
X4545000Y-5110000D01*
X4070000Y-6000000D02*
G01*
X4070000Y-6150000D01*
X4070000Y-7125000D02*
G01*
X4070000Y-8170000D01*
X5450000Y-5145000D02*
G01*
X4475000Y-5145000D01*
X4140000Y-5880000D02*
G01*
X4140000Y-6150000D01*
X4140000Y-7305000D02*
G01*
X4140000Y-8115000D01*
X4490000Y-8115000D02*
G01*
X4490000Y-8955000D01*
X5918950Y-5225799D02*
G01*
X5750000Y-5225799D01*
X5905000Y-4695000D02*
G01*
X5905000Y-4415000D01*
X6055000Y-4415000D01*
X5750000Y-4475000D02*
G01*
X5905000Y-4630000D01*
X5905000Y-4695000D01*
X5750000Y-4965000D02*
G01*
X5750000Y-4695000D01*
X5905000Y-4695000D01*
D11*
X4455000Y-2490000D02*
G01*
X4455000Y-2615000D01*
D10*
X6330000Y-2810000D02*
G01*
X6330000Y-2670000D01*
X6290000Y-2810000D02*
G01*
X6230000Y-2750000D01*
X6230000Y-2670000D01*
X7230000Y-2670000D02*
G01*
X7230000Y-3020000D01*
X7785000Y-3660000D02*
G01*
X7765000Y-3660000D01*
X7230000Y-3660000D01*
X7230000Y-3285000D01*
X4250000Y-5595000D02*
G01*
X4250000Y-6130000D01*
X6260000Y-6130000D01*
X6260000Y-6030000D01*
X6165000Y-7435000D02*
G01*
X5365000Y-7435000D01*
X6220000Y-7405000D02*
G01*
X6220000Y-7405000D01*
X6365000Y-7405000D01*
X3710000Y-6020000D02*
G01*
X3710000Y-6290000D01*
X3825000Y-6290000D01*
X5950000Y-4965000D02*
G01*
X5950000Y-4890000D01*
X5980000Y-4860000D01*
X5980000Y-4780000D01*
X3750000Y-2640000D02*
G01*
X3750000Y-2585000D01*
X5020000Y-8715000D02*
G01*
X5020000Y-8625000D01*
X8100000Y-8975000D02*
G01*
X8260000Y-8975000D01*
X8260000Y-8975000D02*
G01*
X8430000Y-8975000D01*
X8430000Y-8975000D02*
G01*
X8430000Y-9175000D01*
X8760000Y-8975000D02*
G01*
X8760000Y-9175000D01*
X8760000Y-9175000D02*
G01*
X8760000Y-9270000D01*
X8430000Y-9270000D01*
X8430000Y-9175000D01*
X8100000Y-8975000D02*
G01*
X8020000Y-8895000D01*
X7270000Y-8895000D01*
X7270000Y-8975000D01*
D11*
X7725000Y-8145000D02*
G01*
X7805000Y-8145000D01*
X8100000Y-9175000D02*
G01*
X8100000Y-9075000D01*
X7770000Y-9075000D01*
X7770000Y-8975000D01*
D10*
X8085000Y-7340000D02*
G01*
X8085000Y-7220000D01*
X8455000Y-7510000D02*
G01*
X8455000Y-7220000D01*
X7635000Y-8595020D02*
G01*
X7635000Y-8840000D01*
X7415000Y-8840000D01*
X2855000Y-8265000D02*
G01*
X3075000Y-8265000D01*
X3075000Y-8124979D01*
X4290000Y-6030000D02*
G01*
X4860000Y-6030000D01*
X305000Y-4700000D02*
G01*
X455000Y-4700000D01*
X455000Y-4974996D01*
X305000Y-4600000D02*
G01*
X635000Y-4600000D01*
X635000Y-4975000D01*
D11*
X635000Y-5375000D02*
G01*
X455003Y-5375000D01*
X455000Y-5374996D02*
G01*
X320000Y-5375000D01*
X318159Y-7330000D01*
D10*
X3790000Y-4500000D02*
G01*
X4835000Y-4500000D01*
X4835000Y-4330000D01*
X5100000Y-4330000D01*
X2560000Y-6160000D02*
G01*
X2445000Y-6160000D01*
D11*
X635000Y-5375000D02*
G01*
X635000Y-5805000D01*
X910000Y-5805000D01*
D10*
X910000Y-6005000D02*
G01*
X910000Y-6105000D01*
X1450000Y-6105000D01*
X1450000Y-6000000D01*
D11*
X910000Y-5805000D02*
G01*
X960000Y-5855000D01*
X1390000Y-5855000D01*
X1435000Y-5800000D01*
X1450000Y-5800000D01*
X1450000Y-5800000D02*
G01*
X1500000Y-5850000D01*
X1935000Y-5850000D01*
X1985000Y-5800000D01*
X2000000Y-5800000D01*
D10*
X910000Y-5705000D02*
G01*
X960000Y-5755000D01*
X1385000Y-5755000D01*
X1440000Y-5700000D01*
X1450000Y-5700000D01*
X1450000Y-5700000D02*
G01*
X1515000Y-5750000D01*
X1930000Y-5750000D01*
X1990000Y-5700000D01*
X2000000Y-5700000D01*
D11*
X2445000Y-6060000D02*
G01*
X2560000Y-6060000D01*
D10*
X2790000Y-6366736D02*
G01*
X2790000Y-6165000D01*
X2785000Y-6160000D01*
X2560000Y-6160000D01*
X2860000Y-6260000D02*
G01*
X3005000Y-6260000D01*
X1030000Y-5155000D02*
G01*
X1035000Y-5155000D01*
X1210000Y-5505000D02*
G01*
X1030000Y-5505000D01*
X1030000Y-5155000D01*
X1605000Y-3400000D02*
G01*
X1720000Y-3400000D01*
X1720000Y-4955000D01*
X1565000Y-5155000D02*
G01*
X1565000Y-5500000D01*
X1750000Y-5500000D01*
X1605000Y-3300000D02*
G01*
X1750000Y-3300000D01*
X1750000Y-4950000D01*
X2130000Y-4950000D01*
X2130000Y-5180000D02*
G01*
X2130000Y-5500000D01*
X2300000Y-5500000D01*
X1505000Y-3000000D02*
G01*
X1555000Y-3050000D01*
X1775000Y-3050000D01*
X1775000Y-4920000D01*
X2160000Y-4920000D01*
X2160000Y-4950000D01*
X1505000Y-2900000D02*
G01*
X1555000Y-2950000D01*
X1800000Y-2950000D01*
X1800000Y-4885000D01*
X2185000Y-4885000D01*
X2185000Y-4950000D01*
X1605000Y-2000000D02*
G01*
X1975000Y-2000000D01*
X1975000Y-2575000D01*
X1605000Y-1900000D02*
G01*
X2015000Y-1900000D01*
X2015000Y-2575000D01*
X1605000Y-2100000D02*
G01*
X1815000Y-2100000D01*
X1815000Y-2575000D01*
X1605000Y-1800000D02*
G01*
X2050000Y-1800000D01*
X2050000Y-2575000D01*
X2160000Y-5100000D02*
G01*
X2160000Y-5100000D01*
X2700000Y-5100000D01*
X1815000Y-2650000D02*
G01*
X1825000Y-2660000D01*
X1825000Y-4855000D01*
X2215000Y-4855000D01*
X2215000Y-4975000D01*
X2245000Y-5205000D02*
G01*
X2245000Y-5300000D01*
X1975000Y-2650000D02*
G01*
X1975000Y-4830000D01*
X2240000Y-4830000D01*
X2240000Y-4975000D01*
X2015000Y-2650000D02*
G01*
X2015000Y-4805000D01*
X2265000Y-4805000D01*
X2265000Y-4975000D01*
X2050000Y-2650000D02*
G01*
X2050000Y-4775000D01*
X2290000Y-4775000D01*
X2290000Y-4975000D01*
X925000Y-3500000D02*
G01*
X925000Y-4955000D01*
X885000Y-3390000D02*
G01*
X885000Y-4980000D01*
X1745000Y-4980000D01*
X1700000Y-5165000D02*
G01*
X1700000Y-5350000D01*
X1750000Y-5400000D01*
X2300000Y-5400000D02*
G01*
X2455000Y-5400000D01*
X2455000Y-5175000D01*
X2455000Y-4939400D02*
G01*
X2455000Y-3295000D01*
X2860000Y-6360000D02*
G01*
X2790000Y-6360000D01*
X2790000Y-6560000D01*
X2860000Y-6560000D01*
X7880000Y-4065000D02*
G01*
X8025000Y-4065000D01*
X7880000Y-4165000D02*
G01*
X8025000Y-4165000D01*
D11*
X8325000Y-3875000D02*
G01*
X8325000Y-4065000D01*
D10*
X8025000Y-4365000D02*
G01*
X8225000Y-4365000D01*
X8225000Y-3875000D01*
D11*
X7665000Y-3540000D02*
G01*
X7750000Y-3625000D01*
X8325000Y-3625000D01*
X8325000Y-3875000D01*
D10*
X4000000Y-5430000D02*
G01*
X5500000Y-5430000D01*
X4190000Y-5447500D02*
G01*
X4695000Y-5447500D01*
X4695000Y-5470000D01*
X5050000Y-5470000D01*
X5050000Y-5565000D01*
X4220000Y-5465000D02*
G01*
X4670000Y-5465000D01*
X4670000Y-5485000D01*
X4950000Y-5485000D01*
X4950000Y-5565000D01*
X5050000Y-5470000D02*
G01*
X6010000Y-5470000D01*
X6220000Y-5470000D02*
G01*
X6420000Y-5470000D01*
X5070000Y-5495000D02*
G01*
X6010000Y-5495000D01*
X6220000Y-5495000D02*
G01*
X6420000Y-5495000D01*
X6475000Y-5470000D02*
G01*
X7750000Y-5470000D01*
X6475000Y-5495000D02*
G01*
X7750000Y-5495000D01*
D11*
X1750000Y-5180000D02*
G01*
X1750000Y-5300000D01*
X2295000Y-5180000D02*
G01*
X2300000Y-5185000D01*
X2300000Y-5300000D01*
X1205000Y-5180000D02*
G01*
X1210000Y-5185000D01*
X1210000Y-5305000D01*
X1750000Y-5300000D02*
G01*
X1925000Y-5300000D01*
X1925000Y-5690000D01*
D10*
X5945000Y-5715000D02*
G01*
X4840000Y-5715000D01*
X4575000Y-5715000D01*
X6665000Y-6965000D02*
G01*
X7475000Y-6965000D01*
X6660000Y-6630000D02*
G01*
X6710000Y-6680000D01*
X7210000Y-6680000D01*
X6760000Y-6030000D02*
G01*
X6760000Y-6130000D01*
X7110000Y-6130000D01*
X6560000Y-6350000D02*
G01*
X7170000Y-6350000D01*
X6460000Y-6030000D02*
G01*
X6465000Y-6035000D01*
X6465000Y-6155000D01*
X7130000Y-6155000D01*
X6360000Y-6030000D02*
G01*
X6360000Y-6180000D01*
X7150000Y-6180000D01*
X6471400Y-6815000D02*
G01*
X6476400Y-6810000D01*
X7375000Y-6810000D01*
X6369799Y-6815000D02*
G01*
X6419799Y-6765000D01*
X7355000Y-6765000D01*
X6268198Y-6815000D02*
G01*
X6343198Y-6740000D01*
X7315000Y-6740000D01*
X6065000Y-6815000D02*
G01*
X6110000Y-6860000D01*
X7395000Y-6860000D01*
X5963397Y-6815000D02*
G01*
X6038397Y-6890000D01*
X7415000Y-6890000D01*
X5865000Y-7040000D02*
G01*
X5925000Y-6980000D01*
X6090000Y-6980000D01*
X6135000Y-6935000D01*
X7455000Y-6935000D01*
X6166602Y-6815000D02*
G01*
X6261602Y-6720000D01*
X7295000Y-6720000D01*
X6654799Y-5815000D02*
G01*
X6749799Y-5910000D01*
X7090000Y-5910000D01*
X6810000Y-6630000D02*
G01*
X7190000Y-6630000D01*
X7796300Y-7465000D02*
G01*
X7800000Y-7465000D01*
X7800000Y-5225799D01*
X5918999Y-5225799D01*
X7660000Y-5322500D02*
G01*
X7660000Y-5230000D01*
X4180000Y-5735000D02*
G01*
X4180000Y-5655000D01*
X3095000Y-5655000D01*
X3095000Y-5610000D01*
X5705000Y-2840000D02*
G01*
X5705000Y-2755000D01*
X1450000Y-6105000D02*
G01*
X2000000Y-6105000D01*
X2000000Y-6100000D01*
X2000000Y-6000000D01*
X4150000Y-5690000D02*
G01*
X3175000Y-5690000D01*
X3155000Y-5710000D01*
X3090000Y-5710000D01*
X7795000Y-1545000D02*
G01*
X7710000Y-1545000D01*
X6985000Y-2370000D02*
G01*
X7205000Y-2590000D01*
X7460000Y-2590000D01*
X7480000Y-2610000D01*
X7480000Y-2785000D01*
D12*
G01*
X2445000Y-6060000D03*
G01*
X2445000Y-6160000D03*
G01*
X2295000Y-5180000D03*
G01*
X2195000Y-5180000D03*
G01*
X1750000Y-5180000D03*
G01*
X1650000Y-5180000D03*
G01*
X1205000Y-5180000D03*
G01*
X1105000Y-5180000D03*
D13*
G01*
X3005000Y-6260000D03*
G01*
X3405000Y-6260000D03*
D14*
G01*
X2860000Y-5460000D03*
G01*
X2860000Y-5560000D03*
G01*
X2860000Y-5660000D03*
G01*
X2860000Y-5760000D03*
G01*
X2860000Y-5860000D03*
G01*
X2860000Y-5960000D03*
G01*
X2860000Y-6060000D03*
G01*
X2560000Y-6060000D03*
G01*
X2860000Y-5360000D03*
G01*
X2860000Y-5260000D03*
G01*
X2560000Y-5960000D03*
G01*
X2560000Y-5860000D03*
G01*
X2560000Y-5760000D03*
G01*
X2560000Y-5660000D03*
G01*
X2560000Y-5560000D03*
G01*
X2560000Y-5460000D03*
G01*
X2560000Y-5360000D03*
D15*
G01*
X2560000Y-5260000D03*
D14*
G01*
X2560000Y-6160000D03*
G01*
X2560000Y-6260000D03*
G01*
X2560000Y-6360000D03*
G01*
X2560000Y-6460000D03*
G01*
X2560000Y-6560000D03*
G01*
X2860000Y-6560000D03*
G01*
X2860000Y-6460000D03*
G01*
X2860000Y-6360000D03*
G01*
X2860000Y-6260000D03*
G01*
X2860000Y-6160000D03*
D16*
G01*
X910000Y-5305000D03*
G01*
X910000Y-5405000D03*
G01*
X910000Y-5505000D03*
G01*
X910000Y-5605000D03*
G01*
X910000Y-5705000D03*
G01*
X910000Y-5805000D03*
G01*
X910000Y-5905000D03*
G01*
X910000Y-6005000D03*
G01*
X1210000Y-5305000D03*
G01*
X1210000Y-5405000D03*
G01*
X1210000Y-5505000D03*
G01*
X1210000Y-5605000D03*
G01*
X1210000Y-5705000D03*
G01*
X1210000Y-5805000D03*
G01*
X1210000Y-5905000D03*
G01*
X1210000Y-6005000D03*
G01*
X1450000Y-5300000D03*
G01*
X1450000Y-5400000D03*
G01*
X1450000Y-5500000D03*
G01*
X1450000Y-5600000D03*
G01*
X1450000Y-5700000D03*
G01*
X1450000Y-5800000D03*
G01*
X1450000Y-5900000D03*
G01*
X1450000Y-6000000D03*
G01*
X1750000Y-5300000D03*
G01*
X1750000Y-5400000D03*
G01*
X1750000Y-5500000D03*
G01*
X1750000Y-5600000D03*
G01*
X1750000Y-5700000D03*
G01*
X1750000Y-5800000D03*
G01*
X1750000Y-5900000D03*
G01*
X1750000Y-6000000D03*
G01*
X2000000Y-5300000D03*
G01*
X2000000Y-5400000D03*
G01*
X2000000Y-5500000D03*
G01*
X2000000Y-5600000D03*
G01*
X2000000Y-5700000D03*
G01*
X2000000Y-5800000D03*
G01*
X2000000Y-5900000D03*
G01*
X2000000Y-6000000D03*
G01*
X2300000Y-5300000D03*
G01*
X2300000Y-5400000D03*
G01*
X2300000Y-5500000D03*
G01*
X2300000Y-5600000D03*
G01*
X2300000Y-5700000D03*
G01*
X2300000Y-5800000D03*
G01*
X2300000Y-5900000D03*
G01*
X2300000Y-6000000D03*
D17*
G01*
X8015000Y-2470000D03*
G01*
X8015000Y-2370000D03*
G01*
X8015000Y-2270000D03*
G01*
X8015000Y-2170000D03*
G01*
X8015000Y-2070000D03*
D18*
G01*
X8015000Y-1970000D03*
D19*
G01*
X5920000Y-9310000D03*
G01*
X5820000Y-9310000D03*
G01*
X5720000Y-9310000D03*
G01*
X5620000Y-9310000D03*
G01*
X5520000Y-9310000D03*
D20*
G01*
X5420000Y-9310000D03*
D19*
G01*
X4540000Y-9310000D03*
G01*
X4440000Y-9310000D03*
G01*
X4340000Y-9310000D03*
G01*
X4240000Y-9310000D03*
G01*
X4140000Y-9310000D03*
D20*
G01*
X4040000Y-9310000D03*
D21*
G01*
X8135000Y-7740000D03*
G01*
X8085000Y-7740000D03*
D22*
G01*
X8035000Y-7740000D03*
D21*
G01*
X7690000Y-7740000D03*
G01*
X7640000Y-7740000D03*
D22*
G01*
X7590000Y-7740000D03*
D12*
G01*
X4240000Y-9105000D03*
G01*
X4140000Y-9105000D03*
G01*
X4240000Y-8915000D03*
G01*
X4140000Y-8915000D03*
D13*
G01*
X4250000Y-5595000D03*
G01*
X4650000Y-5595000D03*
G01*
X1985000Y-7880000D03*
G01*
X1985000Y-7480000D03*
G01*
X6020000Y-8365000D03*
G01*
X6020000Y-8765000D03*
D23*
G01*
X7635000Y-8595020D03*
D24*
G01*
X7635000Y-8495020D03*
D25*
G01*
X2810000Y-1000000D03*
G01*
X2810000Y-4700000D03*
G01*
X2810000Y-4600000D03*
G01*
X2810000Y-4500000D03*
G01*
X2810000Y-4400000D03*
G01*
X2810000Y-4300000D03*
G01*
X2810000Y-4200000D03*
G01*
X2810000Y-4100000D03*
G01*
X2810000Y-4000000D03*
G01*
X2810000Y-3900000D03*
G01*
X2810000Y-3800000D03*
G01*
X2810000Y-3700000D03*
G01*
X2810000Y-3600000D03*
G01*
X2810000Y-3500000D03*
G01*
X2810000Y-3400000D03*
G01*
X2810000Y-3300000D03*
G01*
X2810000Y-3200000D03*
G01*
X2810000Y-3100000D03*
G01*
X2810000Y-3000000D03*
G01*
X2810000Y-2900000D03*
G01*
X2810000Y-2800000D03*
G01*
X2810000Y-2700000D03*
G01*
X2810000Y-2600000D03*
G01*
X2810000Y-2500000D03*
G01*
X2810000Y-2400000D03*
G01*
X2810000Y-2300000D03*
G01*
X2810000Y-2200000D03*
G01*
X2810000Y-2100000D03*
G01*
X2810000Y-2000000D03*
G01*
X2810000Y-1900000D03*
G01*
X2810000Y-1800000D03*
G01*
X2810000Y-1700000D03*
G01*
X2810000Y-1600000D03*
G01*
X2810000Y-1500000D03*
G01*
X2810000Y-1400000D03*
G01*
X2810000Y-1300000D03*
G01*
X2810000Y-1200000D03*
G01*
X2810000Y-1100000D03*
G01*
X2810000Y-4800000D03*
G01*
X2810000Y-4900000D03*
G01*
X2710000Y-1000000D03*
G01*
X2710000Y-4700000D03*
G01*
X2710000Y-4600000D03*
G01*
X2710000Y-4500000D03*
G01*
X2710000Y-4400000D03*
G01*
X2710000Y-4300000D03*
G01*
X2710000Y-4200000D03*
G01*
X2710000Y-4100000D03*
G01*
X2710000Y-4000000D03*
G01*
X2710000Y-3900000D03*
G01*
X2710000Y-3800000D03*
G01*
X2710000Y-3700000D03*
G01*
X2710000Y-3600000D03*
G01*
X2710000Y-3500000D03*
G01*
X2710000Y-3400000D03*
G01*
X2710000Y-3300000D03*
G01*
X2710000Y-3200000D03*
G01*
X2710000Y-3100000D03*
G01*
X2710000Y-3000000D03*
G01*
X2710000Y-2900000D03*
G01*
X2710000Y-2800000D03*
G01*
X2710000Y-2700000D03*
G01*
X2710000Y-2600000D03*
G01*
X2710000Y-2500000D03*
G01*
X2710000Y-2400000D03*
G01*
X2710000Y-2300000D03*
G01*
X2710000Y-2200000D03*
G01*
X2710000Y-2100000D03*
G01*
X2710000Y-2000000D03*
G01*
X2710000Y-1900000D03*
G01*
X2710000Y-1800000D03*
G01*
X2710000Y-1700000D03*
G01*
X2710000Y-1600000D03*
G01*
X2710000Y-1500000D03*
G01*
X2710000Y-1400000D03*
G01*
X2710000Y-1300000D03*
G01*
X2710000Y-1200000D03*
G01*
X2710000Y-1100000D03*
G01*
X2710000Y-4800000D03*
G01*
X2710000Y-4900000D03*
G01*
X1605000Y-1000000D03*
G01*
X1605000Y-4700000D03*
G01*
X1605000Y-4600000D03*
G01*
X1605000Y-4500000D03*
G01*
X1605000Y-4400000D03*
G01*
X1605000Y-4300000D03*
G01*
X1605000Y-4200000D03*
G01*
X1605000Y-4100000D03*
G01*
X1605000Y-4000000D03*
G01*
X1605000Y-3900000D03*
G01*
X1605000Y-3800000D03*
G01*
X1605000Y-3700000D03*
G01*
X1605000Y-3600000D03*
G01*
X1605000Y-3500000D03*
G01*
X1605000Y-3400000D03*
G01*
X1605000Y-3300000D03*
G01*
X1605000Y-3200000D03*
G01*
X1605000Y-3100000D03*
G01*
X1605000Y-3000000D03*
G01*
X1605000Y-2900000D03*
G01*
X1605000Y-2800000D03*
G01*
X1605000Y-2700000D03*
G01*
X1605000Y-2600000D03*
G01*
X1605000Y-2500000D03*
G01*
X1605000Y-2400000D03*
G01*
X1605000Y-2300000D03*
G01*
X1605000Y-2200000D03*
G01*
X1605000Y-2100000D03*
G01*
X1605000Y-2000000D03*
G01*
X1605000Y-1900000D03*
G01*
X1605000Y-1800000D03*
G01*
X1605000Y-1700000D03*
G01*
X1605000Y-1600000D03*
G01*
X1605000Y-1500000D03*
G01*
X1605000Y-1400000D03*
G01*
X1605000Y-1300000D03*
G01*
X1605000Y-1200000D03*
G01*
X1605000Y-1100000D03*
G01*
X1605000Y-4800000D03*
G01*
X1605000Y-4900000D03*
G01*
X1505000Y-1000000D03*
G01*
X1505000Y-4700000D03*
G01*
X1505000Y-4600000D03*
G01*
X1505000Y-4500000D03*
G01*
X1505000Y-4400000D03*
G01*
X1505000Y-4300000D03*
G01*
X1505000Y-4200000D03*
G01*
X1505000Y-4100000D03*
G01*
X1505000Y-4000000D03*
G01*
X1505000Y-3900000D03*
G01*
X1505000Y-3800000D03*
G01*
X1505000Y-3700000D03*
G01*
X1505000Y-3600000D03*
G01*
X1505000Y-3500000D03*
G01*
X1505000Y-3400000D03*
G01*
X1505000Y-3300000D03*
G01*
X1505000Y-3200000D03*
G01*
X1505000Y-3100000D03*
G01*
X1505000Y-3000000D03*
G01*
X1505000Y-2900000D03*
G01*
X1505000Y-2800000D03*
G01*
X1505000Y-2700000D03*
G01*
X1505000Y-2600000D03*
G01*
X1505000Y-2500000D03*
G01*
X1505000Y-2400000D03*
G01*
X1505000Y-2300000D03*
G01*
X1505000Y-2200000D03*
G01*
X1505000Y-2100000D03*
G01*
X1505000Y-2000000D03*
G01*
X1505000Y-1900000D03*
G01*
X1505000Y-1800000D03*
G01*
X1505000Y-1700000D03*
G01*
X1505000Y-1600000D03*
G01*
X1505000Y-1500000D03*
G01*
X1505000Y-1400000D03*
G01*
X1505000Y-1300000D03*
G01*
X1505000Y-1200000D03*
G01*
X1505000Y-1100000D03*
G01*
X1505000Y-4800000D03*
G01*
X1505000Y-4900000D03*
G01*
X305000Y-1000000D03*
G01*
X305000Y-4700000D03*
G01*
X305000Y-4600000D03*
G01*
X305000Y-4500000D03*
G01*
X305000Y-4400000D03*
G01*
X305000Y-4300000D03*
G01*
X305000Y-4200000D03*
G01*
X305000Y-4100000D03*
G01*
X305000Y-4000000D03*
G01*
X305000Y-3900000D03*
G01*
X305000Y-3800000D03*
G01*
X305000Y-3700000D03*
G01*
X305000Y-3600000D03*
G01*
X305000Y-3500000D03*
G01*
X305000Y-3400000D03*
G01*
X305000Y-3300000D03*
G01*
X305000Y-3200000D03*
G01*
X305000Y-3100000D03*
G01*
X305000Y-3000000D03*
G01*
X305000Y-2900000D03*
G01*
X305000Y-2800000D03*
G01*
X305000Y-2700000D03*
G01*
X305000Y-2600000D03*
G01*
X305000Y-2500000D03*
G01*
X305000Y-2400000D03*
G01*
X305000Y-2300000D03*
G01*
X305000Y-2200000D03*
G01*
X305000Y-2100000D03*
G01*
X305000Y-2000000D03*
G01*
X305000Y-1900000D03*
G01*
X305000Y-1800000D03*
G01*
X305000Y-1700000D03*
G01*
X305000Y-1600000D03*
G01*
X305000Y-1500000D03*
G01*
X305000Y-1400000D03*
G01*
X305000Y-1300000D03*
G01*
X305000Y-1200000D03*
G01*
X305000Y-1100000D03*
G01*
X305000Y-4800000D03*
G01*
X305000Y-4900000D03*
G01*
X205000Y-1000000D03*
G01*
X205000Y-4700000D03*
G01*
X205000Y-4600000D03*
G01*
X205000Y-4500000D03*
G01*
X205000Y-4400000D03*
G01*
X205000Y-4300000D03*
G01*
X205000Y-4200000D03*
G01*
X205000Y-4100000D03*
G01*
X205000Y-4000000D03*
G01*
X205000Y-3900000D03*
G01*
X205000Y-3800000D03*
G01*
X205000Y-3700000D03*
G01*
X205000Y-3600000D03*
G01*
X205000Y-3500000D03*
G01*
X205000Y-3400000D03*
G01*
X205000Y-3300000D03*
G01*
X205000Y-3200000D03*
G01*
X205000Y-3100000D03*
G01*
X205000Y-3000000D03*
G01*
X205000Y-2900000D03*
G01*
X205000Y-2800000D03*
G01*
X205000Y-2700000D03*
G01*
X205000Y-2600000D03*
G01*
X205000Y-2500000D03*
G01*
X205000Y-2400000D03*
G01*
X205000Y-2300000D03*
G01*
X205000Y-2200000D03*
G01*
X205000Y-2100000D03*
G01*
X205000Y-2000000D03*
G01*
X205000Y-1900000D03*
G01*
X205000Y-1800000D03*
G01*
X205000Y-1700000D03*
G01*
X205000Y-1600000D03*
G01*
X205000Y-1500000D03*
G01*
X205000Y-1400000D03*
G01*
X205000Y-1300000D03*
G01*
X205000Y-1200000D03*
G01*
X205000Y-1100000D03*
G01*
X205000Y-4800000D03*
G01*
X205000Y-4900000D03*
D26*
G01*
X3445000Y-7815000D03*
G01*
X3445000Y-8215000D03*
D27*
G01*
X7796300Y-7465000D03*
G01*
X8083699Y-7465000D03*
G01*
X7356300Y-7470000D03*
G01*
X7643699Y-7470000D03*
D12*
G01*
X1890000Y-2700000D03*
G01*
X1890000Y-2600000D03*
G01*
X555000Y-2700000D03*
G01*
X555000Y-2600000D03*
D28*
G01*
X9090000Y-9175000D03*
G01*
X8920000Y-9175000D03*
G01*
X8760000Y-9175000D03*
G01*
X8590000Y-9175000D03*
G01*
X8430000Y-9175000D03*
G01*
X8260000Y-9175000D03*
G01*
X8100000Y-9175000D03*
G01*
X7930000Y-9175000D03*
G01*
X7770000Y-9175000D03*
G01*
X7600000Y-9175000D03*
G01*
X7440000Y-9175000D03*
G01*
X7270000Y-9175000D03*
G01*
X9090000Y-8975000D03*
G01*
X8920000Y-8975000D03*
G01*
X8760000Y-8975000D03*
G01*
X8590000Y-8975000D03*
G01*
X8430000Y-8975000D03*
G01*
X8260000Y-8975000D03*
G01*
X8100000Y-8975000D03*
G01*
X7930000Y-8975000D03*
G01*
X7770000Y-8975000D03*
G01*
X7600000Y-8975000D03*
G01*
X7440000Y-8975000D03*
G01*
X7270000Y-8975000D03*
D12*
G01*
X8225000Y-3875000D03*
G01*
X8325000Y-3875000D03*
D13*
G01*
X5020000Y-8715000D03*
G01*
X5420000Y-8715000D03*
D29*
G01*
X6765000Y-7040000D03*
D12*
G01*
X6665000Y-7040000D03*
G01*
X6565000Y-7040000D03*
G01*
X6465000Y-7040000D03*
G01*
X6365000Y-7040000D03*
G01*
X6265000Y-7040000D03*
G01*
X6165000Y-7040000D03*
G01*
X6065000Y-7040000D03*
G01*
X5965000Y-7040000D03*
G01*
X5865000Y-7040000D03*
G01*
X5765000Y-7040000D03*
G01*
X5665000Y-7040000D03*
G01*
X5565000Y-7040000D03*
G01*
X5465000Y-7040000D03*
G01*
X5365000Y-7040000D03*
G01*
X5265000Y-7040000D03*
G01*
X5265000Y-7640000D03*
G01*
X5365000Y-7640000D03*
G01*
X5465000Y-7640000D03*
G01*
X5565000Y-7640000D03*
G01*
X5665000Y-7640000D03*
G01*
X5765000Y-7640000D03*
G01*
X5865000Y-7640000D03*
G01*
X5965000Y-7640000D03*
G01*
X6065000Y-7640000D03*
G01*
X6165000Y-7640000D03*
G01*
X6265000Y-7640000D03*
G01*
X6365000Y-7640000D03*
G01*
X6465000Y-7640000D03*
G01*
X6565000Y-7640000D03*
G01*
X6665000Y-7640000D03*
G01*
X6765000Y-7640000D03*
D30*
G01*
X8765000Y-4174560D03*
D31*
G01*
X8765000Y-3875399D03*
D32*
G01*
X1355000Y-9305000D03*
D33*
G01*
X1355000Y-9205000D03*
D32*
G01*
X1245000Y-9305000D03*
D33*
G01*
X1245000Y-9205000D03*
D32*
G01*
X1135000Y-9305000D03*
D33*
G01*
X1135000Y-9205000D03*
D34*
G01*
X7660000Y-4497500D03*
G01*
X7660000Y-5322500D03*
D32*
G01*
X7445000Y-8045000D03*
D33*
G01*
X7445000Y-8145000D03*
D35*
G01*
X9398000Y-225000D03*
G01*
X8863999Y-225000D03*
D36*
G01*
X9130000Y-193000D03*
D37*
G01*
X9181000Y-343000D03*
G01*
X9078999Y-343000D03*
G01*
X8996000Y-343000D03*
G01*
X9263999Y-343000D03*
G01*
X9263999Y-440999D03*
G01*
X8996000Y-439000D03*
D35*
G01*
X8568000Y-225000D03*
G01*
X8033999Y-225000D03*
D36*
G01*
X8300000Y-193000D03*
D37*
G01*
X8351000Y-343000D03*
G01*
X8248999Y-343000D03*
G01*
X8166000Y-343000D03*
G01*
X8433999Y-343000D03*
G01*
X8433999Y-440999D03*
G01*
X8166000Y-439000D03*
D38*
G01*
X7802129Y-435030D03*
G01*
X6817870Y-435030D03*
D39*
G01*
X7509309Y-535030D03*
G01*
X7420730Y-535030D03*
G01*
X7332150Y-535030D03*
G01*
X7243570Y-535030D03*
G01*
X7154979Y-535030D03*
G01*
X7465020Y-435030D03*
G01*
X7376440Y-435030D03*
G01*
X7287860Y-435030D03*
G01*
X7199279Y-435030D03*
G01*
X7110690Y-435030D03*
G01*
X7509309Y-335030D03*
G01*
X7420730Y-335030D03*
G01*
X7332150Y-335030D03*
G01*
X7243570Y-335030D03*
G01*
X7154979Y-335030D03*
D40*
G01*
X8575000Y-7510000D03*
D41*
G01*
X8585000Y-7650000D03*
G01*
X8575000Y-7800000D03*
D13*
G01*
X8330000Y-7395000D03*
G01*
X8330000Y-7795000D03*
G01*
X8855000Y-7794979D03*
G01*
X8855000Y-7394979D03*
D40*
G01*
X3870000Y-1905000D03*
D41*
G01*
X4010000Y-1895000D03*
G01*
X4160000Y-1905000D03*
D40*
G01*
X4455000Y-1910000D03*
D41*
G01*
X4595000Y-1900000D03*
G01*
X4745000Y-1910000D03*
D13*
G01*
X4165000Y-2505010D03*
G01*
X4165000Y-2105010D03*
G01*
X3870000Y-2490000D03*
G01*
X3870000Y-2090000D03*
G01*
X4755000Y-2490000D03*
G01*
X4755000Y-2090000D03*
G01*
X4455000Y-2490000D03*
G01*
X4455000Y-2090000D03*
D12*
G01*
X5905000Y-4795000D03*
G01*
X5905000Y-4695000D03*
G01*
X5880000Y-4230000D03*
G01*
X5980000Y-4230000D03*
G01*
X5695000Y-5815000D03*
G01*
X5795000Y-5815000D03*
G01*
X4620000Y-6850000D03*
G01*
X4520000Y-6850000D03*
G01*
X6770000Y-7760000D03*
G01*
X6670000Y-7760000D03*
G01*
X5650000Y-4475000D03*
G01*
X5750000Y-4475000D03*
G01*
X5355000Y-4475000D03*
G01*
X5455000Y-4475000D03*
G01*
X5520000Y-9070000D03*
G01*
X5420000Y-9070000D03*
G01*
X5520000Y-8870000D03*
G01*
X5420000Y-8870000D03*
G01*
X3235000Y-2620000D03*
G01*
X3235000Y-2720000D03*
D42*
G01*
X5705000Y-1809369D03*
G01*
X5705000Y-1730630D03*
D43*
G01*
X4635000Y-848739D03*
D13*
G01*
X4635000Y-687319D03*
D27*
G01*
X5475789Y-935000D03*
G01*
X5574210Y-935000D03*
G01*
X4885000Y-1376300D03*
G01*
X4885000Y-1663699D03*
G01*
X4415000Y-1658699D03*
G01*
X4415000Y-1371300D03*
G01*
X5755000Y-1211300D03*
G01*
X5755000Y-1498699D03*
G01*
X5236300Y-2325000D03*
G01*
X5523699Y-2325000D03*
D44*
G01*
X4930000Y-7048739D03*
G01*
X4930000Y-7391260D03*
G01*
X5080000Y-7048739D03*
G01*
X5080000Y-7391260D03*
G01*
X3583739Y-7675000D03*
G01*
X3926260Y-7675000D03*
D45*
G01*
X2720000Y-7880000D03*
G01*
X2720000Y-7580000D03*
G01*
X5825000Y-8370000D03*
G01*
X5825000Y-8670000D03*
D13*
G01*
X4820000Y-9243999D03*
G01*
X4820000Y-9343999D03*
G01*
X4920000Y-9243999D03*
G01*
X4920000Y-9343999D03*
D43*
G01*
X5020000Y-9243999D03*
D13*
G01*
X5020000Y-9343999D03*
D46*
G01*
X4835000Y-176500D03*
G01*
X4933000Y-373499D03*
G01*
X5031999Y-373499D03*
G01*
X4736999Y-373499D03*
G01*
X4638000Y-373499D03*
D27*
G01*
X1885000Y-8120000D03*
G01*
X1985000Y-8120000D03*
G01*
X1325000Y-8119979D03*
G01*
X1425000Y-8119979D03*
G01*
X685000Y-8110000D03*
G01*
X785000Y-8110000D03*
G01*
X2975000Y-8124979D03*
G01*
X3075000Y-8124979D03*
G01*
X2425000Y-8125000D03*
G01*
X2525000Y-8125000D03*
G01*
X5825000Y-8955000D03*
G01*
X5825000Y-8855000D03*
D47*
G01*
X5288270Y-1497170D03*
G01*
X5382759Y-1497170D03*
G01*
X5477240Y-1497170D03*
G01*
X5571729Y-1497170D03*
G01*
X5571729Y-1142840D03*
G01*
X5477240Y-1142840D03*
G01*
X5382759Y-1142840D03*
G01*
X5288270Y-1142840D03*
D44*
G01*
X7630000Y-1770000D03*
G01*
X7530000Y-1770000D03*
G01*
X7430000Y-1770000D03*
G01*
X7330000Y-1770000D03*
G01*
X7230000Y-1770000D03*
G01*
X7130000Y-1770000D03*
G01*
X7030000Y-1770000D03*
G01*
X6930000Y-1770000D03*
G01*
X6830000Y-1770000D03*
G01*
X6730000Y-1770000D03*
G01*
X6630000Y-1770000D03*
G01*
X6530000Y-1770000D03*
G01*
X6430000Y-1770000D03*
G01*
X6330000Y-1770000D03*
G01*
X6230000Y-1770000D03*
G01*
X6230000Y-2670000D03*
G01*
X6330000Y-2670000D03*
G01*
X6430000Y-2670000D03*
G01*
X6530000Y-2670000D03*
G01*
X6630000Y-2670000D03*
G01*
X6730000Y-2670000D03*
G01*
X6830000Y-2670000D03*
G01*
X6930000Y-2670000D03*
G01*
X7030000Y-2670000D03*
G01*
X7130000Y-2670000D03*
G01*
X7230000Y-2670000D03*
G01*
X7330000Y-2670000D03*
G01*
X7430000Y-2670000D03*
G01*
X7530000Y-2670000D03*
G01*
X7630000Y-2670000D03*
G01*
X7750000Y-2470000D03*
G01*
X7750000Y-2370000D03*
G01*
X7750000Y-2270000D03*
G01*
X7750000Y-2170000D03*
G01*
X7750000Y-2070000D03*
G01*
X7750000Y-1970000D03*
D48*
G01*
X7750000Y-2620000D03*
G01*
X7750000Y-1820000D03*
D44*
G01*
X5805000Y-425909D03*
D49*
G01*
X5312879Y-370010D03*
D44*
G01*
X5586890Y-425909D03*
G01*
X5695940Y-425909D03*
G01*
X5914049Y-425909D03*
D50*
G01*
X6023100Y-425900D03*
D44*
G01*
X5641409Y-314099D03*
G01*
X5750469Y-314099D03*
G01*
X5859520Y-314099D03*
G01*
X5968580Y-314099D03*
D49*
G01*
X6297129Y-370010D03*
D22*
G01*
X1185000Y-7325000D03*
D21*
G01*
X1235000Y-7325000D03*
G01*
X1285000Y-7325000D03*
D22*
G01*
X530000Y-7330000D03*
D21*
G01*
X580000Y-7330000D03*
G01*
X630000Y-7330000D03*
D40*
G01*
X6525000Y-2940010D03*
D41*
G01*
X6385000Y-2950010D03*
G01*
X6235000Y-2940010D03*
D40*
G01*
X7960000Y-2935000D03*
D41*
G01*
X7820000Y-2945000D03*
G01*
X7670000Y-2935000D03*
D40*
G01*
X7320000Y-2930000D03*
D41*
G01*
X7180000Y-2940000D03*
G01*
X7030000Y-2930000D03*
D40*
G01*
X8585000Y-8250000D03*
D41*
G01*
X8595000Y-8390000D03*
G01*
X8585000Y-8540000D03*
D13*
G01*
X4755000Y-7530000D03*
G01*
X4755000Y-7930000D03*
G01*
X4935000Y-7930000D03*
G01*
X4935000Y-7530000D03*
G01*
X1145000Y-7880000D03*
G01*
X1145000Y-7480000D03*
G01*
X1325000Y-7880000D03*
G01*
X1325000Y-7480000D03*
G01*
X505000Y-7880000D03*
G01*
X505000Y-7480000D03*
G01*
X685000Y-7879979D03*
G01*
X685000Y-7479979D03*
G01*
X5550000Y-5815000D03*
G01*
X5150000Y-5815000D03*
G01*
X2420000Y-7479979D03*
G01*
X2420000Y-7879979D03*
G01*
X2895000Y-7480000D03*
G01*
X2895000Y-7880000D03*
G01*
X3075000Y-7480000D03*
G01*
X3075000Y-7880000D03*
G01*
X6230000Y-3545010D03*
G01*
X6230000Y-3145010D03*
G01*
X6525000Y-3545000D03*
G01*
X6525000Y-3145000D03*
G01*
X7665000Y-3540000D03*
G01*
X7665000Y-3140000D03*
G01*
X7970000Y-3140000D03*
G01*
X7970000Y-3540000D03*
G01*
X7870000Y-795000D03*
G01*
X7870000Y-1195000D03*
G01*
X7695000Y-795000D03*
G01*
X7695000Y-1195000D03*
G01*
X7345000Y-795000D03*
G01*
X7345000Y-1195000D03*
G01*
X7525000Y-795000D03*
G01*
X7525000Y-1195000D03*
G01*
X6995000Y-795000D03*
G01*
X6995000Y-1195000D03*
G01*
X7175000Y-795000D03*
G01*
X7175000Y-1195000D03*
G01*
X6645000Y-795000D03*
G01*
X6645000Y-1195000D03*
G01*
X6820000Y-795000D03*
G01*
X6820000Y-1195000D03*
G01*
X8065000Y-1250000D03*
G01*
X8065000Y-1650000D03*
G01*
X8260000Y-1250000D03*
G01*
X8260000Y-1650000D03*
G01*
X8060000Y-710000D03*
G01*
X8060000Y-1110000D03*
G01*
X8255000Y-710000D03*
G01*
X8255000Y-1110000D03*
G01*
X8905000Y-1250000D03*
G01*
X8905000Y-1650000D03*
G01*
X9090000Y-1250000D03*
G01*
X9090000Y-1650000D03*
G01*
X8905000Y-710000D03*
G01*
X8905000Y-1110000D03*
G01*
X9085000Y-710000D03*
G01*
X9085000Y-1110000D03*
G01*
X4880000Y-850000D03*
G01*
X4880000Y-1250000D03*
G01*
X4415000Y-1250000D03*
G01*
X4415000Y-850000D03*
G01*
X5480000Y-1730000D03*
G01*
X5480000Y-2130000D03*
G01*
X5285000Y-2130000D03*
G01*
X5285000Y-1730000D03*
G01*
X5100000Y-2725000D03*
G01*
X5100000Y-2325000D03*
G01*
X6245000Y-4414989D03*
G01*
X6245000Y-4814989D03*
G01*
X6425000Y-4414989D03*
G01*
X6425000Y-4814989D03*
G01*
X6055000Y-4815000D03*
G01*
X6055000Y-4415000D03*
G01*
X3720000Y-8215000D03*
G01*
X3720000Y-7815000D03*
G01*
X3930000Y-8210000D03*
G01*
X3930000Y-7810000D03*
G01*
X635000Y-4975000D03*
G01*
X635000Y-5375000D03*
G01*
X455000Y-4975000D03*
G01*
X455000Y-5375000D03*
G01*
X7030000Y-3535010D03*
G01*
X7030000Y-3135010D03*
G01*
X7320000Y-3535000D03*
G01*
X7320000Y-3135000D03*
G01*
X7635000Y-8285000D03*
G01*
X8035000Y-8285000D03*
G01*
X8335000Y-8145000D03*
G01*
X8335000Y-8545000D03*
G01*
X8855000Y-8550000D03*
G01*
X8855000Y-8150000D03*
G01*
X3815000Y-2815000D03*
G01*
X3815000Y-3215000D03*
D44*
G01*
X2901999Y-8426400D03*
G01*
X2901999Y-8603599D03*
G01*
X3158000Y-8426400D03*
G01*
X3158000Y-8603599D03*
G01*
X3686999Y-8426380D03*
G01*
X3686999Y-8603580D03*
G01*
X3943000Y-8426380D03*
G01*
X3943000Y-8603580D03*
G01*
X4406999Y-8436400D03*
G01*
X4406999Y-8613599D03*
G01*
X4663000Y-8436400D03*
G01*
X4663000Y-8613599D03*
D51*
G01*
X4620000Y-7630000D03*
G01*
X4620000Y-7530000D03*
G01*
X4620000Y-7430000D03*
G01*
X4620000Y-7330000D03*
G01*
X4620000Y-7230000D03*
G01*
X4620000Y-7130000D03*
G01*
X4620000Y-7030000D03*
G01*
X4320000Y-7630000D03*
G01*
X4320000Y-7530000D03*
G01*
X4320000Y-7430000D03*
G01*
X4320000Y-7330000D03*
G01*
X4320000Y-7230000D03*
G01*
X4320000Y-7130000D03*
D52*
G01*
X4320000Y-7030000D03*
D44*
G01*
X4950000Y-4965000D03*
G01*
X5150000Y-4965000D03*
G01*
X5050000Y-4965000D03*
G01*
X5550000Y-4965000D03*
G01*
X5950000Y-4965000D03*
G01*
X6050000Y-4965000D03*
G01*
X6150000Y-4965000D03*
G01*
X6250000Y-4965000D03*
G01*
X6350000Y-4965000D03*
G01*
X6450000Y-4965000D03*
G01*
X6550000Y-4965000D03*
G01*
X6650000Y-4965000D03*
D50*
G01*
X6750000Y-4965000D03*
D44*
G01*
X5850000Y-4965000D03*
G01*
X5650000Y-4965000D03*
G01*
X5750000Y-4965000D03*
G01*
X5450000Y-4965000D03*
G01*
X5250000Y-4965000D03*
G01*
X5350000Y-4965000D03*
G01*
X4850000Y-4965000D03*
G01*
X6650000Y-5565000D03*
G01*
X6750000Y-5565000D03*
G01*
X6550000Y-5565000D03*
G01*
X6450000Y-5565000D03*
G01*
X5250000Y-5565000D03*
G01*
X5350000Y-5565000D03*
G01*
X5450000Y-5565000D03*
G01*
X5550000Y-5565000D03*
G01*
X5150000Y-5565000D03*
G01*
X5050000Y-5565000D03*
G01*
X4950000Y-5565000D03*
G01*
X4850000Y-5565000D03*
G01*
X5950000Y-5565000D03*
G01*
X5850000Y-5565000D03*
G01*
X5750000Y-5565000D03*
G01*
X5650000Y-5565000D03*
G01*
X6050000Y-5565000D03*
G01*
X6150000Y-5565000D03*
G01*
X6250000Y-5565000D03*
G01*
X6350000Y-5565000D03*
D40*
G01*
X8025000Y-4065000D03*
D41*
G01*
X8025000Y-4165000D03*
G01*
X8025000Y-4265000D03*
G01*
X8025000Y-4365000D03*
G01*
X8325000Y-4065000D03*
G01*
X8325000Y-4165000D03*
G01*
X8325000Y-4265000D03*
G01*
X8325000Y-4365000D03*
D14*
G01*
X3670000Y-2015000D03*
G01*
X3670000Y-2115000D03*
G01*
X3670000Y-2215000D03*
G01*
X3670000Y-2315000D03*
G01*
X3670000Y-2415000D03*
G01*
X3670000Y-2515000D03*
G01*
X3670000Y-2615000D03*
G01*
X3370000Y-2615000D03*
G01*
X3670000Y-1915000D03*
G01*
X3670000Y-1815000D03*
G01*
X3370000Y-2515000D03*
G01*
X3370000Y-2415000D03*
G01*
X3370000Y-2315000D03*
G01*
X3370000Y-2215000D03*
G01*
X3370000Y-2115000D03*
G01*
X3370000Y-2015000D03*
G01*
X3370000Y-1915000D03*
D15*
G01*
X3370000Y-1815000D03*
D14*
G01*
X3370000Y-2715000D03*
G01*
X3370000Y-2815000D03*
G01*
X3370000Y-2915000D03*
G01*
X3370000Y-3015000D03*
G01*
X3370000Y-3115000D03*
G01*
X3670000Y-3115000D03*
G01*
X3670000Y-3015000D03*
G01*
X3670000Y-2915000D03*
G01*
X3670000Y-2815000D03*
G01*
X3670000Y-2715000D03*
D53*
G01*
X5453540Y-4680000D03*
G01*
X5646459Y-4680000D03*
D54*
G01*
X7880000Y-4065000D03*
G01*
X7880000Y-4165000D03*
D32*
G01*
X5955000Y-785000D03*
D33*
G01*
X5955000Y-885000D03*
D32*
G01*
X5810000Y-785000D03*
D33*
G01*
X5810000Y-885000D03*
D32*
G01*
X1575000Y-9305000D03*
D33*
G01*
X1575000Y-9205000D03*
D32*
G01*
X1685000Y-9305000D03*
D33*
G01*
X1685000Y-9205000D03*
D32*
G01*
X1465000Y-9305000D03*
D33*
G01*
X1465000Y-9205000D03*
D55*
G01*
X5658599Y-6815000D03*
D56*
G01*
X5760200Y-6815000D03*
G01*
X5861800Y-6815000D03*
G01*
X5963400Y-6815000D03*
G01*
X6065000Y-6815000D03*
G01*
X6166599Y-6815000D03*
G01*
X6268199Y-6815000D03*
G01*
X6369799Y-6815000D03*
G01*
X6471400Y-6815000D03*
D55*
G01*
X6756400Y-5815000D03*
D56*
G01*
X6654799Y-5815000D03*
G01*
X6553199Y-5815000D03*
G01*
X6451599Y-5815000D03*
G01*
X6350000Y-5815000D03*
G01*
X6248400Y-5815000D03*
G01*
X6146800Y-5815000D03*
G01*
X6045200Y-5815000D03*
G01*
X5943599Y-5815000D03*
D29*
G01*
X6760000Y-6035000D03*
D12*
G01*
X6660000Y-6035000D03*
G01*
X6560000Y-6035000D03*
G01*
X6460000Y-6035000D03*
G01*
X6360000Y-6035000D03*
G01*
X6260000Y-6035000D03*
G01*
X6160000Y-6035000D03*
G01*
X6060000Y-6035000D03*
G01*
X5960000Y-6035000D03*
G01*
X5860000Y-6035000D03*
G01*
X5760000Y-6035000D03*
G01*
X5660000Y-6035000D03*
G01*
X5560000Y-6035000D03*
G01*
X5460000Y-6035000D03*
G01*
X5360000Y-6035000D03*
G01*
X5260000Y-6035000D03*
G01*
X5160000Y-6035000D03*
G01*
X5060000Y-6035000D03*
G01*
X4960000Y-6035000D03*
G01*
X4860000Y-6035000D03*
G01*
X4860000Y-6635000D03*
G01*
X4960000Y-6635000D03*
G01*
X5060000Y-6635000D03*
G01*
X5160000Y-6635000D03*
G01*
X5260000Y-6635000D03*
G01*
X5360000Y-6635000D03*
G01*
X5460000Y-6635000D03*
G01*
X5560000Y-6635000D03*
G01*
X5660000Y-6635000D03*
G01*
X5760000Y-6635000D03*
G01*
X5860000Y-6635000D03*
G01*
X5960000Y-6635000D03*
G01*
X6060000Y-6635000D03*
G01*
X6160000Y-6635000D03*
G01*
X6260000Y-6635000D03*
G01*
X6360000Y-6635000D03*
G01*
X6460000Y-6635000D03*
G01*
X6560000Y-6635000D03*
G01*
X6660000Y-6635000D03*
G01*
X6760000Y-6635000D03*
D57*
G01*
X5980000Y-4665000D03*
G01*
X7810000Y-8595000D03*
G01*
X7725000Y-8595000D03*
G01*
X1420000Y-4700000D03*
G01*
X2625000Y-4700000D03*
G01*
X4000000Y-2465000D03*
G01*
X4000000Y-2370000D03*
G01*
X318159Y-7330000D03*
G01*
X225000Y-7330000D03*
G01*
X7725000Y-8145000D03*
G01*
X7805000Y-8145000D03*
G01*
X7325000Y-8790000D03*
G01*
X7440000Y-8790000D03*
G01*
X7730000Y-8790000D03*
G01*
X7810000Y-8790000D03*
G01*
X7985000Y-8790000D03*
G01*
X8045000Y-8790000D03*
G01*
X5020000Y-8520000D03*
G01*
X5475000Y-9200000D03*
G01*
X5570000Y-9200000D03*
G01*
X5575000Y-9410000D03*
G01*
X5655000Y-9410000D03*
G01*
X5135000Y-1500000D03*
G01*
X5065000Y-1500000D03*
G01*
X3750000Y-2705000D03*
G01*
X3750000Y-2520000D03*
G01*
X7455000Y-2380000D03*
G01*
X7455000Y-2210000D03*
G01*
X4455000Y-2615000D03*
G01*
X5955000Y-2925000D03*
G01*
X5955000Y-2839569D03*
G01*
X5880000Y-2925000D03*
G01*
X5880000Y-2840000D03*
G01*
X8875000Y-975000D03*
G01*
X8800000Y-975000D03*
G01*
X7435000Y-1130000D03*
G01*
X7435000Y-1050000D03*
G01*
X8090000Y-1020000D03*
G01*
X8155000Y-1020000D03*
G01*
X8280000Y-1020000D03*
G01*
X8340000Y-1020000D03*
G01*
X8000000Y-1545000D03*
G01*
X7920000Y-1545000D03*
G01*
X7795000Y-1545000D03*
G01*
X7710000Y-1545000D03*
G01*
X7520000Y-1635000D03*
G01*
X7455000Y-1635000D03*
G01*
X6740000Y-2590000D03*
G01*
X5985000Y-2615000D03*
G01*
X5750000Y-2725000D03*
G01*
X9000000Y-3485000D03*
G01*
X9000000Y-3595000D03*
G01*
X7445000Y-7795000D03*
G01*
X7445000Y-7895000D03*
G01*
X6465000Y-7485000D03*
G01*
X6165000Y-7485000D03*
G01*
X6465000Y-7530000D03*
G01*
X6665000Y-6965000D03*
G01*
X7480000Y-2870000D03*
G01*
X6985000Y-2370000D03*
G01*
X6085000Y-1905000D03*
G01*
X5985000Y-1050000D03*
G01*
X5870000Y-1050000D03*
G01*
X5800000Y-2925000D03*
G01*
X5800000Y-2840000D03*
G01*
X5800000Y-2630000D03*
G01*
X5800000Y-2545000D03*
G01*
X5820000Y-1115000D03*
G01*
X5820000Y-1065000D03*
G01*
X5705000Y-2925000D03*
G01*
X5705000Y-2690000D03*
G01*
X5905000Y-2595000D03*
G01*
X5840000Y-2595000D03*
G01*
X8505000Y-7843289D03*
G01*
X8505000Y-7755000D03*
G01*
X8505000Y-7220000D03*
G01*
X8505000Y-7115000D03*
G01*
X9015000Y-7840000D03*
G01*
X9015000Y-7750000D03*
G01*
X8925000Y-7225000D03*
G01*
X8925000Y-7120000D03*
G01*
X8925000Y-3595000D03*
G01*
X8925000Y-3485000D03*
G01*
X7960000Y-2815000D03*
G01*
X7960000Y-2717120D03*
G01*
X8455000Y-7115000D03*
G01*
X6415000Y-3690000D03*
G01*
X6415000Y-3570000D03*
G01*
X6330000Y-2895000D03*
G01*
X8085000Y-7115000D03*
G01*
X6350000Y-3690000D03*
G01*
X6350000Y-3570000D03*
G01*
X6290000Y-2895000D03*
G01*
X4760000Y-9445000D03*
G01*
X4190000Y-8755000D03*
G01*
X4290000Y-8755000D03*
G01*
X1770000Y-9144080D03*
G01*
X4190000Y-8690000D03*
G01*
X4305000Y-8575000D03*
G01*
X2765000Y-7180000D03*
G01*
X2680000Y-7180000D03*
G01*
X2675000Y-7405000D03*
G01*
X2760000Y-7405000D03*
G01*
X7325000Y-8840000D03*
G01*
X1355000Y-9530000D03*
G01*
X3375000Y-9485000D03*
G01*
X3485000Y-9485000D03*
G01*
X7365000Y-8265000D03*
G01*
X4190000Y-8385000D03*
G01*
X4115000Y-8460000D03*
G01*
X4100000Y-4030000D03*
G01*
X4245000Y-4030000D03*
G01*
X4945000Y-4805000D03*
G01*
X4115000Y-5030000D03*
G01*
X4030000Y-6030000D03*
G01*
X4000000Y-5430000D03*
G01*
X3975000Y-5405000D03*
G01*
X3950000Y-5370000D03*
G01*
X3925000Y-5340000D03*
G01*
X3900000Y-5305000D03*
G01*
X3875000Y-5270000D03*
G01*
X3850000Y-4885000D03*
G01*
X5500000Y-4808809D03*
G01*
X4105000Y-7180000D03*
G01*
X4105000Y-7280000D03*
G01*
X4555000Y-7280600D03*
G01*
X4555000Y-7279470D03*
G01*
X4840000Y-7030000D03*
G01*
X5875000Y-5895000D03*
G01*
X5450000Y-5900000D03*
G01*
X4960000Y-5905000D03*
G01*
X5020000Y-5690000D03*
G01*
X6880000Y-7525000D03*
G01*
X6745000Y-6545000D03*
G01*
X6525000Y-6409890D03*
G01*
X6560000Y-6350000D03*
G01*
X6415000Y-6350000D03*
G01*
X5060000Y-5735000D03*
G01*
X5250000Y-5735000D03*
G01*
X6210000Y-6095000D03*
G01*
X5660000Y-5635000D03*
G01*
X5390000Y-5655000D03*
G01*
X5495000Y-5680000D03*
G01*
X5300000Y-5030000D03*
G01*
X6405000Y-6285000D03*
G01*
X5160000Y-6285000D03*
G01*
X5115000Y-6220000D03*
G01*
X5260000Y-6220000D03*
G01*
X5100000Y-7120000D03*
G01*
X6855000Y-6000000D03*
G01*
X6855000Y-6060000D03*
G01*
X6810000Y-7170000D03*
G01*
X5350000Y-5690000D03*
G01*
X5595000Y-5620000D03*
G01*
X5615000Y-6550000D03*
G01*
X5265000Y-6700000D03*
G01*
X5845000Y-6085000D03*
G01*
X5360000Y-6550000D03*
G01*
X5515000Y-6550000D03*
G01*
X6010000Y-7100000D03*
G01*
X6165000Y-7435000D03*
G01*
X6115000Y-7485000D03*
G01*
X5265000Y-7480000D03*
G01*
X4525000Y-7630000D03*
G01*
X4440000Y-7805000D03*
G01*
X5460000Y-6185000D03*
G01*
X5560000Y-6185000D03*
G01*
X5915000Y-7225000D03*
G01*
X5465000Y-7225000D03*
G01*
X5880000Y-6530000D03*
G01*
X5715000Y-6895000D03*
G01*
X5715000Y-7380000D03*
G01*
X5565000Y-7380000D03*
G01*
X5660000Y-6160000D03*
G01*
X5400000Y-6160000D03*
G01*
X5360000Y-6515000D03*
G01*
X5440000Y-6515000D03*
G01*
X5585000Y-6420000D03*
G01*
X5310000Y-6420000D03*
G01*
X5315000Y-7410000D03*
G01*
X5665000Y-7410000D03*
G01*
X5210000Y-6985000D03*
G01*
X5185000Y-7145000D03*
G01*
X6500000Y-7145000D03*
G01*
X5185000Y-6900000D03*
G01*
X4960000Y-6900000D03*
G01*
X5015000Y-7255000D03*
G01*
X5965000Y-7255000D03*
G01*
X5100000Y-5200000D03*
G01*
X3885000Y-6030000D03*
G01*
X3885000Y-6180000D03*
G01*
X3885000Y-7125000D03*
G01*
X3885000Y-7225000D03*
G01*
X3075000Y-7350000D03*
G01*
X3735000Y-6700000D03*
G01*
X905000Y-7160000D03*
G01*
X905000Y-7290000D03*
G01*
X5055000Y-6290000D03*
G01*
X3825000Y-6290000D03*
G01*
X1005000Y-7160000D03*
G01*
X1005000Y-7290000D03*
G01*
X5360000Y-6760000D03*
G01*
X4205000Y-6760000D03*
G01*
X3445000Y-7450000D03*
G01*
X4378019Y-7845000D03*
G01*
X3540000Y-2465000D03*
G01*
X4425000Y-2745000D03*
G01*
X3760000Y-5415000D03*
G01*
X4700000Y-6575000D03*
G01*
X3735000Y-5440000D03*
G01*
X3710000Y-5415000D03*
G01*
X3710000Y-6020000D03*
G01*
X3675000Y-4965000D03*
G01*
X3855000Y-4965000D03*
G01*
X3645000Y-5415000D03*
G01*
X3645000Y-6070000D03*
G01*
X4290000Y-5965000D03*
G01*
X4115000Y-5965000D03*
G01*
X3605000Y-5965000D03*
G01*
X3605000Y-5415000D03*
G01*
X3790000Y-4400000D03*
G01*
X5645000Y-2925000D03*
G01*
X5235000Y-3905000D03*
G01*
X5120000Y-3905000D03*
G01*
X4770000Y-4105000D03*
G01*
X3790000Y-4500000D03*
G01*
X5100000Y-4330000D03*
G01*
X5100000Y-3995000D03*
G01*
X5200000Y-3995000D03*
G01*
X4850000Y-5200000D03*
G01*
X4290000Y-6030000D03*
G01*
X4370000Y-5855000D03*
G01*
X5460000Y-6735000D03*
G01*
X4665000Y-6735000D03*
G01*
X4665000Y-6090000D03*
G01*
X4730000Y-6090000D03*
G01*
X4730000Y-5855000D03*
G01*
X4300000Y-5860000D03*
G01*
X4290000Y-5735000D03*
G01*
X4180000Y-5735000D03*
G01*
X4290000Y-5690000D03*
G01*
X4150000Y-5690000D03*
G01*
X3855000Y-6035000D03*
G01*
X3855000Y-6255000D03*
G01*
X3855000Y-6420000D03*
G01*
X4945000Y-5240000D03*
G01*
X4505000Y-5240000D03*
G01*
X3825000Y-4927130D03*
G01*
X3825000Y-5014630D03*
G01*
X5500000Y-5430000D03*
G01*
X5400000Y-5405000D03*
G01*
X5700000Y-5370000D03*
G01*
X6350000Y-5305000D03*
G01*
X6250000Y-5270000D03*
G01*
X4740000Y-4885000D03*
G01*
X4740000Y-5450000D03*
G01*
X5045000Y-5070000D03*
G01*
X4713050Y-5070000D03*
G01*
X4730000Y-6640000D03*
G01*
X4431049Y-6640000D03*
G01*
X5845000Y-3330000D03*
G01*
X5840000Y-6925000D03*
G01*
X5985000Y-6925000D03*
G01*
X6010000Y-6105000D03*
G01*
X5415000Y-6105000D03*
G01*
X3790000Y-4600000D03*
G01*
X4190000Y-4600000D03*
G01*
X4280000Y-2605000D03*
G01*
X3790000Y-4700000D03*
G01*
X4220000Y-4700000D03*
G01*
X4835000Y-3290000D03*
G01*
X95000Y-2800000D03*
G01*
X95000Y-2599330D03*
G01*
X5945000Y-5715000D03*
G01*
X4575000Y-5715000D03*
G01*
X4175000Y-6000000D03*
G01*
X4175000Y-6150000D03*
G01*
X4470000Y-7330000D03*
G01*
X7115000Y-3765000D03*
G01*
X7295000Y-7775000D03*
G01*
X7295000Y-7895000D03*
G01*
X7295000Y-8220000D03*
G01*
X7295000Y-8300000D03*
G01*
X6345000Y-5056060D03*
G01*
X6945000Y-5055000D03*
G01*
X6945000Y-7740000D03*
G01*
X6250000Y-5080000D03*
G01*
X6975000Y-5080000D03*
G01*
X6975000Y-5080000D03*
G01*
X6975000Y-7740000D03*
G01*
X6150000Y-5105000D03*
G01*
X7010000Y-5105000D03*
G01*
X7010000Y-7740000D03*
G01*
X7010000Y-9150000D03*
G01*
X6060000Y-9150000D03*
G01*
X6050000Y-5135000D03*
G01*
X7040000Y-5135000D03*
G01*
X7040000Y-7740000D03*
G01*
X7040000Y-8955000D03*
G01*
X6060000Y-8955000D03*
G01*
X5950000Y-5160000D03*
G01*
X7070000Y-5160000D03*
G01*
X7070000Y-7740000D03*
G01*
X7070000Y-8010000D03*
G01*
X5110000Y-8010379D03*
G01*
X5160000Y-7330000D03*
G01*
X5350000Y-5110000D03*
G01*
X4545000Y-5110000D03*
G01*
X4070000Y-6000000D03*
G01*
X4070000Y-6150000D03*
G01*
X4070000Y-7125000D03*
G01*
X4070000Y-8170000D03*
G01*
X4340000Y-8175000D03*
G01*
X5450000Y-5145000D03*
G01*
X4475000Y-5145000D03*
G01*
X4140000Y-5880000D03*
G01*
X4140000Y-6150000D03*
G01*
X4140000Y-7305000D03*
G01*
X4140000Y-8115000D03*
G01*
X4490000Y-8115000D03*
G01*
X4340000Y-8995000D03*
G01*
X4490000Y-8955000D03*
G01*
X5750000Y-5225819D03*
G01*
X7785000Y-3660000D03*
G01*
X5918950Y-5225799D03*
G01*
X5365000Y-7435000D03*
G01*
X6220000Y-7405000D03*
G01*
X6365000Y-7405000D03*
G01*
X2855000Y-8265000D03*
G01*
X1030000Y-5155000D03*
G01*
X1030000Y-4955309D03*
G01*
X1720000Y-4951740D03*
G01*
X1565000Y-5155000D03*
G01*
X2130000Y-4950000D03*
G01*
X2130000Y-5180000D03*
G01*
X2160000Y-4950000D03*
G01*
X2185000Y-4950000D03*
G01*
X2185000Y-5070000D03*
G01*
X1815000Y-2575000D03*
G01*
X1975000Y-2575000D03*
G01*
X2015000Y-2575000D03*
G01*
X2050000Y-2575000D03*
G01*
X2050000Y-2650000D03*
G01*
X2015000Y-2650000D03*
G01*
X1975000Y-2650000D03*
G01*
X1815000Y-2650000D03*
G01*
X2160000Y-5100000D03*
G01*
X2700000Y-5100000D03*
G01*
X2215000Y-4975000D03*
G01*
X2245000Y-5205000D03*
G01*
X2245000Y-5300000D03*
G01*
X2240000Y-4975000D03*
G01*
X2265000Y-4975000D03*
G01*
X2290000Y-4975000D03*
G01*
X925000Y-3500000D03*
G01*
X925000Y-4955000D03*
G01*
X885000Y-3390000D03*
G01*
X1745000Y-4980000D03*
G01*
X1700000Y-5165000D03*
G01*
X2455000Y-5175000D03*
G01*
X2455000Y-4939380D03*
G01*
X2455000Y-3295000D03*
G01*
X5250000Y-4335000D03*
G01*
X4190000Y-5447500D03*
G01*
X4220000Y-5465000D03*
G01*
X6010000Y-5470000D03*
G01*
X6220000Y-5470000D03*
G01*
X6420000Y-5470000D03*
G01*
X6475000Y-5470000D03*
G01*
X5070000Y-5495000D03*
G01*
X6010000Y-5495000D03*
G01*
X6220000Y-5495000D03*
G01*
X6420000Y-5495000D03*
G01*
X6475000Y-5495000D03*
G01*
X7750000Y-5470000D03*
G01*
X7750000Y-5495000D03*
G01*
X1925000Y-5690000D03*
G01*
X7090000Y-5910000D03*
G01*
X7110000Y-6130000D03*
G01*
X7130000Y-6155000D03*
G01*
X7150000Y-6180000D03*
G01*
X7170000Y-6350000D03*
G01*
X7190000Y-6630000D03*
G01*
X7210000Y-6680000D03*
G01*
X7295000Y-6720000D03*
G01*
X7315000Y-6740000D03*
G01*
X7355000Y-6765000D03*
G01*
X7375000Y-6810000D03*
G01*
X7395000Y-6860000D03*
G01*
X7415000Y-6890000D03*
G01*
X7455000Y-6935000D03*
G01*
X7475000Y-6965000D03*
G01*
X7090000Y-4460000D03*
G01*
X7110000Y-4445000D03*
G01*
X7130000Y-4460000D03*
G01*
X7150000Y-4445000D03*
G01*
X7170000Y-4460000D03*
G01*
X7190000Y-4445000D03*
G01*
X7210000Y-4460000D03*
G01*
X7295000Y-4370000D03*
G01*
X7315000Y-4328899D03*
G01*
X7355000Y-4345000D03*
G01*
X7375000Y-4325000D03*
G01*
X7395000Y-4345000D03*
G01*
X7415000Y-4325000D03*
G01*
X7455000Y-4325000D03*
G01*
X7475000Y-4343899D03*
G01*
X7755000Y-4750000D03*
G01*
X7845000Y-4750000D03*
G01*
X5620349Y-2980000D03*
G01*
X4440000Y-2725000D03*
G01*
X4860000Y-2925000D03*
G01*
X4455000Y-2705000D03*
G01*
X4640000Y-2890000D03*
G01*
X4805000Y-3015000D03*
G01*
X5137389Y-3327390D03*
G01*
X4470000Y-2685000D03*
G01*
X4620000Y-2835000D03*
G01*
X4795000Y-3035000D03*
G01*
X5138289Y-3358290D03*
G01*
X4040000Y-2610000D03*
G01*
X4040000Y-2795000D03*
G01*
X4065000Y-2595000D03*
G01*
X4065000Y-2775000D03*
G01*
X4085000Y-2585000D03*
G01*
X4085000Y-2755000D03*
G01*
X4105000Y-2570000D03*
G01*
X4105000Y-2730000D03*
G01*
X4230000Y-2605000D03*
G01*
X4015000Y-2940000D03*
G01*
X5130000Y-3535000D03*
G01*
X4515000Y-2870000D03*
G01*
X5137290Y-3572289D03*
G01*
X4535000Y-2930000D03*
G01*
X4575000Y-2670000D03*
G01*
X4900000Y-2670000D03*
G01*
X5137290Y-3602289D03*
G01*
X4595000Y-3065000D03*
G01*
X4950000Y-3515000D03*
G01*
X4780000Y-3340000D03*
G01*
X5134790Y-3234789D03*
G01*
X5130000Y-3265000D03*
G01*
X4919790Y-3019789D03*
G01*
X4914179Y-3049160D03*
G01*
X4995000Y-3355000D03*
G01*
X4950000Y-3365000D03*
G01*
X5135000Y-3630000D03*
G01*
X5137460Y-3667460D03*
G01*
X3810000Y-2430000D03*
G01*
X3775000Y-2700000D03*
G01*
X3935860Y-2700000D03*
G01*
X2485000Y-4955000D03*
G01*
X2935000Y-3125000D03*
G01*
X2935000Y-3175000D03*
G01*
X2935000Y-3220000D03*
G01*
X2935000Y-3575000D03*
G01*
X2975000Y-5660000D03*
G01*
X2970000Y-3125000D03*
G01*
X2970000Y-3175000D03*
G01*
X2970000Y-3225000D03*
G01*
X2970000Y-3575000D03*
G01*
X3198220Y-2915000D03*
G01*
X3200000Y-3015000D03*
G01*
X2995000Y-3125000D03*
G01*
X2995000Y-3175000D03*
G01*
X2995000Y-3225000D03*
G01*
X3020000Y-3125000D03*
G01*
X3020000Y-3175000D03*
G01*
X3020000Y-3225000D03*
G01*
X2995000Y-3575000D03*
G01*
X3020000Y-3575000D03*
G01*
X3030000Y-6010000D03*
G01*
X3055000Y-6110000D03*
G01*
X2545000Y-5135000D03*
G01*
X2545000Y-4955000D03*
G01*
X2195000Y-5470000D03*
G01*
X2195000Y-5525000D03*
G01*
X2195000Y-5575000D03*
G01*
X3090000Y-5710000D03*
G01*
X2655000Y-5710000D03*
G01*
X1960000Y-5650000D03*
G01*
X3095000Y-5610000D03*
G01*
X2655000Y-5610000D03*
G01*
X3105000Y-5910000D03*
G01*
X2654889Y-5910000D03*
G01*
X1045000Y-5950000D03*
G01*
X8375000Y-3965000D03*
M02*
