G04 Layer: TopSolderMaskLayer*
G04 EasyEDA v6.5.22, 2023-03-31 09:45:33*
G04 028e3914a6f949ed9ca799ef75e4ed4f,10*
G04 Gerber Generator version 0.2*
G04 Scale: 100 percent, Rotated: No, Reflected: No *
G04 Dimensions in millimeters *
G04 leading zeros omitted , absolute positions ,4 integer and 5 decimal *
%FSLAX45Y45*%
%MOMM*%

%AMMACRO1*1,1,$1,$2,$3*1,1,$1,$4,$5*1,1,$1,0-$2,0-$3*1,1,$1,0-$4,0-$5*20,1,$1,$2,$3,$4,$5,0*20,1,$1,$4,$5,0-$2,0-$3,0*20,1,$1,0-$2,0-$3,0-$4,0-$5,0*20,1,$1,0-$4,0-$5,$2,$3,0*4,1,4,$2,$3,$4,$5,0-$2,0-$3,0-$4,0-$5,$2,$3,0*%
%ADD10MACRO1,0.1016X1.15X0.825X1.15X-0.825*%
%ADD11O,2.4015954X1.7516094000000002*%
%ADD12O,2.1336X1.6256000000000002*%
%ADD13C,2.0828*%
%ADD14C,1.6240*%
%ADD15C,1.4986*%
%ADD16O,1.0015981999999999X1.7015968*%
%ADD17MACRO1,0.1016X-0.45X0.8X0.45X0.8*%
%ADD18C,3.1039*%
%ADD19C,2.2032*%
%ADD20O,3.2031940000000003X2.0031963999999998*%
%ADD21MACRO1,0.2032X-1.5X-0.9X-1.5X0.9*%
%ADD22O,2.0031963999999998X3.2031940000000003*%
%ADD23MACRO1,0.2032X-0.9X1.5X0.9X1.5*%
%ADD24C,1.6002*%
%ADD25MACRO1,0.1016X0.7493X-0.7493X-0.7493X-0.7493*%
%ADD26MACRO1,0.1016X0.6985X-0.6985X-0.6985X-0.6985*%
%ADD27MACRO1,0.2032X-1.25X-1.25X-1.25X1.25*%
%ADD28C,2.7032*%
%ADD29MACRO1,0.1016X0.7493X0.7493X0.7493X-0.7493*%
%ADD30C,2.4892*%
%ADD31R,1.6002X1.6002*%
%ADD32O,2.7432000000000003X3.7084000000000006*%
%ADD33O,3.7084000000000006X2.7432000000000003*%
%ADD34MACRO1,0.1016X-0.7112X0.7112X0.7112X0.7112*%
%ADD35C,3.7008*%
%ADD36C,1.6942*%
%ADD37MACRO1,0.1016X0.7501X0.7501X0.7501X-0.7501*%
%ADD38C,1.6016*%
%ADD39MACRO1,0.1016X-0.7501X0.7501X0.7501X0.7501*%
%ADD40C,1.4016*%
%ADD41MACRO1,0.24X-1X-1X-1X1*%
%ADD42C,2.2400*%
%ADD43C,1.7272*%
%ADD44C,1.9016*%
%ADD45C,2.0066*%
%ADD46MACRO1,0.2032X-1X1X1X1*%
%ADD47C,2.2860*%
%ADD48C,1.6256*%
%ADD49C,1.6600*%
%ADD50C,1.7200*%
%ADD51C,3.9116*%
%ADD52C,5.1016*%
%ADD53MACRO1,0.1016X0.9X-0.9X-0.9X-0.9*%
%ADD54O,2.1015960000000002X1.6015970000000002*%
%ADD55MACRO1,0.1016X-1X0.75X1X0.75*%
%ADD56MACRO1,0.1016X0.75X0.75X0.75X-0.75*%
%ADD57O,1.7015968000000001X1.7015968000000001*%
%ADD58MACRO1,0.1016X-0.8X0.8X0.8X0.8*%
%ADD59C,1.7016*%
%ADD60C,1.4732*%
%ADD61MACRO1,0.1016X-0.7099X0.7099X0.7099X0.7099*%
%ADD62C,1.5215*%
%ADD63MACRO1,0.1016X0.7099X-0.7099X-0.7099X-0.7099*%
%ADD64C,0.0168*%

%LPD*%
D10*
G01*
X19392900Y-21831350D03*
D11*
G01*
X19392900Y-21577350D03*
D12*
G01*
X7137400Y-2540000D03*
G01*
X7137400Y-11938000D03*
G01*
X7137400Y-11684000D03*
G01*
X7137400Y-11430000D03*
G01*
X7137400Y-11176000D03*
G01*
X7137400Y-10922000D03*
G01*
X7137400Y-10668000D03*
G01*
X7137400Y-10414000D03*
G01*
X7137400Y-10160000D03*
G01*
X7137400Y-9906000D03*
G01*
X7137400Y-9652000D03*
G01*
X7137400Y-9398000D03*
G01*
X7137400Y-9144000D03*
G01*
X7137400Y-8890000D03*
G01*
X7137400Y-8636000D03*
G01*
X7137400Y-8382000D03*
G01*
X7137400Y-8128000D03*
G01*
X7137400Y-7874000D03*
G01*
X7137400Y-7620000D03*
G01*
X7137400Y-7366000D03*
G01*
X7137400Y-7112000D03*
G01*
X7137400Y-6858000D03*
G01*
X7137400Y-6604000D03*
G01*
X7137400Y-6350000D03*
G01*
X7137400Y-6096000D03*
G01*
X7137400Y-5842000D03*
G01*
X7137400Y-5588000D03*
G01*
X7137400Y-5334000D03*
G01*
X7137400Y-5080000D03*
G01*
X7137400Y-4826000D03*
G01*
X7137400Y-4572000D03*
G01*
X7137400Y-4318000D03*
G01*
X7137400Y-4064000D03*
G01*
X7137400Y-3810000D03*
G01*
X7137400Y-3556000D03*
G01*
X7137400Y-3302000D03*
G01*
X7137400Y-3048000D03*
G01*
X7137400Y-2794000D03*
G01*
X7137400Y-12192000D03*
G01*
X7137400Y-12446000D03*
G01*
X6883400Y-2540000D03*
G01*
X6883400Y-11938000D03*
G01*
X6883400Y-11684000D03*
G01*
X6883400Y-11430000D03*
G01*
X6883400Y-11176000D03*
G01*
X6883400Y-10922000D03*
G01*
X6883400Y-10668000D03*
G01*
X6883400Y-10414000D03*
G01*
X6883400Y-10160000D03*
G01*
X6883400Y-9906000D03*
G01*
X6883400Y-9652000D03*
G01*
X6883400Y-9398000D03*
G01*
X6883400Y-9144000D03*
G01*
X6883400Y-8890000D03*
G01*
X6883400Y-8636000D03*
G01*
X6883400Y-8382000D03*
G01*
X6883400Y-8128000D03*
G01*
X6883400Y-7874000D03*
G01*
X6883400Y-7620000D03*
G01*
X6883400Y-7366000D03*
G01*
X6883400Y-7112000D03*
G01*
X6883400Y-6858000D03*
G01*
X6883400Y-6604000D03*
G01*
X6883400Y-6350000D03*
G01*
X6883400Y-6096000D03*
G01*
X6883400Y-5842000D03*
G01*
X6883400Y-5588000D03*
G01*
X6883400Y-5334000D03*
G01*
X6883400Y-5080000D03*
G01*
X6883400Y-4826000D03*
G01*
X6883400Y-4572000D03*
G01*
X6883400Y-4318000D03*
G01*
X6883400Y-4064000D03*
G01*
X6883400Y-3810000D03*
G01*
X6883400Y-3556000D03*
G01*
X6883400Y-3302000D03*
G01*
X6883400Y-3048000D03*
G01*
X6883400Y-2794000D03*
G01*
X6883400Y-12192000D03*
G01*
X6883400Y-12446000D03*
G01*
X4076700Y-2540000D03*
G01*
X4076700Y-11938000D03*
G01*
X4076700Y-11684000D03*
G01*
X4076700Y-11430000D03*
G01*
X4076700Y-11176000D03*
G01*
X4076700Y-10922000D03*
G01*
X4076700Y-10668000D03*
G01*
X4076700Y-10414000D03*
G01*
X4076700Y-10160000D03*
G01*
X4076700Y-9906000D03*
G01*
X4076700Y-9652000D03*
G01*
X4076700Y-9398000D03*
G01*
X4076700Y-9144000D03*
G01*
X4076700Y-8890000D03*
G01*
X4076700Y-8636000D03*
G01*
X4076700Y-8382000D03*
G01*
X4076700Y-8128000D03*
G01*
X4076700Y-7874000D03*
G01*
X4076700Y-7620000D03*
G01*
X4076700Y-7366000D03*
G01*
X4076700Y-7112000D03*
G01*
X4076700Y-6858000D03*
G01*
X4076700Y-6604000D03*
G01*
X4076700Y-6350000D03*
G01*
X4076700Y-6096000D03*
G01*
X4076700Y-5842000D03*
G01*
X4076700Y-5588000D03*
G01*
X4076700Y-5334000D03*
G01*
X4076700Y-5080000D03*
G01*
X4076700Y-4826000D03*
G01*
X4076700Y-4572000D03*
G01*
X4076700Y-4318000D03*
G01*
X4076700Y-4064000D03*
G01*
X4076700Y-3810000D03*
G01*
X4076700Y-3556000D03*
G01*
X4076700Y-3302000D03*
G01*
X4076700Y-3048000D03*
G01*
X4076700Y-2794000D03*
G01*
X4076700Y-12192000D03*
G01*
X4076700Y-12446000D03*
G01*
X3822700Y-2540000D03*
G01*
X3822700Y-11938000D03*
G01*
X3822700Y-11684000D03*
G01*
X3822700Y-11430000D03*
G01*
X3822700Y-11176000D03*
G01*
X3822700Y-10922000D03*
G01*
X3822700Y-10668000D03*
G01*
X3822700Y-10414000D03*
G01*
X3822700Y-10160000D03*
G01*
X3822700Y-9906000D03*
G01*
X3822700Y-9652000D03*
G01*
X3822700Y-9398000D03*
G01*
X3822700Y-9144000D03*
G01*
X3822700Y-8890000D03*
G01*
X3822700Y-8636000D03*
G01*
X3822700Y-8382000D03*
G01*
X3822700Y-8128000D03*
G01*
X3822700Y-7874000D03*
G01*
X3822700Y-7620000D03*
G01*
X3822700Y-7366000D03*
G01*
X3822700Y-7112000D03*
G01*
X3822700Y-6858000D03*
G01*
X3822700Y-6604000D03*
G01*
X3822700Y-6350000D03*
G01*
X3822700Y-6096000D03*
G01*
X3822700Y-5842000D03*
G01*
X3822700Y-5588000D03*
G01*
X3822700Y-5334000D03*
G01*
X3822700Y-5080000D03*
G01*
X3822700Y-4826000D03*
G01*
X3822700Y-4572000D03*
G01*
X3822700Y-4318000D03*
G01*
X3822700Y-4064000D03*
G01*
X3822700Y-3810000D03*
G01*
X3822700Y-3556000D03*
G01*
X3822700Y-3302000D03*
G01*
X3822700Y-3048000D03*
G01*
X3822700Y-2794000D03*
G01*
X3822700Y-12192000D03*
G01*
X3822700Y-12446000D03*
G01*
X774700Y-2540000D03*
G01*
X774700Y-11938000D03*
G01*
X774700Y-11684000D03*
G01*
X774700Y-11430000D03*
G01*
X774700Y-11176000D03*
G01*
X774700Y-10922000D03*
G01*
X774700Y-10668000D03*
G01*
X774700Y-10414000D03*
G01*
X774700Y-10160000D03*
G01*
X774700Y-9906000D03*
G01*
X774700Y-9652000D03*
G01*
X774700Y-9398000D03*
G01*
X774700Y-9144000D03*
G01*
X774700Y-8890000D03*
G01*
X774700Y-8636000D03*
G01*
X774700Y-8382000D03*
G01*
X774700Y-8128000D03*
G01*
X774700Y-7874000D03*
G01*
X774700Y-7620000D03*
G01*
X774700Y-7366000D03*
G01*
X774700Y-7112000D03*
G01*
X774700Y-6858000D03*
G01*
X774700Y-6604000D03*
G01*
X774700Y-6350000D03*
G01*
X774700Y-6096000D03*
G01*
X774700Y-5842000D03*
G01*
X774700Y-5588000D03*
G01*
X774700Y-5334000D03*
G01*
X774700Y-5080000D03*
G01*
X774700Y-4826000D03*
G01*
X774700Y-4572000D03*
G01*
X774700Y-4318000D03*
G01*
X774700Y-4064000D03*
G01*
X774700Y-3810000D03*
G01*
X774700Y-3556000D03*
G01*
X774700Y-3302000D03*
G01*
X774700Y-3048000D03*
G01*
X774700Y-2794000D03*
G01*
X774700Y-12192000D03*
G01*
X774700Y-12446000D03*
G01*
X520700Y-2540000D03*
G01*
X520700Y-11938000D03*
G01*
X520700Y-11684000D03*
G01*
X520700Y-11430000D03*
G01*
X520700Y-11176000D03*
G01*
X520700Y-10922000D03*
G01*
X520700Y-10668000D03*
G01*
X520700Y-10414000D03*
G01*
X520700Y-10160000D03*
G01*
X520700Y-9906000D03*
G01*
X520700Y-9652000D03*
G01*
X520700Y-9398000D03*
G01*
X520700Y-9144000D03*
G01*
X520700Y-8890000D03*
G01*
X520700Y-8636000D03*
G01*
X520700Y-8382000D03*
G01*
X520700Y-8128000D03*
G01*
X520700Y-7874000D03*
G01*
X520700Y-7620000D03*
G01*
X520700Y-7366000D03*
G01*
X520700Y-7112000D03*
G01*
X520700Y-6858000D03*
G01*
X520700Y-6604000D03*
G01*
X520700Y-6350000D03*
G01*
X520700Y-6096000D03*
G01*
X520700Y-5842000D03*
G01*
X520700Y-5588000D03*
G01*
X520700Y-5334000D03*
G01*
X520700Y-5080000D03*
G01*
X520700Y-4826000D03*
G01*
X520700Y-4572000D03*
G01*
X520700Y-4318000D03*
G01*
X520700Y-4064000D03*
G01*
X520700Y-3810000D03*
G01*
X520700Y-3556000D03*
G01*
X520700Y-3302000D03*
G01*
X520700Y-3048000D03*
G01*
X520700Y-2794000D03*
G01*
X520700Y-12192000D03*
G01*
X520700Y-12446000D03*
D13*
G01*
X8750300Y-19850100D03*
G01*
X8750300Y-20866100D03*
D14*
G01*
X19802599Y-18961100D03*
G01*
X20532595Y-18961100D03*
G01*
X18684999Y-18973800D03*
G01*
X19414995Y-18973800D03*
D15*
G01*
X4800600Y-6858000D03*
G01*
X4800600Y-6604000D03*
G01*
X1409700Y-6858000D03*
G01*
X1409700Y-6604000D03*
D16*
G01*
X20662900Y-19659600D03*
G01*
X20535900Y-19659600D03*
D17*
G01*
X20408901Y-19659600D03*
D16*
G01*
X19532600Y-19659600D03*
G01*
X19405600Y-19659600D03*
D17*
G01*
X19278601Y-19659600D03*
D18*
G01*
X23088600Y-23596600D03*
G01*
X22656800Y-23596600D03*
G01*
X22250400Y-23596600D03*
G01*
X21818600Y-23596600D03*
G01*
X21412200Y-23596600D03*
G01*
X20980400Y-23596600D03*
G01*
X20574000Y-23596600D03*
G01*
X20142200Y-23596600D03*
G01*
X19735800Y-23596600D03*
G01*
X19304000Y-23596600D03*
G01*
X18897600Y-23596600D03*
G01*
X18465800Y-23596600D03*
G01*
X23088600Y-23088600D03*
G01*
X22656800Y-23088600D03*
G01*
X22250400Y-23088600D03*
G01*
X21818600Y-23088600D03*
G01*
X21412200Y-23088600D03*
G01*
X20980400Y-23088600D03*
G01*
X20574000Y-23088600D03*
G01*
X20142200Y-23088600D03*
G01*
X19735800Y-23088600D03*
G01*
X19304000Y-23088600D03*
G01*
X18897600Y-23088600D03*
G01*
X18465800Y-23088600D03*
D15*
G01*
X14706600Y-7683500D03*
G01*
X14960600Y-7683500D03*
D19*
G01*
X12395200Y-21971000D03*
G01*
X13411200Y-21971000D03*
D20*
G01*
X9080500Y-14782800D03*
G01*
X9080500Y-15036800D03*
G01*
X9080500Y-15290800D03*
G01*
X9080500Y-15544800D03*
G01*
X9080500Y-15798800D03*
D21*
G01*
X9080500Y-16052800D03*
D22*
G01*
X15024100Y-23647400D03*
G01*
X14770100Y-23647400D03*
G01*
X14516100Y-23647400D03*
G01*
X14262100Y-23647400D03*
G01*
X14008100Y-23647400D03*
D23*
G01*
X13754100Y-23647400D03*
D22*
G01*
X11518900Y-23596600D03*
G01*
X11264900Y-23596600D03*
G01*
X11010900Y-23596600D03*
G01*
X10756900Y-23596600D03*
G01*
X10502900Y-23596600D03*
D23*
G01*
X10248900Y-23596600D03*
D24*
G01*
X11747500Y-13487400D03*
D25*
G01*
X12001500Y-13487400D03*
D26*
G01*
X22567900Y-12407900D03*
D15*
G01*
X22313900Y-12407900D03*
G01*
X22059900Y-12407900D03*
G01*
X21805900Y-12407900D03*
G01*
X21551900Y-12407900D03*
G01*
X21297900Y-12407900D03*
G01*
X21043900Y-12407900D03*
G01*
X20789900Y-12407900D03*
G01*
X20535900Y-12407900D03*
G01*
X20281900Y-12407900D03*
G01*
X20027900Y-12407900D03*
G01*
X19773900Y-12407900D03*
G01*
X19519900Y-12407900D03*
G01*
X19265900Y-12407900D03*
G01*
X19011900Y-12407900D03*
G01*
X18757900Y-12407900D03*
G01*
X18757900Y-13931900D03*
G01*
X19011900Y-13931900D03*
G01*
X19265900Y-13931900D03*
G01*
X19519900Y-13931900D03*
G01*
X19773900Y-13931900D03*
G01*
X20027900Y-13931900D03*
G01*
X20281900Y-13931900D03*
G01*
X20535900Y-13931900D03*
G01*
X20789900Y-13931900D03*
G01*
X21043900Y-13931900D03*
G01*
X21297900Y-13931900D03*
G01*
X21551900Y-13931900D03*
G01*
X21805900Y-13931900D03*
G01*
X22059900Y-13931900D03*
G01*
X22313900Y-13931900D03*
G01*
X22567900Y-13931900D03*
D27*
G01*
X22910816Y-6221870D03*
D28*
G01*
X22910825Y-5462015D03*
D24*
G01*
X3441700Y-23634700D03*
D29*
G01*
X3441700Y-23380700D03*
D24*
G01*
X3162300Y-23634700D03*
D29*
G01*
X3162300Y-23380700D03*
D24*
G01*
X2882900Y-23634700D03*
D29*
G01*
X2882900Y-23380700D03*
D30*
G01*
X13627100Y-8578850D03*
G01*
X13627100Y-10674350D03*
D24*
G01*
X18910300Y-20434300D03*
D31*
G01*
X18910300Y-20688300D03*
D32*
G01*
X23870920Y-571500D03*
G01*
X22514559Y-571500D03*
D33*
G01*
X23190200Y-490220D03*
D34*
G01*
X23319739Y-871219D03*
G01*
X23060660Y-871219D03*
G01*
X22849839Y-871219D03*
G01*
X23530560Y-871219D03*
G01*
X23530560Y-1120140D03*
G01*
X22849839Y-1115059D03*
D32*
G01*
X21762720Y-571500D03*
G01*
X20406359Y-571500D03*
D33*
G01*
X21082000Y-490220D03*
D34*
G01*
X21211539Y-871219D03*
G01*
X20952460Y-871219D03*
G01*
X20741639Y-871219D03*
G01*
X21422360Y-871219D03*
G01*
X21422360Y-1120140D03*
G01*
X20741639Y-1115059D03*
D35*
G01*
X19817410Y-1104976D03*
G01*
X17317389Y-1104976D03*
D36*
G01*
X19073647Y-1358976D03*
G01*
X18848654Y-1358976D03*
G01*
X18623661Y-1358976D03*
G01*
X18398667Y-1358976D03*
G01*
X18173649Y-1358976D03*
G01*
X18961150Y-1104976D03*
G01*
X18736157Y-1104976D03*
G01*
X18511164Y-1104976D03*
G01*
X18286171Y-1104976D03*
G01*
X18061152Y-1104976D03*
G01*
X19073647Y-850976D03*
G01*
X18848654Y-850976D03*
G01*
X18623661Y-850976D03*
G01*
X18398667Y-850976D03*
G01*
X18173649Y-850976D03*
D37*
G01*
X21780500Y-19075400D03*
D38*
G01*
X21805900Y-19431000D03*
G01*
X21780500Y-19812000D03*
D19*
G01*
X21158200Y-18783300D03*
G01*
X21158200Y-19799300D03*
G01*
X22491700Y-19799249D03*
G01*
X22491700Y-18783249D03*
D39*
G01*
X9829800Y-4838700D03*
D38*
G01*
X10185400Y-4813300D03*
G01*
X10566400Y-4838700D03*
D39*
G01*
X11315700Y-4851400D03*
D38*
G01*
X11671300Y-4826000D03*
G01*
X12052300Y-4851400D03*
D19*
G01*
X10579100Y-6324600D03*
G01*
X10579100Y-5308600D03*
G01*
X9829800Y-6324600D03*
G01*
X9829800Y-5308600D03*
G01*
X12077700Y-6324600D03*
G01*
X12077700Y-5308600D03*
G01*
X11315700Y-6324600D03*
G01*
X11315700Y-5308600D03*
D15*
G01*
X20383500Y-6172200D03*
G01*
X20383500Y-5918200D03*
G01*
X20345400Y-5257800D03*
G01*
X20599400Y-5257800D03*
G01*
X19837400Y-9296400D03*
G01*
X20091400Y-9296400D03*
G01*
X17119600Y-11925300D03*
G01*
X16865600Y-11925300D03*
G01*
X22580600Y-14236700D03*
G01*
X22326600Y-14236700D03*
G01*
X19748500Y-5918200D03*
G01*
X20002500Y-5918200D03*
G01*
X18986500Y-5918200D03*
G01*
X19240500Y-5918200D03*
G01*
X14008100Y-23139400D03*
G01*
X13754100Y-23139400D03*
G01*
X14008100Y-22606000D03*
G01*
X13754100Y-22606000D03*
G01*
X8216900Y-6654800D03*
G01*
X8216900Y-6908800D03*
D40*
G01*
X14490700Y-4595799D03*
G01*
X14490700Y-4395800D03*
D41*
G01*
X11772900Y-2155799D03*
D42*
G01*
X11772900Y-1745792D03*
D43*
G01*
X13908506Y-2374900D03*
G01*
X14158493Y-2374900D03*
D14*
G01*
X12407900Y-3495802D03*
G01*
X12407900Y-4225797D03*
G01*
X11214100Y-4213097D03*
G01*
X11214100Y-3483102D03*
G01*
X14617700Y-3076702D03*
G01*
X14617700Y-3806697D03*
G01*
X13300202Y-5905500D03*
G01*
X14030197Y-5905500D03*
D44*
G01*
X17907000Y-12430099D03*
G01*
X17907000Y-13300100D03*
G01*
X18288000Y-12430099D03*
G01*
X18288000Y-13300100D03*
G01*
X9102699Y-19494500D03*
G01*
X9972700Y-19494500D03*
D45*
G01*
X6908800Y-20015200D03*
G01*
X6908800Y-19253200D03*
G01*
X14795500Y-21259800D03*
G01*
X14795500Y-22021800D03*
D19*
G01*
X12242800Y-23479759D03*
G01*
X12242800Y-23733759D03*
G01*
X12496800Y-23479759D03*
G01*
X12496800Y-23733759D03*
D46*
G01*
X12750800Y-23479760D03*
D19*
G01*
X12750800Y-23733759D03*
D47*
G01*
X12280900Y-448310D03*
G01*
X12529820Y-948689D03*
G01*
X12781279Y-948689D03*
G01*
X12031979Y-948689D03*
G01*
X11780520Y-948689D03*
D48*
G01*
X4775200Y-20624800D03*
G01*
X5029200Y-20624800D03*
G01*
X3365500Y-20624749D03*
G01*
X3619500Y-20624749D03*
G01*
X1739900Y-20599400D03*
G01*
X1993900Y-20599400D03*
G01*
X7556500Y-20637449D03*
G01*
X7810500Y-20637449D03*
G01*
X6159500Y-20637500D03*
G01*
X6413500Y-20637500D03*
G01*
X14795500Y-22745700D03*
G01*
X14795500Y-22491700D03*
D49*
G01*
X13432205Y-3802811D03*
D50*
G01*
X13672210Y-3802811D03*
G01*
X13912189Y-3802811D03*
G01*
X14152194Y-3802811D03*
G01*
X14152194Y-2902813D03*
G01*
X13912189Y-2902813D03*
G01*
X13672210Y-2902813D03*
G01*
X13432205Y-2902813D03*
D44*
G01*
X10096500Y-16560800D03*
G01*
X10350500Y-16560800D03*
G01*
X10604500Y-16560800D03*
G01*
X10858500Y-16560800D03*
G01*
X11112500Y-16560800D03*
G01*
X11366500Y-16560800D03*
G01*
X11620500Y-16560800D03*
G01*
X11874500Y-16560800D03*
G01*
X12128500Y-16560800D03*
G01*
X12382500Y-16560800D03*
G01*
X12636500Y-16560800D03*
G01*
X12890500Y-16560800D03*
G01*
X13144500Y-16560800D03*
G01*
X13398500Y-16560800D03*
G01*
X13652500Y-16560800D03*
G01*
X13652500Y-14274800D03*
G01*
X13398500Y-14274800D03*
G01*
X13144500Y-14274800D03*
G01*
X12890500Y-14274800D03*
G01*
X12636500Y-14274800D03*
G01*
X12382500Y-14274800D03*
G01*
X12128500Y-14274800D03*
G01*
X11874500Y-14274800D03*
G01*
X11620500Y-14274800D03*
G01*
X11366500Y-14274800D03*
G01*
X11112500Y-14274800D03*
G01*
X10858500Y-14274800D03*
G01*
X10604500Y-14274800D03*
G01*
X10350500Y-14274800D03*
G01*
X10096500Y-14274800D03*
G01*
X9791700Y-14782800D03*
G01*
X9791700Y-15036800D03*
G01*
X9791700Y-15290800D03*
G01*
X9791700Y-15544800D03*
G01*
X9791700Y-15798800D03*
G01*
X9791700Y-16052800D03*
D51*
G01*
X9791700Y-14401800D03*
G01*
X9791700Y-16433800D03*
D44*
G01*
X14744700Y-1081811D03*
D52*
G01*
X13494715Y-939825D03*
D44*
G01*
X14190700Y-1081811D03*
G01*
X14467687Y-1081811D03*
G01*
X15021686Y-1081811D03*
D53*
G01*
X15298676Y-1081788D03*
D44*
G01*
X14329181Y-797813D03*
G01*
X14606193Y-797813D03*
G01*
X14883180Y-797813D03*
G01*
X15160193Y-797813D03*
D52*
G01*
X15994710Y-939825D03*
D17*
G01*
X3009900Y-18605500D03*
D16*
G01*
X3136900Y-18605500D03*
G01*
X3263900Y-18605500D03*
D17*
G01*
X1346200Y-18618200D03*
D16*
G01*
X1473200Y-18618200D03*
G01*
X1600200Y-18618200D03*
D39*
G01*
X8902700Y-13373072D03*
D38*
G01*
X9258300Y-13347674D03*
G01*
X9639300Y-13373074D03*
D39*
G01*
X12382500Y-13373072D03*
D38*
G01*
X12738100Y-13347674D03*
G01*
X13119100Y-13373074D03*
D39*
G01*
X10617200Y-13373100D03*
D38*
G01*
X10972800Y-13347700D03*
G01*
X11353800Y-13373100D03*
D37*
G01*
X21805900Y-20955000D03*
D38*
G01*
X21831300Y-21310600D03*
G01*
X21805900Y-21691600D03*
D19*
G01*
X17462500Y-13652500D03*
G01*
X17462500Y-14668500D03*
G01*
X5041900Y-20015149D03*
G01*
X5041900Y-18999149D03*
G01*
X17919700Y-14668500D03*
G01*
X17919700Y-13652500D03*
G01*
X2908300Y-20015200D03*
G01*
X2908300Y-18999200D03*
G01*
X3365500Y-20015200D03*
G01*
X3365500Y-18999200D03*
G01*
X1282700Y-20015200D03*
G01*
X1282700Y-18999200D03*
G01*
X1739900Y-20015149D03*
G01*
X1739900Y-18999149D03*
G01*
X19481800Y-9296400D03*
G01*
X18465800Y-9296400D03*
G01*
X6146800Y-18999149D03*
G01*
X6146800Y-20015149D03*
G01*
X7353300Y-18999200D03*
G01*
X7353300Y-20015200D03*
G01*
X7810500Y-18999200D03*
G01*
X7810500Y-20015200D03*
G01*
X9652000Y-11836374D03*
G01*
X9652000Y-12852374D03*
G01*
X8902700Y-11836400D03*
G01*
X8902700Y-12852400D03*
G01*
X13131800Y-11836374D03*
G01*
X13131800Y-12852374D03*
G01*
X12357100Y-12852374D03*
G01*
X12357100Y-11836374D03*
G01*
X19989800Y-2019300D03*
G01*
X19989800Y-3035300D03*
G01*
X19545300Y-2019300D03*
G01*
X19545300Y-3035300D03*
G01*
X18656300Y-2019300D03*
G01*
X18656300Y-3035300D03*
G01*
X19113500Y-2019300D03*
G01*
X19113500Y-3035300D03*
G01*
X17767300Y-2019300D03*
G01*
X17767300Y-3035300D03*
G01*
X18224500Y-2019300D03*
G01*
X18224500Y-3035300D03*
G01*
X17322800Y-2019300D03*
G01*
X17322800Y-3035300D03*
G01*
X16865600Y-2019300D03*
G01*
X16865600Y-3035300D03*
G01*
X20485100Y-3175000D03*
G01*
X20485100Y-4191000D03*
G01*
X20980400Y-3175000D03*
G01*
X20980400Y-4191000D03*
G01*
X20472400Y-1803400D03*
G01*
X20472400Y-2819400D03*
G01*
X20967700Y-1803400D03*
G01*
X20967700Y-2819400D03*
G01*
X22618700Y-3200400D03*
G01*
X22618700Y-4216400D03*
G01*
X23088600Y-3200400D03*
G01*
X23088600Y-4216400D03*
G01*
X22618700Y-1803400D03*
G01*
X22618700Y-2819400D03*
G01*
X23075900Y-1803400D03*
G01*
X23075900Y-2819400D03*
G01*
X12395200Y-2159000D03*
G01*
X12395200Y-3175000D03*
G01*
X11214100Y-3175000D03*
G01*
X11214100Y-2159000D03*
G01*
X13906500Y-4394200D03*
G01*
X13906500Y-5410200D03*
G01*
X13423900Y-5410200D03*
G01*
X13423900Y-4394200D03*
G01*
X12954000Y-6921500D03*
G01*
X12954000Y-5905500D03*
G01*
X21247100Y-5740374D03*
G01*
X21247100Y-6756374D03*
G01*
X21704300Y-5740374D03*
G01*
X21704300Y-6756374D03*
G01*
X20751800Y-6756400D03*
G01*
X20751800Y-5740400D03*
G01*
X9448800Y-20866100D03*
G01*
X9448800Y-19850100D03*
G01*
X9982200Y-20853400D03*
G01*
X9982200Y-19837400D03*
G01*
X16065500Y-8813800D03*
G01*
X16065500Y-9829800D03*
G01*
X16522700Y-8813774D03*
G01*
X16522700Y-9829774D03*
G01*
X11353800Y-11836374D03*
G01*
X11353800Y-12852374D03*
G01*
X10617200Y-11836400D03*
G01*
X10617200Y-12852400D03*
G01*
X19392900Y-21043900D03*
G01*
X20408900Y-21043900D03*
G01*
X21170900Y-20675600D03*
G01*
X21170900Y-21691600D03*
G01*
X22491700Y-21717000D03*
G01*
X22491700Y-20701000D03*
G01*
X9690100Y-7150100D03*
G01*
X9690100Y-8166100D03*
G01*
X15290800Y-21247100D03*
G01*
X15290800Y-22263100D03*
D44*
G01*
X7371079Y-21403056D03*
G01*
X7371079Y-21853143D03*
G01*
X8021320Y-21403056D03*
G01*
X8021320Y-21853143D03*
G01*
X9364979Y-21403005D03*
G01*
X9364979Y-21853093D03*
G01*
X10015220Y-21403005D03*
G01*
X10015220Y-21853093D03*
G01*
X11193779Y-21428456D03*
G01*
X11193779Y-21878543D03*
G01*
X11844020Y-21428456D03*
G01*
X11844020Y-21878543D03*
D54*
G01*
X17119600Y-13906500D03*
G01*
X17119600Y-13652500D03*
G01*
X17119600Y-13398500D03*
G01*
X17119600Y-13144500D03*
G01*
X17119600Y-12890500D03*
G01*
X17119600Y-12636500D03*
G01*
X17119600Y-12382500D03*
G01*
X16357600Y-13906500D03*
G01*
X16357600Y-13652500D03*
G01*
X16357600Y-13398500D03*
G01*
X16357600Y-13144500D03*
G01*
X16357600Y-12890500D03*
G01*
X16357600Y-12636500D03*
D55*
G01*
X16357600Y-12382500D03*
D44*
G01*
X17957800Y-7137400D03*
G01*
X18465800Y-7137400D03*
G01*
X18211800Y-7137400D03*
G01*
X19481800Y-7137400D03*
G01*
X20497800Y-7137400D03*
G01*
X20751800Y-7137400D03*
G01*
X21005800Y-7137400D03*
G01*
X21259800Y-7137400D03*
G01*
X21513800Y-7137400D03*
G01*
X21767800Y-7137400D03*
G01*
X22021800Y-7137400D03*
G01*
X22275800Y-7137400D03*
D53*
G01*
X22529800Y-7137400D03*
D44*
G01*
X20243800Y-7137400D03*
G01*
X19735800Y-7137400D03*
G01*
X19989800Y-7137400D03*
G01*
X19227800Y-7137400D03*
G01*
X18719800Y-7137400D03*
G01*
X18973800Y-7137400D03*
G01*
X17703800Y-7137400D03*
G01*
X22275800Y-8661400D03*
G01*
X22529800Y-8661400D03*
G01*
X22021800Y-8661400D03*
G01*
X21767800Y-8661400D03*
G01*
X18719800Y-8661400D03*
G01*
X18973800Y-8661400D03*
G01*
X19227800Y-8661400D03*
G01*
X19481800Y-8661400D03*
G01*
X18465800Y-8661400D03*
G01*
X18211800Y-8661400D03*
G01*
X17957800Y-8661400D03*
G01*
X17703800Y-8661400D03*
G01*
X20497800Y-8661400D03*
G01*
X20243800Y-8661400D03*
G01*
X19989800Y-8661400D03*
G01*
X19735800Y-8661400D03*
G01*
X20751800Y-8661400D03*
G01*
X21005800Y-8661400D03*
G01*
X21259800Y-8661400D03*
G01*
X21513800Y-8661400D03*
D56*
G01*
X14973300Y-8051800D03*
D38*
G01*
X14973300Y-8305800D03*
G01*
X14973300Y-8559800D03*
G01*
X14973300Y-8813800D03*
G01*
X15735300Y-8051800D03*
G01*
X15735300Y-8305800D03*
G01*
X15735300Y-8559800D03*
G01*
X15735300Y-8813800D03*
D57*
G01*
X9321800Y-5118100D03*
G01*
X9321800Y-5372100D03*
G01*
X9321800Y-5626100D03*
G01*
X9321800Y-5880100D03*
G01*
X9321800Y-6134100D03*
G01*
X9321800Y-6388100D03*
G01*
X9321800Y-6642100D03*
G01*
X8559800Y-6642100D03*
G01*
X9321800Y-4864100D03*
G01*
X9321800Y-4610100D03*
G01*
X8559800Y-6388100D03*
G01*
X8559800Y-6134100D03*
G01*
X8559800Y-5880100D03*
G01*
X8559800Y-5626100D03*
G01*
X8559800Y-5372100D03*
G01*
X8559800Y-5118100D03*
G01*
X8559800Y-4864100D03*
D58*
G01*
X8559800Y-4610100D03*
D57*
G01*
X8559800Y-6896100D03*
G01*
X8559800Y-7150100D03*
G01*
X8559800Y-7404100D03*
G01*
X8559800Y-7658100D03*
G01*
X8559800Y-7912100D03*
G01*
X9321800Y-7912100D03*
G01*
X9321800Y-7658100D03*
G01*
X9321800Y-7404100D03*
G01*
X9321800Y-7150100D03*
G01*
X9321800Y-6896100D03*
D59*
G01*
X19236791Y-6502400D03*
G01*
X19726808Y-6502400D03*
D60*
G01*
X14655800Y-8051800D03*
G01*
X14655800Y-8305800D03*
D24*
G01*
X15125700Y-1993900D03*
D31*
G01*
X15125700Y-2247900D03*
D24*
G01*
X14757400Y-1993900D03*
D31*
G01*
X14757400Y-2247900D03*
D24*
G01*
X4000500Y-23634700D03*
D29*
G01*
X4000500Y-23380700D03*
D24*
G01*
X4279900Y-23634700D03*
D29*
G01*
X4279900Y-23380700D03*
D24*
G01*
X3721100Y-23634700D03*
D29*
G01*
X3721100Y-23380700D03*
D61*
G01*
X19757643Y-11836400D03*
D62*
G01*
X20015708Y-11836400D03*
G01*
X20273772Y-11836400D03*
G01*
X20531836Y-11836400D03*
G01*
X20789900Y-11836400D03*
G01*
X21047963Y-11836400D03*
G01*
X21306027Y-11836400D03*
G01*
X21564091Y-11836400D03*
G01*
X21822156Y-11836400D03*
D63*
G01*
X22546056Y-9296400D03*
D62*
G01*
X22287991Y-9296400D03*
G01*
X22029927Y-9296400D03*
G01*
X21771863Y-9296400D03*
G01*
X21513800Y-9296400D03*
G01*
X21255736Y-9296400D03*
G01*
X20997672Y-9296400D03*
G01*
X20739608Y-9296400D03*
G01*
X20481543Y-9296400D03*
D26*
G01*
X22555200Y-9842500D03*
D15*
G01*
X22301200Y-9842500D03*
G01*
X22047200Y-9842500D03*
G01*
X21793200Y-9842500D03*
G01*
X21539200Y-9842500D03*
G01*
X21285200Y-9842500D03*
G01*
X21031200Y-9842500D03*
G01*
X20777200Y-9842500D03*
G01*
X20523200Y-9842500D03*
G01*
X20269200Y-9842500D03*
G01*
X20015200Y-9842500D03*
G01*
X19761200Y-9842500D03*
G01*
X19507200Y-9842500D03*
G01*
X19253200Y-9842500D03*
G01*
X18999200Y-9842500D03*
G01*
X18745200Y-9842500D03*
G01*
X18491200Y-9842500D03*
G01*
X18237200Y-9842500D03*
G01*
X17983200Y-9842500D03*
G01*
X17729200Y-9842500D03*
G01*
X17729200Y-11366500D03*
G01*
X17983200Y-11366500D03*
G01*
X18237200Y-11366500D03*
G01*
X18491200Y-11366500D03*
G01*
X18745200Y-11366500D03*
G01*
X18999200Y-11366500D03*
G01*
X19253200Y-11366500D03*
G01*
X19507200Y-11366500D03*
G01*
X19761200Y-11366500D03*
G01*
X20015200Y-11366500D03*
G01*
X20269200Y-11366500D03*
G01*
X20523200Y-11366500D03*
G01*
X20777200Y-11366500D03*
G01*
X21031200Y-11366500D03*
G01*
X21285200Y-11366500D03*
G01*
X21539200Y-11366500D03*
G01*
X21793200Y-11366500D03*
G01*
X22047200Y-11366500D03*
G01*
X22301200Y-11366500D03*
G01*
X22555200Y-11366500D03*
M02*
